G04 #@! TF.GenerationSoftware,KiCad,Pcbnew,7.0.9*
G04 #@! TF.CreationDate,2023-11-22T10:43:17-08:00*
G04 #@! TF.ProjectId,PCM510xA_I2S_DAC,50434d35-3130-4784-915f-4932535f4441,1.0.1*
G04 #@! TF.SameCoordinates,Original*
G04 #@! TF.FileFunction,Paste,Top*
G04 #@! TF.FilePolarity,Positive*
%FSLAX46Y46*%
G04 Gerber Fmt 4.6, Leading zero omitted, Abs format (unit mm)*
G04 Created by KiCad (PCBNEW 7.0.9) date 2023-11-22 10:43:17*
%MOMM*%
%LPD*%
G01*
G04 APERTURE LIST*
G04 Aperture macros list*
%AMRoundRect*
0 Rectangle with rounded corners*
0 $1 Rounding radius*
0 $2 $3 $4 $5 $6 $7 $8 $9 X,Y pos of 4 corners*
0 Add a 4 corners polygon primitive as box body*
4,1,4,$2,$3,$4,$5,$6,$7,$8,$9,$2,$3,0*
0 Add four circle primitives for the rounded corners*
1,1,$1+$1,$2,$3*
1,1,$1+$1,$4,$5*
1,1,$1+$1,$6,$7*
1,1,$1+$1,$8,$9*
0 Add four rect primitives between the rounded corners*
20,1,$1+$1,$2,$3,$4,$5,0*
20,1,$1+$1,$4,$5,$6,$7,0*
20,1,$1+$1,$6,$7,$8,$9,0*
20,1,$1+$1,$8,$9,$2,$3,0*%
G04 Aperture macros list end*
%ADD10RoundRect,0.243750X-0.456250X0.243750X-0.456250X-0.243750X0.456250X-0.243750X0.456250X0.243750X0*%
%ADD11RoundRect,0.250000X0.450000X-0.262500X0.450000X0.262500X-0.450000X0.262500X-0.450000X-0.262500X0*%
%ADD12RoundRect,0.250000X-0.450000X0.262500X-0.450000X-0.262500X0.450000X-0.262500X0.450000X0.262500X0*%
%ADD13RoundRect,0.250000X-0.262500X-0.450000X0.262500X-0.450000X0.262500X0.450000X-0.262500X0.450000X0*%
%ADD14RoundRect,0.250000X0.262500X0.450000X-0.262500X0.450000X-0.262500X-0.450000X0.262500X-0.450000X0*%
%ADD15RoundRect,0.250000X-0.250000X-0.475000X0.250000X-0.475000X0.250000X0.475000X-0.250000X0.475000X0*%
%ADD16RoundRect,0.250000X-0.475000X0.250000X-0.475000X-0.250000X0.475000X-0.250000X0.475000X0.250000X0*%
%ADD17RoundRect,0.250000X0.475000X-0.250000X0.475000X0.250000X-0.475000X0.250000X-0.475000X-0.250000X0*%
%ADD18RoundRect,0.100000X0.637500X0.100000X-0.637500X0.100000X-0.637500X-0.100000X0.637500X-0.100000X0*%
%ADD19R,2.200000X2.800000*%
%ADD20R,2.800000X2.800000*%
%ADD21RoundRect,0.150000X0.150000X-0.512500X0.150000X0.512500X-0.150000X0.512500X-0.150000X-0.512500X0*%
G04 APERTURE END LIST*
D10*
X119500000Y-97662500D03*
X119500000Y-99537500D03*
D11*
X122750000Y-99512500D03*
X122750000Y-97687500D03*
D12*
X147574000Y-110856629D03*
X147574000Y-112681629D03*
D13*
X130375000Y-104946129D03*
X132200000Y-104946129D03*
D14*
X154832500Y-97070000D03*
X153007500Y-97070000D03*
D15*
X134600000Y-107600000D03*
X136500000Y-107600000D03*
D16*
X119600000Y-107650000D03*
X119600000Y-109550000D03*
D15*
X134650000Y-104900000D03*
X136550000Y-104900000D03*
X125900000Y-110900000D03*
X127800000Y-110900000D03*
D13*
X130387500Y-110900000D03*
X132212500Y-110900000D03*
D16*
X140970000Y-100278129D03*
X140970000Y-102178129D03*
D17*
X122700000Y-104450000D03*
X122700000Y-102550000D03*
D14*
X149362500Y-108460000D03*
X147537500Y-108460000D03*
D17*
X137700000Y-97050000D03*
X137700000Y-95150000D03*
D18*
X134366000Y-102444800D03*
X134366000Y-101794800D03*
X134366000Y-101144800D03*
X134366000Y-100494800D03*
X134366000Y-99844800D03*
X134366000Y-99194800D03*
X134366000Y-98544800D03*
X134366000Y-97894800D03*
X134366000Y-97244800D03*
X134366000Y-96594800D03*
X128641000Y-96594800D03*
X128641000Y-97244800D03*
X128641000Y-97894800D03*
X128641000Y-98544800D03*
X128641000Y-99194800D03*
X128641000Y-99844800D03*
X128641000Y-100494800D03*
X128641000Y-101144800D03*
X128641000Y-101794800D03*
X128641000Y-102444800D03*
D19*
X153035000Y-107595129D03*
X155035000Y-100195129D03*
D20*
X145635000Y-100195129D03*
D16*
X137668000Y-100278129D03*
X137668000Y-102178129D03*
D11*
X147608000Y-97012629D03*
X147608000Y-95187629D03*
X139600000Y-110312500D03*
X139600000Y-108487500D03*
D16*
X122700000Y-107650000D03*
X122700000Y-109550000D03*
X150874000Y-110819129D03*
X150874000Y-112719129D03*
X150876000Y-95198129D03*
X150876000Y-97098129D03*
D17*
X119600000Y-104450000D03*
X119600000Y-102550000D03*
D21*
X125850000Y-108375000D03*
X126800000Y-108375000D03*
X127750000Y-108375000D03*
X127750000Y-106100000D03*
X125850000Y-106100000D03*
D17*
X141000000Y-97050000D03*
X141000000Y-95150000D03*
M02*
