G04 #@! TF.GenerationSoftware,KiCad,Pcbnew,7.0.9*
G04 #@! TF.CreationDate,2023-11-22T10:43:16-08:00*
G04 #@! TF.ProjectId,PCM510xA_I2S_DAC,50434d35-3130-4784-915f-4932535f4441,1.0.1*
G04 #@! TF.SameCoordinates,Original*
G04 #@! TF.FileFunction,Copper,L1,Top*
G04 #@! TF.FilePolarity,Positive*
%FSLAX46Y46*%
G04 Gerber Fmt 4.6, Leading zero omitted, Abs format (unit mm)*
G04 Created by KiCad (PCBNEW 7.0.9) date 2023-11-22 10:43:16*
%MOMM*%
%LPD*%
G01*
G04 APERTURE LIST*
G04 Aperture macros list*
%AMRoundRect*
0 Rectangle with rounded corners*
0 $1 Rounding radius*
0 $2 $3 $4 $5 $6 $7 $8 $9 X,Y pos of 4 corners*
0 Add a 4 corners polygon primitive as box body*
4,1,4,$2,$3,$4,$5,$6,$7,$8,$9,$2,$3,0*
0 Add four circle primitives for the rounded corners*
1,1,$1+$1,$2,$3*
1,1,$1+$1,$4,$5*
1,1,$1+$1,$6,$7*
1,1,$1+$1,$8,$9*
0 Add four rect primitives between the rounded corners*
20,1,$1+$1,$2,$3,$4,$5,0*
20,1,$1+$1,$4,$5,$6,$7,0*
20,1,$1+$1,$6,$7,$8,$9,0*
20,1,$1+$1,$8,$9,$2,$3,0*%
G04 Aperture macros list end*
G04 #@! TA.AperFunction,SMDPad,CuDef*
%ADD10RoundRect,0.243750X-0.456250X0.243750X-0.456250X-0.243750X0.456250X-0.243750X0.456250X0.243750X0*%
G04 #@! TD*
G04 #@! TA.AperFunction,SMDPad,CuDef*
%ADD11RoundRect,0.250000X0.450000X-0.262500X0.450000X0.262500X-0.450000X0.262500X-0.450000X-0.262500X0*%
G04 #@! TD*
G04 #@! TA.AperFunction,SMDPad,CuDef*
%ADD12RoundRect,0.250000X-0.450000X0.262500X-0.450000X-0.262500X0.450000X-0.262500X0.450000X0.262500X0*%
G04 #@! TD*
G04 #@! TA.AperFunction,SMDPad,CuDef*
%ADD13RoundRect,0.250000X-0.262500X-0.450000X0.262500X-0.450000X0.262500X0.450000X-0.262500X0.450000X0*%
G04 #@! TD*
G04 #@! TA.AperFunction,SMDPad,CuDef*
%ADD14RoundRect,0.250000X0.262500X0.450000X-0.262500X0.450000X-0.262500X-0.450000X0.262500X-0.450000X0*%
G04 #@! TD*
G04 #@! TA.AperFunction,SMDPad,CuDef*
%ADD15RoundRect,0.250000X-0.250000X-0.475000X0.250000X-0.475000X0.250000X0.475000X-0.250000X0.475000X0*%
G04 #@! TD*
G04 #@! TA.AperFunction,SMDPad,CuDef*
%ADD16RoundRect,0.250000X-0.475000X0.250000X-0.475000X-0.250000X0.475000X-0.250000X0.475000X0.250000X0*%
G04 #@! TD*
G04 #@! TA.AperFunction,ComponentPad*
%ADD17R,1.700000X1.700000*%
G04 #@! TD*
G04 #@! TA.AperFunction,ComponentPad*
%ADD18O,1.700000X1.700000*%
G04 #@! TD*
G04 #@! TA.AperFunction,SMDPad,CuDef*
%ADD19RoundRect,0.250000X0.475000X-0.250000X0.475000X0.250000X-0.475000X0.250000X-0.475000X-0.250000X0*%
G04 #@! TD*
G04 #@! TA.AperFunction,SMDPad,CuDef*
%ADD20RoundRect,0.100000X0.637500X0.100000X-0.637500X0.100000X-0.637500X-0.100000X0.637500X-0.100000X0*%
G04 #@! TD*
G04 #@! TA.AperFunction,SMDPad,CuDef*
%ADD21R,2.200000X2.800000*%
G04 #@! TD*
G04 #@! TA.AperFunction,SMDPad,CuDef*
%ADD22R,2.800000X2.800000*%
G04 #@! TD*
G04 #@! TA.AperFunction,SMDPad,CuDef*
%ADD23RoundRect,0.150000X0.150000X-0.512500X0.150000X0.512500X-0.150000X0.512500X-0.150000X-0.512500X0*%
G04 #@! TD*
G04 #@! TA.AperFunction,ViaPad*
%ADD24C,0.685800*%
G04 #@! TD*
G04 #@! TA.AperFunction,Conductor*
%ADD25C,0.203200*%
G04 #@! TD*
G04 #@! TA.AperFunction,Conductor*
%ADD26C,0.152400*%
G04 #@! TD*
G04 APERTURE END LIST*
D10*
X119500000Y-97662500D03*
X119500000Y-99537500D03*
D11*
X122750000Y-99512500D03*
X122750000Y-97687500D03*
D12*
X147574000Y-110856629D03*
X147574000Y-112681629D03*
D13*
X130375000Y-104946129D03*
X132200000Y-104946129D03*
D14*
X154832500Y-97070000D03*
X153007500Y-97070000D03*
D15*
X134600000Y-107600000D03*
X136500000Y-107600000D03*
D16*
X119600000Y-107650000D03*
X119600000Y-109550000D03*
D15*
X134650000Y-104900000D03*
X136550000Y-104900000D03*
X125900000Y-110900000D03*
X127800000Y-110900000D03*
D13*
X130387500Y-110900000D03*
X132212500Y-110900000D03*
D16*
X140970000Y-100278129D03*
X140970000Y-102178129D03*
D17*
X139700000Y-114665129D03*
D18*
X137160000Y-114665129D03*
X134620000Y-114665129D03*
X132080000Y-114665129D03*
X129540000Y-114665129D03*
X127000000Y-114665129D03*
X124460000Y-114665129D03*
D19*
X122700000Y-104450000D03*
X122700000Y-102550000D03*
D14*
X149362500Y-108460000D03*
X147537500Y-108460000D03*
D19*
X137700000Y-97050000D03*
X137700000Y-95150000D03*
D20*
X134366000Y-102444800D03*
X134366000Y-101794800D03*
X134366000Y-101144800D03*
X134366000Y-100494800D03*
X134366000Y-99844800D03*
X134366000Y-99194800D03*
X134366000Y-98544800D03*
X134366000Y-97894800D03*
X134366000Y-97244800D03*
X134366000Y-96594800D03*
X128641000Y-96594800D03*
X128641000Y-97244800D03*
X128641000Y-97894800D03*
X128641000Y-98544800D03*
X128641000Y-99194800D03*
X128641000Y-99844800D03*
X128641000Y-100494800D03*
X128641000Y-101144800D03*
X128641000Y-101794800D03*
X128641000Y-102444800D03*
D21*
X153035000Y-107595129D03*
X155035000Y-100195129D03*
D22*
X145635000Y-100195129D03*
D16*
X137668000Y-100278129D03*
X137668000Y-102178129D03*
D11*
X147608000Y-97012629D03*
X147608000Y-95187629D03*
X139600000Y-110312500D03*
X139600000Y-108487500D03*
D16*
X122700000Y-107650000D03*
X122700000Y-109550000D03*
X150874000Y-110819129D03*
X150874000Y-112719129D03*
X150876000Y-95198129D03*
X150876000Y-97098129D03*
D19*
X119600000Y-104450000D03*
X119600000Y-102550000D03*
D23*
X125850000Y-108375000D03*
X126800000Y-108375000D03*
X127750000Y-108375000D03*
X127750000Y-106100000D03*
X125850000Y-106100000D03*
D19*
X141000000Y-97050000D03*
X141000000Y-95150000D03*
D24*
X143100000Y-110300000D03*
X124540000Y-111520000D03*
X117800000Y-105000000D03*
X122000000Y-92000000D03*
X118000000Y-96100000D03*
X130200000Y-92000000D03*
X124290000Y-98480000D03*
X122000000Y-115800000D03*
X118000000Y-110800000D03*
X129090000Y-107230000D03*
X143100000Y-115800000D03*
X121100000Y-104500000D03*
X125100000Y-102500000D03*
X127000000Y-98500000D03*
X125600000Y-97900000D03*
X125600000Y-99100000D03*
X127000000Y-100500000D03*
X150900000Y-115800000D03*
X145400000Y-104900000D03*
X156100000Y-96100000D03*
X150900000Y-92000000D03*
X145400000Y-110300000D03*
X143600000Y-96100000D03*
X145400000Y-115800000D03*
X139600000Y-92000000D03*
X145400000Y-92000000D03*
X139600000Y-104900000D03*
X132300000Y-92000000D03*
X156000000Y-105000000D03*
X156010000Y-111830000D03*
X129100000Y-109200000D03*
X148910000Y-104970000D03*
X150901400Y-104987329D03*
D25*
X134366000Y-96066000D02*
X133700000Y-95400000D01*
X134366000Y-96594800D02*
X134366000Y-96066000D01*
X133700000Y-95400000D02*
X130700000Y-95400000D01*
D26*
X150865500Y-95187629D02*
X150876000Y-95198129D01*
X147608000Y-95187629D02*
X150865500Y-95187629D01*
X150876000Y-95198129D02*
X152960629Y-95198129D01*
X152960629Y-95198129D02*
X154832500Y-97070000D01*
X137284671Y-101794800D02*
X137668000Y-102178129D01*
X134366000Y-101794800D02*
X137284671Y-101794800D01*
X137451329Y-100494800D02*
X134366000Y-100494800D01*
X137668000Y-100278129D02*
X137451329Y-100494800D01*
X150099129Y-110819129D02*
X149362500Y-110082500D01*
X148868371Y-112681629D02*
X149362500Y-112187500D01*
X150874000Y-110819129D02*
X150099129Y-110819129D01*
X149362500Y-112187500D02*
X149362500Y-109780000D01*
X147574000Y-112681629D02*
X148868371Y-112681629D01*
X150111665Y-110831665D02*
X150124200Y-110819129D01*
X149362500Y-110082500D02*
X149362500Y-109780000D01*
X147574000Y-112681629D02*
X148261700Y-112681629D01*
X149362500Y-109780000D02*
X149362500Y-108460000D01*
X121100000Y-104500000D02*
X119650000Y-104500000D01*
X125050000Y-102550000D02*
X125100000Y-102500000D01*
X122700000Y-104450000D02*
X121150000Y-104450000D01*
X128641000Y-101144800D02*
X125955200Y-101144800D01*
X121150000Y-104450000D02*
X121100000Y-104500000D01*
X125955200Y-101144800D02*
X125100000Y-102000000D01*
X119650000Y-104500000D02*
X119600000Y-104450000D01*
X125100000Y-102000000D02*
X125100000Y-102500000D01*
X136526252Y-98809600D02*
X140200000Y-98809600D01*
X134366000Y-99844800D02*
X135491052Y-99844800D01*
X135491052Y-99844800D02*
X136526252Y-98809600D01*
X140970000Y-99579600D02*
X140970000Y-100278129D01*
X140200000Y-98809600D02*
X140970000Y-99579600D01*
D25*
X128641000Y-102444800D02*
X128641000Y-103212129D01*
X122700000Y-106700000D02*
X123300000Y-106100000D01*
X128641000Y-103212129D02*
X130375000Y-104946129D01*
X123812500Y-99512500D02*
X124200000Y-99900000D01*
X125400000Y-104800000D02*
X126987871Y-103212129D01*
X124200000Y-99900000D02*
X124200000Y-103600000D01*
X121400000Y-107650000D02*
X122700000Y-107650000D01*
X123300000Y-106100000D02*
X125850000Y-106100000D01*
X122700000Y-107650000D02*
X122700000Y-106700000D01*
X125850000Y-106100000D02*
X125850000Y-105250000D01*
X125850000Y-105250000D02*
X125400000Y-104800000D01*
X130387500Y-104958629D02*
X130375000Y-104946129D01*
X126987871Y-103212129D02*
X128641000Y-103212129D01*
X119600000Y-107650000D02*
X121400000Y-107650000D01*
X124200000Y-103600000D02*
X125400000Y-104800000D01*
X122750000Y-99512500D02*
X123812500Y-99512500D01*
X130387500Y-110900000D02*
X130387500Y-104958629D01*
X132200000Y-104946129D02*
X134603871Y-104946129D01*
X136931000Y-97819000D02*
X137700000Y-97050000D01*
X134650000Y-102728800D02*
X134366000Y-102444800D01*
X134441800Y-97819000D02*
X136931000Y-97819000D01*
X132705200Y-97894800D02*
X134366000Y-97894800D01*
X134600000Y-107600000D02*
X134650000Y-107550000D01*
X134366000Y-97894800D02*
X134441800Y-97819000D01*
X134650000Y-107550000D02*
X134650000Y-104900000D01*
X134603871Y-104946129D02*
X134650000Y-104900000D01*
X132200000Y-104946129D02*
X132200000Y-98400000D01*
X134650000Y-104900000D02*
X134650000Y-102728800D01*
X132200000Y-98400000D02*
X132705200Y-97894800D01*
X137700000Y-97050000D02*
X141000000Y-97050000D01*
D26*
X127044800Y-98544800D02*
X127000000Y-98500000D01*
X128641000Y-98544800D02*
X127044800Y-98544800D01*
X125600000Y-97900000D02*
X125626900Y-97900000D01*
X128573100Y-97900000D02*
X125600000Y-97900000D01*
X125600000Y-99100000D02*
X125605200Y-99194800D01*
X128641000Y-99194800D02*
X125694800Y-99194800D01*
X125694800Y-99194800D02*
X125600000Y-99100000D01*
X120400000Y-99500000D02*
X122212500Y-97687500D01*
X119500000Y-99537500D02*
X119537500Y-99500000D01*
X122212500Y-97687500D02*
X122750000Y-97687500D01*
X119537500Y-99500000D02*
X120400000Y-99500000D01*
X134620000Y-114665129D02*
X134620000Y-111520000D01*
X127005200Y-100494800D02*
X127000000Y-100500000D01*
X134620000Y-111520000D02*
X134000000Y-110900000D01*
X127105200Y-100494800D02*
X127100000Y-100500000D01*
X134000000Y-110900000D02*
X132212500Y-110900000D01*
X128641000Y-100494800D02*
X127005200Y-100494800D01*
X132212500Y-110900000D02*
X132234800Y-110922300D01*
X135710000Y-99194800D02*
X134366000Y-99194800D01*
X143510000Y-98810000D02*
X143204800Y-98504800D01*
X143204800Y-98504800D02*
X136400000Y-98504800D01*
X143510000Y-106792629D02*
X143510000Y-98810000D01*
X136400000Y-98504800D02*
X135710000Y-99194800D01*
X147574000Y-110856629D02*
X143510000Y-106792629D01*
X144387371Y-97012629D02*
X147608000Y-97012629D01*
X143200000Y-98200000D02*
X144387371Y-97012629D01*
X135861129Y-98200000D02*
X143200000Y-98200000D01*
X134366000Y-98544800D02*
X134382329Y-98561129D01*
X135500000Y-98561129D02*
X135861129Y-98200000D01*
X134382329Y-98561129D02*
X135500000Y-98561129D01*
X126130000Y-112800000D02*
X125170000Y-112800000D01*
X128850000Y-108375000D02*
X129075000Y-108600000D01*
X129100000Y-112300000D02*
X128600000Y-112800000D01*
X125225000Y-108375000D02*
X124930000Y-108670000D01*
X123960000Y-110530000D02*
X124620000Y-110530000D01*
X129075000Y-109175000D02*
X129075000Y-108600000D01*
X129100000Y-109200000D02*
X129075000Y-109175000D01*
X125900000Y-110900000D02*
X125220000Y-110220000D01*
X127750000Y-108375000D02*
X128850000Y-108375000D01*
X124620000Y-110530000D02*
X124930000Y-110220000D01*
X123640000Y-112480000D02*
X123640000Y-110850000D01*
X128600000Y-112800000D02*
X126130000Y-112800000D01*
X125170000Y-112800000D02*
X123960000Y-112800000D01*
X125220000Y-110220000D02*
X124930000Y-110220000D01*
X129100000Y-109200000D02*
X129100000Y-112300000D01*
X124930000Y-108670000D02*
X124930000Y-110220000D01*
X123960000Y-112800000D02*
X123640000Y-112480000D01*
X123640000Y-110850000D02*
X123960000Y-110530000D01*
X125850000Y-108375000D02*
X125225000Y-108375000D01*
X143814800Y-101270000D02*
X144889671Y-100195129D01*
X145608423Y-108460000D02*
X143814800Y-106666377D01*
X147537500Y-106342500D02*
X148910000Y-104970000D01*
X144889671Y-100195129D02*
X145635000Y-100195129D01*
X147537500Y-108460000D02*
X147537500Y-106342500D01*
X143814800Y-106666377D02*
X143814800Y-101270000D01*
X147537500Y-108460000D02*
X145608423Y-108460000D01*
X152180000Y-98340000D02*
X152977500Y-97542500D01*
X150876000Y-106816129D02*
X151655000Y-107595129D01*
X150876000Y-104961929D02*
X150901400Y-104987329D01*
X150901400Y-104987329D02*
X150876000Y-105012729D01*
X152977500Y-97542500D02*
X153007500Y-97542500D01*
X152180000Y-103708729D02*
X152180000Y-98340000D01*
X150876000Y-105012729D02*
X150876000Y-106816129D01*
X150901400Y-104987329D02*
X152180000Y-103708729D01*
X153007500Y-97542500D02*
X153007500Y-97070000D01*
X151655000Y-107595129D02*
X153035000Y-107595129D01*
G04 #@! TA.AperFunction,Conductor*
G36*
X156212255Y-91118651D02*
G01*
X156390899Y-91132714D01*
X156410116Y-91135758D01*
X156472706Y-91150785D01*
X156577246Y-91175884D01*
X156595739Y-91181892D01*
X156754539Y-91247671D01*
X156771870Y-91256502D01*
X156821292Y-91286787D01*
X156918418Y-91346306D01*
X156934158Y-91357741D01*
X157064853Y-91469363D01*
X157078611Y-91483121D01*
X157190236Y-91613812D01*
X157201672Y-91629552D01*
X157291479Y-91776093D01*
X157300313Y-91793429D01*
X157366090Y-91952213D01*
X157372104Y-91970717D01*
X157411463Y-92134629D01*
X157412236Y-92137846D01*
X157415280Y-92157063D01*
X157429309Y-92335208D01*
X157429500Y-92340058D01*
X157429500Y-115294282D01*
X157429498Y-115294300D01*
X157429499Y-115322699D01*
X157429308Y-115327564D01*
X157415258Y-115506203D01*
X157412215Y-115525423D01*
X157372098Y-115692551D01*
X157366087Y-115711051D01*
X157300317Y-115869847D01*
X157291487Y-115887178D01*
X157201683Y-116033730D01*
X157190246Y-116049473D01*
X157078626Y-116180165D01*
X157064866Y-116193925D01*
X156934171Y-116305548D01*
X156918428Y-116316985D01*
X156771886Y-116406783D01*
X156754548Y-116415617D01*
X156595757Y-116481386D01*
X156577249Y-116487399D01*
X156410124Y-116527515D01*
X156390905Y-116530558D01*
X156212292Y-116544606D01*
X156207425Y-116544797D01*
X156168772Y-116544795D01*
X156168758Y-116544798D01*
X144523000Y-116544798D01*
X144455961Y-116525113D01*
X144410206Y-116472309D01*
X144399000Y-116420798D01*
X144399000Y-114055129D01*
X153207551Y-114055129D01*
X153227317Y-114306280D01*
X153286126Y-114551239D01*
X153382533Y-114783988D01*
X153514160Y-114998782D01*
X153514161Y-114998785D01*
X153520571Y-115006290D01*
X153677776Y-115190353D01*
X153826066Y-115317004D01*
X153869343Y-115353967D01*
X153869346Y-115353968D01*
X154084140Y-115485595D01*
X154195330Y-115531651D01*
X154316889Y-115582002D01*
X154561852Y-115640812D01*
X154717950Y-115653097D01*
X154750116Y-115655629D01*
X154750118Y-115655629D01*
X154875884Y-115655629D01*
X154905518Y-115653296D01*
X155064148Y-115640812D01*
X155309111Y-115582002D01*
X155541859Y-115485595D01*
X155756659Y-115353965D01*
X155948224Y-115190353D01*
X156111836Y-114998788D01*
X156243466Y-114783988D01*
X156339873Y-114551240D01*
X156398683Y-114306277D01*
X156418449Y-114055129D01*
X156398683Y-113803981D01*
X156339873Y-113559018D01*
X156291473Y-113442169D01*
X156243466Y-113326269D01*
X156111839Y-113111475D01*
X156111838Y-113111472D01*
X156061446Y-113052471D01*
X155948224Y-112919905D01*
X155821571Y-112811733D01*
X155756656Y-112756290D01*
X155756653Y-112756289D01*
X155541859Y-112624662D01*
X155309110Y-112528255D01*
X155064150Y-112469446D01*
X154875884Y-112454629D01*
X154875882Y-112454629D01*
X154750118Y-112454629D01*
X154750116Y-112454629D01*
X154561849Y-112469446D01*
X154316889Y-112528255D01*
X154084140Y-112624662D01*
X153869346Y-112756289D01*
X153869343Y-112756290D01*
X153677776Y-112919905D01*
X153514161Y-113111472D01*
X153514160Y-113111475D01*
X153382533Y-113326269D01*
X153286126Y-113559018D01*
X153227317Y-113803977D01*
X153207551Y-114055129D01*
X144399000Y-114055129D01*
X144399000Y-112992380D01*
X146619500Y-112992380D01*
X146619501Y-112992386D01*
X146625960Y-113052473D01*
X146676655Y-113188390D01*
X146676656Y-113188393D01*
X146676658Y-113188396D01*
X146705747Y-113227255D01*
X146763595Y-113304533D01*
X146821443Y-113347836D01*
X146879733Y-113391471D01*
X147015658Y-113442169D01*
X147075745Y-113448629D01*
X148072254Y-113448628D01*
X148132342Y-113442169D01*
X148268267Y-113391471D01*
X148384404Y-113304533D01*
X148471342Y-113188396D01*
X148506926Y-113092991D01*
X148548796Y-113037062D01*
X148614260Y-113012645D01*
X148623106Y-113012329D01*
X148851222Y-113012329D01*
X148856623Y-113012564D01*
X148897638Y-113016153D01*
X148937408Y-113005495D01*
X148942668Y-113004329D01*
X148983222Y-112997180D01*
X148983226Y-112997177D01*
X148987619Y-112995579D01*
X149006033Y-112987951D01*
X149010281Y-112985970D01*
X149010287Y-112985969D01*
X149034335Y-112969129D01*
X149649001Y-112969129D01*
X149649001Y-113019115D01*
X149659494Y-113121826D01*
X149714641Y-113288248D01*
X149714643Y-113288253D01*
X149806684Y-113437474D01*
X149930654Y-113561444D01*
X150079875Y-113653485D01*
X150079880Y-113653487D01*
X150246302Y-113708634D01*
X150246309Y-113708635D01*
X150349019Y-113719128D01*
X150623999Y-113719128D01*
X150624000Y-113719127D01*
X150624000Y-112969129D01*
X151124000Y-112969129D01*
X151124000Y-113719128D01*
X151398972Y-113719128D01*
X151398986Y-113719127D01*
X151501697Y-113708634D01*
X151668119Y-113653487D01*
X151668124Y-113653485D01*
X151817345Y-113561444D01*
X151941315Y-113437474D01*
X152033356Y-113288253D01*
X152033358Y-113288248D01*
X152088505Y-113121826D01*
X152088506Y-113121819D01*
X152098999Y-113019115D01*
X152099000Y-113019102D01*
X152099000Y-112969129D01*
X151124000Y-112969129D01*
X150624000Y-112969129D01*
X149649001Y-112969129D01*
X149034335Y-112969129D01*
X149044013Y-112962352D01*
X149048561Y-112959454D01*
X149084220Y-112938868D01*
X149110690Y-112907320D01*
X149114330Y-112903348D01*
X149512231Y-112505448D01*
X149573554Y-112471963D01*
X149599912Y-112469129D01*
X152098999Y-112469129D01*
X152098999Y-112419157D01*
X152098998Y-112419142D01*
X152088505Y-112316431D01*
X152033358Y-112150009D01*
X152033356Y-112150004D01*
X151941315Y-112000783D01*
X151817345Y-111876813D01*
X151668124Y-111784772D01*
X151668119Y-111784770D01*
X151581917Y-111756206D01*
X151524472Y-111716433D01*
X151497649Y-111651918D01*
X151509964Y-111583142D01*
X151557507Y-111531942D01*
X151577582Y-111522320D01*
X151593267Y-111516471D01*
X151709404Y-111429533D01*
X151796342Y-111313396D01*
X151847040Y-111177471D01*
X151849800Y-111151793D01*
X151853499Y-111117400D01*
X151853499Y-111117393D01*
X151853500Y-111117384D01*
X151853499Y-110520875D01*
X151847040Y-110460787D01*
X151832802Y-110422614D01*
X151796344Y-110324867D01*
X151796343Y-110324866D01*
X151796342Y-110324862D01*
X151738481Y-110247568D01*
X151709404Y-110208724D01*
X151626665Y-110146788D01*
X151593267Y-110121787D01*
X151457342Y-110071089D01*
X151457338Y-110071088D01*
X151397262Y-110064629D01*
X150350748Y-110064629D01*
X150350742Y-110064630D01*
X150290655Y-110071089D01*
X150154738Y-110121784D01*
X150154734Y-110121786D01*
X150077605Y-110179523D01*
X150012140Y-110203938D01*
X149943867Y-110189085D01*
X149915615Y-110167935D01*
X149843769Y-110096089D01*
X149729519Y-109981838D01*
X149696034Y-109920515D01*
X149693200Y-109894157D01*
X149693200Y-109509106D01*
X149712885Y-109442067D01*
X149765689Y-109396312D01*
X149773838Y-109392935D01*
X149869267Y-109357342D01*
X149985404Y-109270404D01*
X150072342Y-109154267D01*
X150123040Y-109018342D01*
X150126820Y-108983180D01*
X150129499Y-108958271D01*
X150129499Y-108958264D01*
X150129500Y-108958255D01*
X150129499Y-107961746D01*
X150123040Y-107901658D01*
X150092892Y-107820828D01*
X150072344Y-107765738D01*
X150072343Y-107765737D01*
X150072342Y-107765733D01*
X150028707Y-107707443D01*
X149985404Y-107649595D01*
X149908126Y-107591747D01*
X149869267Y-107562658D01*
X149733342Y-107511960D01*
X149733338Y-107511959D01*
X149673263Y-107505500D01*
X149051748Y-107505500D01*
X149051742Y-107505501D01*
X148991655Y-107511960D01*
X148855738Y-107562655D01*
X148855730Y-107562660D01*
X148739595Y-107649595D01*
X148652660Y-107765730D01*
X148652658Y-107765733D01*
X148601960Y-107901658D01*
X148601959Y-107901662D01*
X148595500Y-107961728D01*
X148595500Y-108958251D01*
X148595501Y-108958257D01*
X148601960Y-109018344D01*
X148652655Y-109154261D01*
X148652656Y-109154264D01*
X148652658Y-109154267D01*
X148670883Y-109178613D01*
X148739595Y-109270404D01*
X148797443Y-109313707D01*
X148855733Y-109357342D01*
X148951137Y-109392926D01*
X149007067Y-109434796D01*
X149031484Y-109500260D01*
X149031800Y-109509106D01*
X149031800Y-110065349D01*
X149031564Y-110070755D01*
X149027976Y-110111762D01*
X149028382Y-110116401D01*
X149031800Y-110142362D01*
X149031800Y-111999158D01*
X149012115Y-112066197D01*
X148995481Y-112086839D01*
X148767710Y-112314610D01*
X148706387Y-112348095D01*
X148680029Y-112350929D01*
X148623107Y-112350929D01*
X148556068Y-112331244D01*
X148510313Y-112278440D01*
X148506926Y-112270264D01*
X148486972Y-112216767D01*
X148471342Y-112174862D01*
X148405450Y-112086839D01*
X148384404Y-112058724D01*
X148302767Y-111997613D01*
X148268267Y-111971787D01*
X148132342Y-111921089D01*
X148132338Y-111921088D01*
X148072262Y-111914629D01*
X147075748Y-111914629D01*
X147075742Y-111914630D01*
X147015655Y-111921089D01*
X146879738Y-111971784D01*
X146879730Y-111971789D01*
X146763595Y-112058724D01*
X146695266Y-112150004D01*
X146676658Y-112174862D01*
X146630503Y-112298608D01*
X146625959Y-112310791D01*
X146619500Y-112370857D01*
X146619500Y-112992380D01*
X144399000Y-112992380D01*
X144399000Y-109229129D01*
X140853057Y-109229129D01*
X140786018Y-109209444D01*
X140740263Y-109156640D01*
X140730319Y-109087482D01*
X140735351Y-109066125D01*
X140789505Y-108902697D01*
X140789506Y-108902690D01*
X140799999Y-108799986D01*
X140800000Y-108799973D01*
X140800000Y-108737500D01*
X138400001Y-108737500D01*
X138400001Y-108799986D01*
X138410494Y-108902697D01*
X138464649Y-109066125D01*
X138467051Y-109135953D01*
X138431319Y-109195995D01*
X138368799Y-109227188D01*
X138346943Y-109229129D01*
X131615000Y-109229129D01*
X131547961Y-109209444D01*
X131502206Y-109156640D01*
X131491000Y-109105129D01*
X131491000Y-105939801D01*
X131510685Y-105872762D01*
X131563489Y-105827007D01*
X131632647Y-105817063D01*
X131689309Y-105840533D01*
X131693233Y-105843471D01*
X131829158Y-105894169D01*
X131889245Y-105900629D01*
X132510754Y-105900628D01*
X132570842Y-105894169D01*
X132706767Y-105843471D01*
X132822904Y-105756533D01*
X132909842Y-105640396D01*
X132960540Y-105504471D01*
X132964370Y-105468844D01*
X132966999Y-105444400D01*
X132967000Y-105444383D01*
X132967000Y-105426229D01*
X132986685Y-105359190D01*
X133039489Y-105313435D01*
X133091000Y-105302229D01*
X133771501Y-105302229D01*
X133838540Y-105321914D01*
X133884295Y-105374718D01*
X133894147Y-105420007D01*
X133895099Y-105419957D01*
X133895146Y-105419952D01*
X133895146Y-105419954D01*
X133895324Y-105419945D01*
X133895501Y-105423257D01*
X133901960Y-105483344D01*
X133952655Y-105619261D01*
X133952656Y-105619264D01*
X133952658Y-105619267D01*
X133981747Y-105658126D01*
X134039595Y-105735404D01*
X134097443Y-105778707D01*
X134155733Y-105822342D01*
X134213236Y-105843790D01*
X134269167Y-105885660D01*
X134293584Y-105951124D01*
X134293900Y-105959970D01*
X134293900Y-106521379D01*
X134274215Y-106588418D01*
X134221411Y-106634173D01*
X134213235Y-106637560D01*
X134105736Y-106677656D01*
X134105730Y-106677660D01*
X133989595Y-106764595D01*
X133912984Y-106866939D01*
X133902658Y-106880733D01*
X133851960Y-107016658D01*
X133851959Y-107016662D01*
X133845500Y-107076728D01*
X133845500Y-108123251D01*
X133845501Y-108123257D01*
X133851960Y-108183344D01*
X133902655Y-108319261D01*
X133902656Y-108319264D01*
X133902658Y-108319267D01*
X133912777Y-108332784D01*
X133989595Y-108435404D01*
X134035532Y-108469791D01*
X134105733Y-108522342D01*
X134241658Y-108573040D01*
X134301745Y-108579500D01*
X134898254Y-108579499D01*
X134958342Y-108573040D01*
X135094267Y-108522342D01*
X135210404Y-108435404D01*
X135297342Y-108319267D01*
X135303190Y-108303587D01*
X135345060Y-108247655D01*
X135410525Y-108223238D01*
X135478798Y-108238090D01*
X135528203Y-108287495D01*
X135537077Y-108307918D01*
X135565641Y-108394119D01*
X135565643Y-108394124D01*
X135657684Y-108543345D01*
X135781654Y-108667315D01*
X135930875Y-108759356D01*
X135930880Y-108759358D01*
X136097302Y-108814505D01*
X136097309Y-108814506D01*
X136200019Y-108824999D01*
X136249999Y-108824998D01*
X136250000Y-108824998D01*
X136250000Y-107850000D01*
X136750000Y-107850000D01*
X136750000Y-108824999D01*
X136799972Y-108824999D01*
X136799986Y-108824998D01*
X136902697Y-108814505D01*
X137069119Y-108759358D01*
X137069124Y-108759356D01*
X137218345Y-108667315D01*
X137342315Y-108543345D01*
X137434356Y-108394124D01*
X137434358Y-108394119D01*
X137486257Y-108237500D01*
X138400000Y-108237500D01*
X139350000Y-108237500D01*
X139350000Y-107475000D01*
X139850000Y-107475000D01*
X139850000Y-108237500D01*
X140799999Y-108237500D01*
X140799999Y-108175028D01*
X140799998Y-108175013D01*
X140789505Y-108072302D01*
X140734358Y-107905880D01*
X140734356Y-107905875D01*
X140642315Y-107756654D01*
X140518345Y-107632684D01*
X140369124Y-107540643D01*
X140369119Y-107540641D01*
X140202697Y-107485494D01*
X140202690Y-107485493D01*
X140099986Y-107475000D01*
X139850000Y-107475000D01*
X139350000Y-107475000D01*
X139100029Y-107475000D01*
X139100012Y-107475001D01*
X138997302Y-107485494D01*
X138830880Y-107540641D01*
X138830875Y-107540643D01*
X138681654Y-107632684D01*
X138557684Y-107756654D01*
X138465643Y-107905875D01*
X138465641Y-107905880D01*
X138410494Y-108072302D01*
X138410493Y-108072309D01*
X138400000Y-108175013D01*
X138400000Y-108237500D01*
X137486257Y-108237500D01*
X137489505Y-108227697D01*
X137489506Y-108227690D01*
X137499999Y-108124986D01*
X137500000Y-108124973D01*
X137500000Y-107850000D01*
X136750000Y-107850000D01*
X136250000Y-107850000D01*
X136250000Y-106375000D01*
X136750000Y-106375000D01*
X136750000Y-107350000D01*
X137499999Y-107350000D01*
X137499999Y-107075028D01*
X137499998Y-107075013D01*
X137489505Y-106972302D01*
X137434358Y-106805880D01*
X137434356Y-106805875D01*
X137342315Y-106656654D01*
X137218345Y-106532684D01*
X137069124Y-106440643D01*
X137069119Y-106440641D01*
X136902697Y-106385494D01*
X136902690Y-106385493D01*
X136799986Y-106375000D01*
X136750000Y-106375000D01*
X136250000Y-106375000D01*
X136249999Y-106374999D01*
X136200029Y-106375000D01*
X136200011Y-106375001D01*
X136097302Y-106385494D01*
X135930880Y-106440641D01*
X135930875Y-106440643D01*
X135781654Y-106532684D01*
X135657684Y-106656654D01*
X135565643Y-106805875D01*
X135565641Y-106805880D01*
X135537077Y-106892082D01*
X135497304Y-106949527D01*
X135432788Y-106976350D01*
X135364012Y-106964035D01*
X135312813Y-106916492D01*
X135303191Y-106896417D01*
X135297342Y-106880733D01*
X135253298Y-106821896D01*
X135210404Y-106764595D01*
X135122498Y-106698791D01*
X135094267Y-106677658D01*
X135094262Y-106677656D01*
X135086759Y-106674857D01*
X135030828Y-106632982D01*
X135006415Y-106567516D01*
X135006100Y-106558678D01*
X135006100Y-105959970D01*
X135025785Y-105892931D01*
X135078589Y-105847176D01*
X135086741Y-105843798D01*
X135144267Y-105822342D01*
X135260404Y-105735404D01*
X135347342Y-105619267D01*
X135353190Y-105603587D01*
X135395060Y-105547655D01*
X135460525Y-105523238D01*
X135528798Y-105538090D01*
X135578203Y-105587495D01*
X135587077Y-105607918D01*
X135615641Y-105694119D01*
X135615643Y-105694124D01*
X135707684Y-105843345D01*
X135831654Y-105967315D01*
X135980875Y-106059356D01*
X135980880Y-106059358D01*
X136147302Y-106114505D01*
X136147309Y-106114506D01*
X136250019Y-106124999D01*
X136299999Y-106124998D01*
X136300000Y-106124998D01*
X136300000Y-105150000D01*
X136800000Y-105150000D01*
X136800000Y-106124999D01*
X136849972Y-106124999D01*
X136849986Y-106124998D01*
X136952697Y-106114505D01*
X137119119Y-106059358D01*
X137119124Y-106059356D01*
X137268345Y-105967315D01*
X137392315Y-105843345D01*
X137484356Y-105694124D01*
X137484358Y-105694119D01*
X137539505Y-105527697D01*
X137539506Y-105527690D01*
X137549999Y-105424986D01*
X137550000Y-105424973D01*
X137550000Y-105150000D01*
X136800000Y-105150000D01*
X136300000Y-105150000D01*
X136300000Y-103675000D01*
X136800000Y-103675000D01*
X136800000Y-104650000D01*
X137549999Y-104650000D01*
X137549999Y-104375028D01*
X137549998Y-104375013D01*
X137539505Y-104272302D01*
X137484358Y-104105880D01*
X137484356Y-104105875D01*
X137392315Y-103956654D01*
X137268345Y-103832684D01*
X137119124Y-103740643D01*
X137119119Y-103740641D01*
X136952697Y-103685494D01*
X136952690Y-103685493D01*
X136849986Y-103675000D01*
X136800000Y-103675000D01*
X136300000Y-103675000D01*
X136299999Y-103674999D01*
X136250029Y-103675000D01*
X136250011Y-103675001D01*
X136147302Y-103685494D01*
X135980880Y-103740641D01*
X135980875Y-103740643D01*
X135831654Y-103832684D01*
X135707684Y-103956654D01*
X135615643Y-104105875D01*
X135615641Y-104105880D01*
X135587077Y-104192082D01*
X135547304Y-104249527D01*
X135482788Y-104276350D01*
X135414012Y-104264035D01*
X135362813Y-104216492D01*
X135353191Y-104196417D01*
X135347342Y-104180733D01*
X135292527Y-104107508D01*
X135260404Y-104064595D01*
X135171560Y-103998089D01*
X135144267Y-103977658D01*
X135144264Y-103977657D01*
X135144263Y-103977656D01*
X135086765Y-103956210D01*
X135030832Y-103914338D01*
X135006416Y-103848873D01*
X135006100Y-103840029D01*
X135006100Y-103011066D01*
X135025785Y-102944027D01*
X135078589Y-102898272D01*
X135097073Y-102892825D01*
X135096850Y-102892104D01*
X135106047Y-102889261D01*
X135106050Y-102889261D01*
X135158109Y-102863811D01*
X135212339Y-102837300D01*
X135296000Y-102753639D01*
X135333955Y-102676000D01*
X135347961Y-102647350D01*
X135358000Y-102578446D01*
X135358000Y-102311154D01*
X135351621Y-102267373D01*
X135361435Y-102198200D01*
X135407091Y-102145311D01*
X135474093Y-102125500D01*
X136564500Y-102125500D01*
X136631539Y-102145185D01*
X136677294Y-102197989D01*
X136688500Y-102249499D01*
X136688500Y-102476380D01*
X136688501Y-102476387D01*
X136694960Y-102536473D01*
X136745655Y-102672390D01*
X136745656Y-102672393D01*
X136745658Y-102672396D01*
X136766964Y-102700858D01*
X136832595Y-102788533D01*
X136879905Y-102823948D01*
X136948733Y-102875471D01*
X137084658Y-102926169D01*
X137144745Y-102932629D01*
X138191254Y-102932628D01*
X138251342Y-102926169D01*
X138387267Y-102875471D01*
X138503404Y-102788533D01*
X138590342Y-102672396D01*
X138641040Y-102536471D01*
X138644961Y-102500000D01*
X138647499Y-102476400D01*
X138647499Y-102476393D01*
X138647500Y-102476384D01*
X138647500Y-102428129D01*
X139745001Y-102428129D01*
X139745001Y-102478115D01*
X139755494Y-102580826D01*
X139810641Y-102747248D01*
X139810643Y-102747253D01*
X139902684Y-102896474D01*
X140026654Y-103020444D01*
X140175875Y-103112485D01*
X140175880Y-103112487D01*
X140342302Y-103167634D01*
X140342309Y-103167635D01*
X140445019Y-103178128D01*
X140719999Y-103178128D01*
X140720000Y-103178127D01*
X140720000Y-102428129D01*
X141220000Y-102428129D01*
X141220000Y-103178128D01*
X141494972Y-103178128D01*
X141494986Y-103178127D01*
X141597697Y-103167634D01*
X141764119Y-103112487D01*
X141764124Y-103112485D01*
X141913345Y-103020444D01*
X142037315Y-102896474D01*
X142129356Y-102747253D01*
X142129358Y-102747248D01*
X142184505Y-102580826D01*
X142184506Y-102580819D01*
X142194999Y-102478115D01*
X142195000Y-102478102D01*
X142195000Y-102428129D01*
X141220000Y-102428129D01*
X140720000Y-102428129D01*
X139745001Y-102428129D01*
X138647500Y-102428129D01*
X138647499Y-101879875D01*
X138641040Y-101819787D01*
X138639538Y-101815760D01*
X138590344Y-101683867D01*
X138590343Y-101683866D01*
X138590342Y-101683862D01*
X138535152Y-101610136D01*
X138503404Y-101567724D01*
X138394177Y-101485960D01*
X138387267Y-101480787D01*
X138251342Y-101430089D01*
X138251338Y-101430088D01*
X138191262Y-101423629D01*
X137144748Y-101423629D01*
X137144742Y-101423630D01*
X137084659Y-101430088D01*
X137014433Y-101456282D01*
X136971099Y-101464100D01*
X135721201Y-101464100D01*
X135654162Y-101444415D01*
X135608407Y-101391611D01*
X135602603Y-101352886D01*
X135595512Y-101344800D01*
X135077015Y-101344800D01*
X135059137Y-101343504D01*
X135037147Y-101340300D01*
X135037146Y-101340300D01*
X133694854Y-101340300D01*
X133694853Y-101340300D01*
X133672863Y-101343504D01*
X133654985Y-101344800D01*
X133136490Y-101344800D01*
X133136488Y-101344801D01*
X133143942Y-101401427D01*
X133143944Y-101401433D01*
X133204399Y-101547385D01*
X133300576Y-101672725D01*
X133325485Y-101691838D01*
X133366689Y-101748266D01*
X133374000Y-101790215D01*
X133374000Y-101928446D01*
X133380242Y-101971287D01*
X133384039Y-101997351D01*
X133417277Y-102065340D01*
X133429035Y-102134213D01*
X133417277Y-102174260D01*
X133384039Y-102242248D01*
X133382333Y-102253960D01*
X133374000Y-102311154D01*
X133374000Y-102578446D01*
X133384039Y-102647350D01*
X133384039Y-102647351D01*
X133384040Y-102647353D01*
X133435999Y-102753639D01*
X133519660Y-102837300D01*
X133597738Y-102875469D01*
X133625950Y-102889261D01*
X133694854Y-102899300D01*
X134169900Y-102899300D01*
X134236939Y-102918985D01*
X134282694Y-102971789D01*
X134293900Y-103023300D01*
X134293900Y-103840029D01*
X134274215Y-103907068D01*
X134221411Y-103952823D01*
X134213235Y-103956210D01*
X134155736Y-103977656D01*
X134155730Y-103977660D01*
X134039595Y-104064595D01*
X133971350Y-104155763D01*
X133952658Y-104180733D01*
X133907550Y-104301671D01*
X133901959Y-104316662D01*
X133895500Y-104376728D01*
X133895500Y-104466029D01*
X133875815Y-104533068D01*
X133823011Y-104578823D01*
X133771500Y-104590029D01*
X133090999Y-104590029D01*
X133023960Y-104570344D01*
X132978205Y-104517540D01*
X132966999Y-104466029D01*
X132966999Y-104447877D01*
X132966999Y-104447874D01*
X132960540Y-104387787D01*
X132956422Y-104376746D01*
X132909844Y-104251867D01*
X132909843Y-104251866D01*
X132909842Y-104251862D01*
X132856596Y-104180733D01*
X132822904Y-104135724D01*
X132743307Y-104076140D01*
X132706767Y-104048787D01*
X132663109Y-104032503D01*
X132636765Y-104022677D01*
X132580832Y-103980805D01*
X132556416Y-103915341D01*
X132556100Y-103906496D01*
X132556100Y-98598863D01*
X132575785Y-98531824D01*
X132592419Y-98511182D01*
X132816382Y-98287219D01*
X132877705Y-98253734D01*
X132904063Y-98250900D01*
X133253973Y-98250900D01*
X133321012Y-98270585D01*
X133366767Y-98323389D01*
X133376710Y-98392546D01*
X133374000Y-98411154D01*
X133374000Y-98678446D01*
X133382604Y-98737506D01*
X133384039Y-98747351D01*
X133417277Y-98815340D01*
X133429035Y-98884213D01*
X133417277Y-98924260D01*
X133384039Y-98992248D01*
X133384039Y-98992250D01*
X133374000Y-99061154D01*
X133374000Y-99328446D01*
X133382283Y-99385300D01*
X133384039Y-99397351D01*
X133417277Y-99465340D01*
X133429035Y-99534213D01*
X133417277Y-99574260D01*
X133384039Y-99642248D01*
X133384039Y-99642250D01*
X133374000Y-99711154D01*
X133374000Y-99978446D01*
X133379849Y-100018589D01*
X133384039Y-100047351D01*
X133417277Y-100115340D01*
X133429035Y-100184213D01*
X133417277Y-100224260D01*
X133384039Y-100292248D01*
X133382333Y-100303960D01*
X133374000Y-100361154D01*
X133374000Y-100361159D01*
X133374000Y-100499383D01*
X133354315Y-100566422D01*
X133325488Y-100597758D01*
X133300577Y-100616872D01*
X133204399Y-100742213D01*
X133143944Y-100888168D01*
X133136487Y-100944800D01*
X133654985Y-100944800D01*
X133672863Y-100946096D01*
X133694853Y-100949300D01*
X133694854Y-100949300D01*
X135037147Y-100949300D01*
X135059137Y-100946096D01*
X135077015Y-100944800D01*
X135595510Y-100944800D01*
X135602816Y-100936468D01*
X135609028Y-100896647D01*
X135655410Y-100844392D01*
X135721200Y-100825500D01*
X136723340Y-100825500D01*
X136790379Y-100845185D01*
X136822608Y-100875191D01*
X136832595Y-100888533D01*
X136889545Y-100931164D01*
X136948733Y-100975471D01*
X137084658Y-101026169D01*
X137144745Y-101032629D01*
X138191254Y-101032628D01*
X138251342Y-101026169D01*
X138387267Y-100975471D01*
X138503404Y-100888533D01*
X138590342Y-100772396D01*
X138641040Y-100636471D01*
X138645202Y-100597758D01*
X138647499Y-100576400D01*
X138647499Y-100576393D01*
X138647500Y-100576384D01*
X138647499Y-99979875D01*
X138641040Y-99919787D01*
X138640077Y-99917205D01*
X138590344Y-99783867D01*
X138590343Y-99783866D01*
X138590342Y-99783862D01*
X138535914Y-99711154D01*
X138503404Y-99667724D01*
X138415157Y-99601665D01*
X138387267Y-99580787D01*
X138251342Y-99530089D01*
X138251338Y-99530088D01*
X138191262Y-99523629D01*
X137144748Y-99523629D01*
X137144742Y-99523630D01*
X137084655Y-99530089D01*
X136948738Y-99580784D01*
X136948730Y-99580789D01*
X136832595Y-99667724D01*
X136745660Y-99783859D01*
X136745658Y-99783862D01*
X136694960Y-99919787D01*
X136694959Y-99919791D01*
X136688500Y-99979857D01*
X136688500Y-100040100D01*
X136668815Y-100107139D01*
X136616011Y-100152894D01*
X136564500Y-100164100D01*
X135938793Y-100164100D01*
X135871754Y-100144415D01*
X135825999Y-100091611D01*
X135816055Y-100022453D01*
X135845080Y-99958897D01*
X135851112Y-99952419D01*
X136201867Y-99601665D01*
X136626913Y-99176619D01*
X136688236Y-99143134D01*
X136714594Y-99140300D01*
X140011658Y-99140300D01*
X140078697Y-99159985D01*
X140099339Y-99176619D01*
X140298404Y-99375684D01*
X140331889Y-99437007D01*
X140326905Y-99506699D01*
X140285033Y-99562632D01*
X140254066Y-99579543D01*
X140250740Y-99580783D01*
X140250730Y-99580789D01*
X140134595Y-99667724D01*
X140047660Y-99783859D01*
X140047658Y-99783862D01*
X139996960Y-99919787D01*
X139996959Y-99919791D01*
X139990500Y-99979857D01*
X139990500Y-100576380D01*
X139990501Y-100576386D01*
X139996960Y-100636473D01*
X140047655Y-100772390D01*
X140047656Y-100772393D01*
X140047658Y-100772396D01*
X140071047Y-100803640D01*
X140134595Y-100888533D01*
X140191545Y-100931164D01*
X140250733Y-100975471D01*
X140266409Y-100981318D01*
X140266412Y-100981319D01*
X140322345Y-101023191D01*
X140346761Y-101088655D01*
X140331909Y-101156928D01*
X140282503Y-101206333D01*
X140262082Y-101215206D01*
X140175878Y-101243771D01*
X140175875Y-101243772D01*
X140026654Y-101335813D01*
X139902684Y-101459783D01*
X139810643Y-101609004D01*
X139810641Y-101609009D01*
X139755494Y-101775431D01*
X139755493Y-101775438D01*
X139745000Y-101878142D01*
X139745000Y-101928129D01*
X142194999Y-101928129D01*
X142194999Y-101878157D01*
X142194998Y-101878142D01*
X142184505Y-101775431D01*
X142129358Y-101609009D01*
X142129356Y-101609004D01*
X142037315Y-101459783D01*
X141913345Y-101335813D01*
X141764124Y-101243772D01*
X141764119Y-101243770D01*
X141677917Y-101215206D01*
X141620472Y-101175433D01*
X141593649Y-101110918D01*
X141605964Y-101042142D01*
X141653507Y-100990942D01*
X141673582Y-100981320D01*
X141689267Y-100975471D01*
X141805404Y-100888533D01*
X141892342Y-100772396D01*
X141943040Y-100636471D01*
X141947202Y-100597758D01*
X141949499Y-100576400D01*
X141949499Y-100576393D01*
X141949500Y-100576384D01*
X141949499Y-99979875D01*
X141943040Y-99919787D01*
X141942077Y-99917205D01*
X141892344Y-99783867D01*
X141892343Y-99783866D01*
X141892342Y-99783862D01*
X141837914Y-99711154D01*
X141805404Y-99667724D01*
X141717157Y-99601665D01*
X141689267Y-99580787D01*
X141553342Y-99530089D01*
X141553338Y-99530088D01*
X141493271Y-99523629D01*
X141493255Y-99523629D01*
X141392518Y-99523629D01*
X141325479Y-99503944D01*
X141279724Y-99451140D01*
X141276726Y-99442801D01*
X141274340Y-99437685D01*
X141274340Y-99437683D01*
X141250716Y-99403946D01*
X141247828Y-99399412D01*
X141227239Y-99363751D01*
X141195692Y-99337279D01*
X141191720Y-99333640D01*
X140905261Y-99047181D01*
X140871776Y-98985858D01*
X140876760Y-98916166D01*
X140918632Y-98860233D01*
X140984096Y-98835816D01*
X140992942Y-98835500D01*
X143016458Y-98835500D01*
X143083497Y-98855185D01*
X143104139Y-98871819D01*
X143142981Y-98910661D01*
X143176466Y-98971984D01*
X143179300Y-98998342D01*
X143179300Y-106775478D01*
X143179064Y-106780884D01*
X143175475Y-106821896D01*
X143186129Y-106861657D01*
X143187300Y-106866939D01*
X143194449Y-106907481D01*
X143196033Y-106911833D01*
X143203702Y-106930347D01*
X143205658Y-106934541D01*
X143205659Y-106934543D01*
X143205660Y-106934545D01*
X143229279Y-106968277D01*
X143232176Y-106972825D01*
X143252761Y-107008478D01*
X143284306Y-107034948D01*
X143288289Y-107038598D01*
X146599361Y-110349670D01*
X146632846Y-110410993D01*
X146627865Y-110480675D01*
X146625962Y-110485775D01*
X146625959Y-110485790D01*
X146619500Y-110545857D01*
X146619500Y-111167380D01*
X146619501Y-111167386D01*
X146625960Y-111227473D01*
X146676655Y-111363390D01*
X146676656Y-111363393D01*
X146676658Y-111363396D01*
X146702707Y-111398194D01*
X146763595Y-111479533D01*
X146812936Y-111516468D01*
X146879733Y-111566471D01*
X147015658Y-111617169D01*
X147075745Y-111623629D01*
X148072254Y-111623628D01*
X148132342Y-111617169D01*
X148268267Y-111566471D01*
X148384404Y-111479533D01*
X148471342Y-111363396D01*
X148522040Y-111227471D01*
X148527416Y-111177471D01*
X148528499Y-111167400D01*
X148528499Y-111167393D01*
X148528500Y-111167384D01*
X148528499Y-110545875D01*
X148522040Y-110485787D01*
X148517230Y-110472892D01*
X148471344Y-110349867D01*
X148471343Y-110349866D01*
X148471342Y-110349862D01*
X148422216Y-110284237D01*
X148384404Y-110233724D01*
X148295429Y-110167120D01*
X148268267Y-110146787D01*
X148132342Y-110096089D01*
X148132338Y-110096088D01*
X148072271Y-110089629D01*
X148072255Y-110089629D01*
X147326042Y-110089629D01*
X147259003Y-110069944D01*
X147238361Y-110053310D01*
X146187432Y-109002381D01*
X146153947Y-108941058D01*
X146158931Y-108871366D01*
X146200803Y-108815433D01*
X146266267Y-108791016D01*
X146275113Y-108790700D01*
X146646501Y-108790700D01*
X146713540Y-108810385D01*
X146759295Y-108863189D01*
X146770501Y-108914700D01*
X146770501Y-108958257D01*
X146776960Y-109018344D01*
X146827655Y-109154261D01*
X146827656Y-109154264D01*
X146827658Y-109154267D01*
X146845883Y-109178613D01*
X146914595Y-109270404D01*
X146972443Y-109313707D01*
X147030733Y-109357342D01*
X147166658Y-109408040D01*
X147226745Y-109414500D01*
X147848254Y-109414499D01*
X147908342Y-109408040D01*
X148044267Y-109357342D01*
X148160404Y-109270404D01*
X148247342Y-109154267D01*
X148298040Y-109018342D01*
X148301820Y-108983180D01*
X148304499Y-108958271D01*
X148304499Y-108958264D01*
X148304500Y-108958255D01*
X148304499Y-107961746D01*
X148298040Y-107901658D01*
X148267892Y-107820828D01*
X148247344Y-107765738D01*
X148247343Y-107765737D01*
X148247342Y-107765733D01*
X148203707Y-107707443D01*
X148160404Y-107649595D01*
X148083126Y-107591747D01*
X148044267Y-107562658D01*
X147974731Y-107536722D01*
X147948865Y-107527074D01*
X147892932Y-107485202D01*
X147868516Y-107419738D01*
X147868200Y-107410893D01*
X147868200Y-106530841D01*
X147887885Y-106463802D01*
X147904515Y-106443164D01*
X148747577Y-105600101D01*
X148808898Y-105566618D01*
X148851441Y-105564845D01*
X148910000Y-105572555D01*
X149065953Y-105552023D01*
X149211278Y-105491828D01*
X149336071Y-105396071D01*
X149431828Y-105271278D01*
X149492023Y-105125953D01*
X149512555Y-104970000D01*
X149492023Y-104814047D01*
X149431828Y-104668723D01*
X149393742Y-104619088D01*
X149336072Y-104543930D01*
X149326239Y-104536385D01*
X149211278Y-104448172D01*
X149211277Y-104448171D01*
X149211275Y-104448170D01*
X149065956Y-104387978D01*
X149065954Y-104387977D01*
X149065953Y-104387977D01*
X148980510Y-104376728D01*
X148910001Y-104367445D01*
X148909999Y-104367445D01*
X148754047Y-104387977D01*
X148754043Y-104387978D01*
X148608723Y-104448171D01*
X148483929Y-104543929D01*
X148388171Y-104668723D01*
X148327978Y-104814043D01*
X148327977Y-104814047D01*
X148307445Y-104969999D01*
X148307445Y-104970000D01*
X148315154Y-105028555D01*
X148304389Y-105097591D01*
X148279896Y-105132422D01*
X147315793Y-106096525D01*
X147311805Y-106100180D01*
X147280264Y-106126648D01*
X147280258Y-106126654D01*
X147259677Y-106162300D01*
X147256772Y-106166861D01*
X147233159Y-106200584D01*
X147231206Y-106204771D01*
X147223525Y-106223318D01*
X147221947Y-106227653D01*
X147214800Y-106268189D01*
X147213629Y-106273472D01*
X147202975Y-106313232D01*
X147206564Y-106354242D01*
X147206800Y-106359649D01*
X147206800Y-107410893D01*
X147187115Y-107477932D01*
X147134311Y-107523687D01*
X147126135Y-107527074D01*
X147056844Y-107552919D01*
X147030733Y-107562658D01*
X147030730Y-107562659D01*
X147030730Y-107562660D01*
X146914595Y-107649595D01*
X146827660Y-107765730D01*
X146827658Y-107765733D01*
X146776960Y-107901658D01*
X146776959Y-107901662D01*
X146770500Y-107961728D01*
X146770500Y-108005300D01*
X146750815Y-108072339D01*
X146698011Y-108118094D01*
X146646500Y-108129300D01*
X145796765Y-108129300D01*
X145729726Y-108109615D01*
X145709084Y-108092981D01*
X144181819Y-106565716D01*
X144148334Y-106504393D01*
X144145500Y-106478035D01*
X144145500Y-103842530D01*
X145830746Y-103842530D01*
X145840745Y-104052456D01*
X145890296Y-104256707D01*
X145890298Y-104256711D01*
X145977598Y-104447872D01*
X145977601Y-104447877D01*
X145977602Y-104447879D01*
X145977604Y-104447882D01*
X146098325Y-104617411D01*
X146099515Y-104619082D01*
X146099520Y-104619088D01*
X146251620Y-104764114D01*
X146370969Y-104840815D01*
X146428428Y-104877742D01*
X146623543Y-104955854D01*
X146726729Y-104975741D01*
X146829914Y-104995629D01*
X146829915Y-104995629D01*
X146987419Y-104995629D01*
X146987425Y-104995629D01*
X147144218Y-104980657D01*
X147345875Y-104921445D01*
X147532682Y-104825140D01*
X147540967Y-104818625D01*
X147643291Y-104738155D01*
X147697886Y-104695221D01*
X147835519Y-104536385D01*
X147858803Y-104496057D01*
X147940601Y-104354378D01*
X147940600Y-104354378D01*
X147940604Y-104354373D01*
X148009344Y-104155762D01*
X148039254Y-103947731D01*
X148029254Y-103737799D01*
X147979704Y-103533553D01*
X147971701Y-103516029D01*
X147892401Y-103342385D01*
X147892398Y-103342380D01*
X147892397Y-103342379D01*
X147892396Y-103342376D01*
X147770486Y-103171177D01*
X147770484Y-103171175D01*
X147770479Y-103171169D01*
X147618379Y-103026143D01*
X147441574Y-102912517D01*
X147424968Y-102905869D01*
X147332404Y-102868812D01*
X147246455Y-102834403D01*
X147040086Y-102794629D01*
X147040085Y-102794629D01*
X146882575Y-102794629D01*
X146725782Y-102809601D01*
X146725778Y-102809602D01*
X146524127Y-102868812D01*
X146337313Y-102965120D01*
X146172116Y-103095034D01*
X146172112Y-103095038D01*
X146034478Y-103253875D01*
X145929398Y-103435879D01*
X145860656Y-103634494D01*
X145860656Y-103634496D01*
X145831106Y-103840029D01*
X145830746Y-103842530D01*
X144145500Y-103842530D01*
X144145500Y-101973628D01*
X144165185Y-101906589D01*
X144217989Y-101860834D01*
X144269495Y-101849628D01*
X147060066Y-101849628D01*
X147134301Y-101834863D01*
X147218484Y-101778613D01*
X147274734Y-101694430D01*
X147289500Y-101620196D01*
X147289499Y-98770063D01*
X147274734Y-98695828D01*
X147247365Y-98654868D01*
X147218484Y-98611644D01*
X147150091Y-98565946D01*
X147134301Y-98555395D01*
X147134299Y-98555394D01*
X147134296Y-98555393D01*
X147060069Y-98540629D01*
X144209936Y-98540629D01*
X144135698Y-98555395D01*
X144051516Y-98611644D01*
X144017113Y-98663132D01*
X143963500Y-98707936D01*
X143894175Y-98716643D01*
X143831148Y-98686488D01*
X143812438Y-98665366D01*
X143790725Y-98634359D01*
X143787817Y-98629793D01*
X143767240Y-98594153D01*
X143767239Y-98594151D01*
X143735693Y-98567680D01*
X143731709Y-98564029D01*
X143605361Y-98437681D01*
X143571876Y-98376358D01*
X143576860Y-98306666D01*
X143605361Y-98262319D01*
X144488032Y-97379648D01*
X144549355Y-97346163D01*
X144575713Y-97343329D01*
X146558893Y-97343329D01*
X146625932Y-97363014D01*
X146671687Y-97415818D01*
X146675074Y-97423994D01*
X146710658Y-97519396D01*
X146732657Y-97548784D01*
X146797595Y-97635533D01*
X146837959Y-97665748D01*
X146913733Y-97722471D01*
X147049658Y-97773169D01*
X147109745Y-97779629D01*
X148106254Y-97779628D01*
X148166342Y-97773169D01*
X148302267Y-97722471D01*
X148418404Y-97635533D01*
X148505342Y-97519396D01*
X148556040Y-97383471D01*
X148558800Y-97357793D01*
X148559839Y-97348129D01*
X149651001Y-97348129D01*
X149651001Y-97398115D01*
X149661494Y-97500826D01*
X149716641Y-97667248D01*
X149716643Y-97667253D01*
X149808684Y-97816474D01*
X149932654Y-97940444D01*
X150081875Y-98032485D01*
X150081880Y-98032487D01*
X150248302Y-98087634D01*
X150248309Y-98087635D01*
X150351019Y-98098128D01*
X150625999Y-98098128D01*
X150626000Y-98098127D01*
X150626000Y-97348129D01*
X149651001Y-97348129D01*
X148559839Y-97348129D01*
X148562499Y-97323400D01*
X148562499Y-97323393D01*
X148562500Y-97323384D01*
X148562499Y-96701875D01*
X148556040Y-96641787D01*
X148540224Y-96599383D01*
X148505344Y-96505867D01*
X148505343Y-96505866D01*
X148505342Y-96505862D01*
X148455736Y-96439595D01*
X148418404Y-96389724D01*
X148305136Y-96304935D01*
X148302267Y-96302787D01*
X148166342Y-96252089D01*
X148166338Y-96252088D01*
X148106262Y-96245629D01*
X147109748Y-96245629D01*
X147109742Y-96245630D01*
X147049655Y-96252089D01*
X146913738Y-96302784D01*
X146913730Y-96302789D01*
X146797595Y-96389724D01*
X146710660Y-96505859D01*
X146710658Y-96505862D01*
X146675073Y-96601266D01*
X146633204Y-96657196D01*
X146567740Y-96681613D01*
X146558894Y-96681929D01*
X144404520Y-96681929D01*
X144399119Y-96681693D01*
X144388994Y-96680807D01*
X144358103Y-96678104D01*
X144318343Y-96688758D01*
X144313060Y-96689929D01*
X144272524Y-96697076D01*
X144268189Y-96698654D01*
X144249642Y-96706335D01*
X144245455Y-96708288D01*
X144211732Y-96731901D01*
X144207171Y-96734806D01*
X144171525Y-96755387D01*
X144171519Y-96755393D01*
X144145051Y-96786934D01*
X144141396Y-96790922D01*
X143608920Y-97323400D01*
X143099339Y-97832981D01*
X143038016Y-97866466D01*
X143011658Y-97869300D01*
X141925871Y-97869300D01*
X141858832Y-97849615D01*
X141813077Y-97796811D01*
X141803133Y-97727653D01*
X141830471Y-97667790D01*
X141830089Y-97667505D01*
X141831403Y-97665748D01*
X141832158Y-97664097D01*
X141834616Y-97661456D01*
X141835402Y-97660404D01*
X141835404Y-97660404D01*
X141922342Y-97544267D01*
X141973040Y-97408342D01*
X141976431Y-97376801D01*
X141979499Y-97348271D01*
X141979499Y-97348264D01*
X141979500Y-97348255D01*
X141979499Y-96751746D01*
X141973040Y-96691658D01*
X141922342Y-96555733D01*
X141851542Y-96461154D01*
X141835404Y-96439595D01*
X141750088Y-96375730D01*
X141719267Y-96352658D01*
X141719264Y-96352657D01*
X141719263Y-96352656D01*
X141703584Y-96346808D01*
X141647652Y-96304935D01*
X141623238Y-96239470D01*
X141638092Y-96171197D01*
X141687499Y-96121794D01*
X141707919Y-96112922D01*
X141794117Y-96084359D01*
X141794124Y-96084356D01*
X141943345Y-95992315D01*
X142067315Y-95868345D01*
X142159356Y-95719124D01*
X142159358Y-95719119D01*
X142214505Y-95552697D01*
X142214506Y-95552690D01*
X142220055Y-95498380D01*
X146653500Y-95498380D01*
X146653501Y-95498386D01*
X146659960Y-95558473D01*
X146710655Y-95694390D01*
X146710656Y-95694393D01*
X146710658Y-95694396D01*
X146729165Y-95719119D01*
X146797595Y-95810533D01*
X146850453Y-95850101D01*
X146913733Y-95897471D01*
X147049658Y-95948169D01*
X147109745Y-95954629D01*
X148106254Y-95954628D01*
X148166342Y-95948169D01*
X148302267Y-95897471D01*
X148418404Y-95810533D01*
X148505342Y-95694396D01*
X148540926Y-95598991D01*
X148582796Y-95543062D01*
X148648260Y-95518645D01*
X148657106Y-95518329D01*
X149802639Y-95518329D01*
X149869678Y-95538014D01*
X149915433Y-95590818D01*
X149918820Y-95598994D01*
X149922737Y-95609495D01*
X149953658Y-95692396D01*
X149955157Y-95694398D01*
X150040595Y-95808533D01*
X150088313Y-95844253D01*
X150156733Y-95895471D01*
X150156736Y-95895472D01*
X150172412Y-95901319D01*
X150228345Y-95943191D01*
X150252761Y-96008655D01*
X150237909Y-96076928D01*
X150188503Y-96126333D01*
X150168082Y-96135206D01*
X150081878Y-96163771D01*
X150081875Y-96163772D01*
X149932654Y-96255813D01*
X149808684Y-96379783D01*
X149716643Y-96529004D01*
X149716641Y-96529009D01*
X149661494Y-96695431D01*
X149661493Y-96695438D01*
X149651000Y-96798142D01*
X149651000Y-96848129D01*
X151002000Y-96848129D01*
X151069039Y-96867814D01*
X151114794Y-96920618D01*
X151126000Y-96972129D01*
X151126000Y-98098128D01*
X151400972Y-98098128D01*
X151400986Y-98098127D01*
X151503697Y-98087634D01*
X151670119Y-98032487D01*
X151670126Y-98032484D01*
X151724895Y-97998702D01*
X151792288Y-97980261D01*
X151858951Y-98001183D01*
X151903721Y-98054825D01*
X151912383Y-98124155D01*
X151891570Y-98175360D01*
X151875659Y-98198083D01*
X151873706Y-98202271D01*
X151866025Y-98220818D01*
X151864447Y-98225153D01*
X151857300Y-98265689D01*
X151856129Y-98270972D01*
X151845475Y-98310732D01*
X151846583Y-98323389D01*
X151848911Y-98350000D01*
X151849064Y-98351742D01*
X151849300Y-98357149D01*
X151849300Y-103520386D01*
X151829615Y-103587425D01*
X151812981Y-103608067D01*
X151063822Y-104357225D01*
X151002499Y-104390710D01*
X150959955Y-104392483D01*
X150901401Y-104384774D01*
X150901399Y-104384774D01*
X150745447Y-104405306D01*
X150745443Y-104405307D01*
X150600123Y-104465500D01*
X150475329Y-104561258D01*
X150379571Y-104686052D01*
X150319378Y-104831372D01*
X150319377Y-104831376D01*
X150299724Y-104980656D01*
X150298845Y-104987329D01*
X150317095Y-105125952D01*
X150319377Y-105143281D01*
X150319378Y-105143285D01*
X150379570Y-105288604D01*
X150379571Y-105288606D01*
X150379572Y-105288607D01*
X150475329Y-105413400D01*
X150496785Y-105429863D01*
X150537988Y-105486289D01*
X150545300Y-105528240D01*
X150545300Y-106798978D01*
X150545064Y-106804381D01*
X150544933Y-106805880D01*
X150541475Y-106845396D01*
X150552129Y-106885157D01*
X150553300Y-106890439D01*
X150560449Y-106930981D01*
X150562033Y-106935333D01*
X150569702Y-106953847D01*
X150571658Y-106958041D01*
X150571659Y-106958043D01*
X150571660Y-106958045D01*
X150595279Y-106991777D01*
X150598176Y-106996325D01*
X150618761Y-107031978D01*
X150650306Y-107058448D01*
X150654289Y-107062098D01*
X151409040Y-107816849D01*
X151412679Y-107820821D01*
X151415120Y-107823729D01*
X151438073Y-107851084D01*
X151439151Y-107852368D01*
X151474812Y-107872957D01*
X151479346Y-107875845D01*
X151513083Y-107899469D01*
X151513085Y-107899469D01*
X151517312Y-107901441D01*
X151535768Y-107909086D01*
X151540147Y-107910679D01*
X151540149Y-107910680D01*
X151578030Y-107917358D01*
X151640633Y-107948383D01*
X151676525Y-108008328D01*
X151680501Y-108039475D01*
X151680501Y-109020195D01*
X151692689Y-109081471D01*
X151695266Y-109094430D01*
X151751515Y-109178613D01*
X151783519Y-109199997D01*
X151835699Y-109234863D01*
X151835702Y-109234863D01*
X151835703Y-109234864D01*
X151860666Y-109239829D01*
X151909933Y-109249629D01*
X154160066Y-109249628D01*
X154234301Y-109234863D01*
X154318484Y-109178613D01*
X154374734Y-109094430D01*
X154389500Y-109020196D01*
X154389499Y-106170063D01*
X154374734Y-106095828D01*
X154324869Y-106021200D01*
X154318484Y-106011644D01*
X154252140Y-105967315D01*
X154234301Y-105955395D01*
X154234299Y-105955394D01*
X154234296Y-105955393D01*
X154160069Y-105940629D01*
X151909936Y-105940629D01*
X151835698Y-105955395D01*
X151751515Y-106011644D01*
X151695266Y-106095828D01*
X151695264Y-106095832D01*
X151680500Y-106170057D01*
X151680500Y-106853587D01*
X151660815Y-106920626D01*
X151608011Y-106966381D01*
X151538853Y-106976325D01*
X151475297Y-106947300D01*
X151468819Y-106941268D01*
X151243019Y-106715468D01*
X151209534Y-106654145D01*
X151206700Y-106627787D01*
X151206700Y-105567220D01*
X151226385Y-105500181D01*
X151255214Y-105468844D01*
X151257500Y-105467090D01*
X151327471Y-105413400D01*
X151423228Y-105288607D01*
X151483423Y-105143282D01*
X151503955Y-104987329D01*
X151496245Y-104928771D01*
X151507010Y-104859736D01*
X151531500Y-104824907D01*
X152401719Y-103954688D01*
X152405691Y-103951048D01*
X152434400Y-103926960D01*
X152437237Y-103924580D01*
X152437237Y-103924579D01*
X152437239Y-103924578D01*
X152457823Y-103888923D01*
X152460715Y-103884383D01*
X152484340Y-103850646D01*
X152484341Y-103850640D01*
X152486314Y-103846410D01*
X152487921Y-103842530D01*
X152830746Y-103842530D01*
X152840745Y-104052456D01*
X152890296Y-104256707D01*
X152890298Y-104256711D01*
X152977598Y-104447872D01*
X152977601Y-104447877D01*
X152977602Y-104447879D01*
X152977604Y-104447882D01*
X153098325Y-104617411D01*
X153099515Y-104619082D01*
X153099520Y-104619088D01*
X153251620Y-104764114D01*
X153370969Y-104840815D01*
X153428428Y-104877742D01*
X153623543Y-104955854D01*
X153726729Y-104975741D01*
X153829914Y-104995629D01*
X153829915Y-104995629D01*
X153987419Y-104995629D01*
X153987425Y-104995629D01*
X154144218Y-104980657D01*
X154345875Y-104921445D01*
X154532682Y-104825140D01*
X154540967Y-104818625D01*
X154643291Y-104738155D01*
X154697886Y-104695221D01*
X154835519Y-104536385D01*
X154858803Y-104496057D01*
X154940601Y-104354378D01*
X154940600Y-104354378D01*
X154940604Y-104354373D01*
X155009344Y-104155762D01*
X155039254Y-103947731D01*
X155029254Y-103737799D01*
X154979704Y-103533553D01*
X154971701Y-103516029D01*
X154892401Y-103342385D01*
X154892398Y-103342380D01*
X154892397Y-103342379D01*
X154892396Y-103342376D01*
X154770486Y-103171177D01*
X154770484Y-103171175D01*
X154770479Y-103171169D01*
X154618379Y-103026143D01*
X154441574Y-102912517D01*
X154424968Y-102905869D01*
X154332404Y-102868812D01*
X154246455Y-102834403D01*
X154040086Y-102794629D01*
X154040085Y-102794629D01*
X153882575Y-102794629D01*
X153725782Y-102809601D01*
X153725778Y-102809602D01*
X153524127Y-102868812D01*
X153337313Y-102965120D01*
X153172116Y-103095034D01*
X153172112Y-103095038D01*
X153034478Y-103253875D01*
X152929398Y-103435879D01*
X152860656Y-103634494D01*
X152860656Y-103634496D01*
X152831106Y-103840029D01*
X152830746Y-103842530D01*
X152487921Y-103842530D01*
X152493950Y-103827977D01*
X152495546Y-103823587D01*
X152495551Y-103823580D01*
X152502703Y-103783009D01*
X152503865Y-103777767D01*
X152514523Y-103737996D01*
X152510935Y-103696993D01*
X152510700Y-103691590D01*
X152510700Y-100445129D01*
X153435000Y-100445129D01*
X153435000Y-101642973D01*
X153441401Y-101702501D01*
X153441403Y-101702508D01*
X153491645Y-101837215D01*
X153491649Y-101837222D01*
X153577809Y-101952316D01*
X153577812Y-101952319D01*
X153692906Y-102038479D01*
X153692913Y-102038483D01*
X153827620Y-102088725D01*
X153827627Y-102088727D01*
X153887155Y-102095128D01*
X153887172Y-102095129D01*
X154785000Y-102095129D01*
X154785000Y-100445129D01*
X155285000Y-100445129D01*
X155285000Y-102095129D01*
X156182828Y-102095129D01*
X156182844Y-102095128D01*
X156242372Y-102088727D01*
X156242379Y-102088725D01*
X156377086Y-102038483D01*
X156377093Y-102038479D01*
X156492187Y-101952319D01*
X156492190Y-101952316D01*
X156578350Y-101837222D01*
X156578354Y-101837215D01*
X156628596Y-101702508D01*
X156628598Y-101702501D01*
X156634999Y-101642973D01*
X156635000Y-101642956D01*
X156635000Y-100445129D01*
X155285000Y-100445129D01*
X154785000Y-100445129D01*
X153435000Y-100445129D01*
X152510700Y-100445129D01*
X152510700Y-99945129D01*
X153435000Y-99945129D01*
X154785000Y-99945129D01*
X154785000Y-98295129D01*
X155285000Y-98295129D01*
X155285000Y-99945129D01*
X156635000Y-99945129D01*
X156635000Y-98747301D01*
X156634999Y-98747284D01*
X156628598Y-98687756D01*
X156628596Y-98687749D01*
X156578354Y-98553042D01*
X156578350Y-98553035D01*
X156492190Y-98437941D01*
X156492187Y-98437938D01*
X156377093Y-98351778D01*
X156377086Y-98351774D01*
X156242379Y-98301532D01*
X156242372Y-98301530D01*
X156182844Y-98295129D01*
X155285000Y-98295129D01*
X154785000Y-98295129D01*
X153887155Y-98295129D01*
X153827627Y-98301530D01*
X153827620Y-98301532D01*
X153692913Y-98351774D01*
X153692906Y-98351778D01*
X153577812Y-98437938D01*
X153577809Y-98437941D01*
X153491649Y-98553035D01*
X153491645Y-98553042D01*
X153441403Y-98687749D01*
X153441401Y-98687756D01*
X153435000Y-98747284D01*
X153435000Y-99945129D01*
X152510700Y-99945129D01*
X152510700Y-98528341D01*
X152530385Y-98461302D01*
X152547015Y-98440664D01*
X152926861Y-98060817D01*
X152988184Y-98027333D01*
X153014542Y-98024499D01*
X153318251Y-98024499D01*
X153318254Y-98024499D01*
X153378342Y-98018040D01*
X153514267Y-97967342D01*
X153630404Y-97880404D01*
X153717342Y-97764267D01*
X153768040Y-97628342D01*
X153772651Y-97585457D01*
X153774499Y-97568271D01*
X153774499Y-97568264D01*
X153774500Y-97568255D01*
X153774499Y-96779040D01*
X153794183Y-96712002D01*
X153846987Y-96666247D01*
X153916146Y-96656303D01*
X153979702Y-96685328D01*
X153986180Y-96691360D01*
X154029181Y-96734361D01*
X154062666Y-96795684D01*
X154065500Y-96822042D01*
X154065500Y-97568251D01*
X154065501Y-97568257D01*
X154071960Y-97628344D01*
X154122655Y-97764261D01*
X154122656Y-97764264D01*
X154122658Y-97764267D01*
X154134157Y-97779628D01*
X154209595Y-97880404D01*
X154235772Y-97899999D01*
X154325733Y-97967342D01*
X154461658Y-98018040D01*
X154521745Y-98024500D01*
X155143254Y-98024499D01*
X155203342Y-98018040D01*
X155339267Y-97967342D01*
X155455404Y-97880404D01*
X155542342Y-97764267D01*
X155593040Y-97628342D01*
X155597651Y-97585457D01*
X155599499Y-97568271D01*
X155599499Y-97568264D01*
X155599500Y-97568255D01*
X155599499Y-96571746D01*
X155593040Y-96511658D01*
X155547561Y-96389725D01*
X155542344Y-96375738D01*
X155542343Y-96375737D01*
X155542342Y-96375733D01*
X155489344Y-96304935D01*
X155455404Y-96259595D01*
X155378126Y-96201747D01*
X155339267Y-96172658D01*
X155203342Y-96121960D01*
X155203338Y-96121959D01*
X155143263Y-96115500D01*
X154521748Y-96115500D01*
X154521742Y-96115501D01*
X154461653Y-96121960D01*
X154456546Y-96123865D01*
X154386854Y-96128844D01*
X154325541Y-96095361D01*
X153206598Y-94976418D01*
X153202948Y-94972435D01*
X153176478Y-94940890D01*
X153140825Y-94920305D01*
X153136277Y-94917408D01*
X153102545Y-94893789D01*
X153102543Y-94893788D01*
X153102541Y-94893787D01*
X153098347Y-94891831D01*
X153079833Y-94884162D01*
X153075481Y-94882578D01*
X153034939Y-94875429D01*
X153029657Y-94874258D01*
X152989895Y-94863604D01*
X152957727Y-94866419D01*
X152948880Y-94867193D01*
X152943480Y-94867429D01*
X151945444Y-94867429D01*
X151878405Y-94847744D01*
X151832650Y-94794940D01*
X151829270Y-94786783D01*
X151798342Y-94703862D01*
X151754707Y-94645572D01*
X151711404Y-94587724D01*
X151634126Y-94529876D01*
X151595267Y-94500787D01*
X151459342Y-94450089D01*
X151459338Y-94450088D01*
X151399262Y-94443629D01*
X150352748Y-94443629D01*
X150352742Y-94443630D01*
X150292655Y-94450089D01*
X150156738Y-94500784D01*
X150156730Y-94500789D01*
X150040595Y-94587724D01*
X149953660Y-94703859D01*
X149953655Y-94703867D01*
X149926653Y-94776263D01*
X149884782Y-94832197D01*
X149819317Y-94856613D01*
X149810472Y-94856929D01*
X148657107Y-94856929D01*
X148590068Y-94837244D01*
X148544313Y-94784440D01*
X148540926Y-94776264D01*
X148530123Y-94747302D01*
X148505342Y-94680862D01*
X148461707Y-94622572D01*
X148418404Y-94564724D01*
X148332988Y-94500784D01*
X148302267Y-94477787D01*
X148166342Y-94427089D01*
X148166338Y-94427088D01*
X148106262Y-94420629D01*
X147109748Y-94420629D01*
X147109742Y-94420630D01*
X147049655Y-94427089D01*
X146913738Y-94477784D01*
X146913730Y-94477789D01*
X146797595Y-94564724D01*
X146710660Y-94680859D01*
X146710658Y-94680862D01*
X146672025Y-94784440D01*
X146659959Y-94816791D01*
X146653500Y-94876857D01*
X146653500Y-95498380D01*
X142220055Y-95498380D01*
X142224999Y-95449986D01*
X142225000Y-95449973D01*
X142225000Y-95400000D01*
X139775001Y-95400000D01*
X139775001Y-95449986D01*
X139785494Y-95552697D01*
X139840641Y-95719119D01*
X139840643Y-95719124D01*
X139932684Y-95868345D01*
X140056654Y-95992315D01*
X140205875Y-96084356D01*
X140205882Y-96084359D01*
X140292081Y-96112922D01*
X140349526Y-96152694D01*
X140376350Y-96217210D01*
X140364035Y-96285985D01*
X140316493Y-96337186D01*
X140296416Y-96346808D01*
X140280736Y-96352656D01*
X140280730Y-96352660D01*
X140164595Y-96439595D01*
X140078492Y-96554619D01*
X140077658Y-96555733D01*
X140056209Y-96613236D01*
X140014340Y-96669167D01*
X139948876Y-96693584D01*
X139940030Y-96693900D01*
X138759970Y-96693900D01*
X138692931Y-96674215D01*
X138647176Y-96621411D01*
X138643798Y-96613258D01*
X138622342Y-96555733D01*
X138551542Y-96461154D01*
X138535404Y-96439595D01*
X138450088Y-96375730D01*
X138419267Y-96352658D01*
X138419264Y-96352657D01*
X138419263Y-96352656D01*
X138403584Y-96346808D01*
X138347652Y-96304935D01*
X138323238Y-96239470D01*
X138338092Y-96171197D01*
X138387499Y-96121794D01*
X138407919Y-96112922D01*
X138494117Y-96084359D01*
X138494124Y-96084356D01*
X138643345Y-95992315D01*
X138767315Y-95868345D01*
X138859356Y-95719124D01*
X138859358Y-95719119D01*
X138914505Y-95552697D01*
X138914506Y-95552690D01*
X138924999Y-95449986D01*
X138925000Y-95449973D01*
X138925000Y-95400000D01*
X136475001Y-95400000D01*
X136475001Y-95449986D01*
X136485494Y-95552697D01*
X136540641Y-95719119D01*
X136540643Y-95719124D01*
X136632684Y-95868345D01*
X136756654Y-95992315D01*
X136905875Y-96084356D01*
X136905882Y-96084359D01*
X136992081Y-96112922D01*
X137049526Y-96152694D01*
X137076350Y-96217210D01*
X137064035Y-96285985D01*
X137016493Y-96337186D01*
X136996416Y-96346808D01*
X136980736Y-96352656D01*
X136980730Y-96352660D01*
X136864595Y-96439595D01*
X136778492Y-96554619D01*
X136777658Y-96555733D01*
X136726960Y-96691658D01*
X136726959Y-96691662D01*
X136720500Y-96751728D01*
X136720500Y-96751742D01*
X136720500Y-96751745D01*
X136720500Y-97049300D01*
X136720501Y-97338900D01*
X136700817Y-97405939D01*
X136648013Y-97451694D01*
X136596501Y-97462900D01*
X135667569Y-97462900D01*
X135605928Y-97444800D01*
X135077015Y-97444800D01*
X135059137Y-97443504D01*
X135037147Y-97440300D01*
X135037146Y-97440300D01*
X133694854Y-97440300D01*
X133694853Y-97440300D01*
X133672863Y-97443504D01*
X133654985Y-97444800D01*
X133136490Y-97444800D01*
X133120298Y-97463262D01*
X133119630Y-97467550D01*
X133073250Y-97519806D01*
X133007457Y-97538700D01*
X132754995Y-97538700D01*
X132729548Y-97536061D01*
X132727296Y-97535588D01*
X132720117Y-97534083D01*
X132686909Y-97538223D01*
X132679233Y-97538700D01*
X132675692Y-97538700D01*
X132659307Y-97541433D01*
X132653845Y-97542345D01*
X132602187Y-97548784D01*
X132595031Y-97550914D01*
X132587978Y-97553336D01*
X132587976Y-97553336D01*
X132587976Y-97553337D01*
X132560380Y-97568271D01*
X132542176Y-97578122D01*
X132495417Y-97600980D01*
X132489321Y-97605332D01*
X132483458Y-97609897D01*
X132448184Y-97648214D01*
X131983407Y-98112990D01*
X131963554Y-98129113D01*
X131955485Y-98134384D01*
X131934932Y-98160790D01*
X131929855Y-98166541D01*
X131927346Y-98169051D01*
X131927329Y-98169071D01*
X131914463Y-98187090D01*
X131882487Y-98228173D01*
X131878928Y-98234748D01*
X131875657Y-98241441D01*
X131860799Y-98291349D01*
X131843898Y-98340580D01*
X131842670Y-98347941D01*
X131841747Y-98355345D01*
X131843900Y-98407367D01*
X131843900Y-103906496D01*
X131824215Y-103973535D01*
X131771411Y-104019290D01*
X131763235Y-104022677D01*
X131713259Y-104041317D01*
X131693233Y-104048787D01*
X131693231Y-104048787D01*
X131693227Y-104048790D01*
X131689306Y-104051726D01*
X131623841Y-104076140D01*
X131555569Y-104061286D01*
X131506165Y-104011878D01*
X131491000Y-103952456D01*
X131491000Y-95880100D01*
X131510685Y-95813061D01*
X131563489Y-95767306D01*
X131615000Y-95756100D01*
X133501137Y-95756100D01*
X133568176Y-95775785D01*
X133588818Y-95792419D01*
X133731189Y-95934790D01*
X133764674Y-95996113D01*
X133759690Y-96065805D01*
X133717818Y-96121738D01*
X133661388Y-96145175D01*
X133625949Y-96150338D01*
X133625947Y-96150339D01*
X133519660Y-96202299D01*
X133435999Y-96285960D01*
X133384040Y-96392246D01*
X133384039Y-96392248D01*
X133384039Y-96392250D01*
X133374000Y-96461154D01*
X133374000Y-96461159D01*
X133374000Y-96599383D01*
X133354315Y-96666422D01*
X133325488Y-96697758D01*
X133300577Y-96716872D01*
X133204399Y-96842213D01*
X133143944Y-96988168D01*
X133136487Y-97044800D01*
X133654985Y-97044800D01*
X133672863Y-97046096D01*
X133694853Y-97049300D01*
X133694854Y-97049300D01*
X135037147Y-97049300D01*
X135059137Y-97046096D01*
X135077015Y-97044800D01*
X135595510Y-97044800D01*
X135595511Y-97044798D01*
X135588057Y-96988172D01*
X135588055Y-96988166D01*
X135527600Y-96842214D01*
X135431422Y-96716872D01*
X135406512Y-96697758D01*
X135365310Y-96641329D01*
X135358000Y-96599383D01*
X135358000Y-96461159D01*
X135358000Y-96461154D01*
X135347961Y-96392250D01*
X135321042Y-96337186D01*
X135296000Y-96285960D01*
X135212339Y-96202299D01*
X135106053Y-96150340D01*
X135106051Y-96150339D01*
X135106050Y-96150339D01*
X135037146Y-96140300D01*
X135037140Y-96140300D01*
X134844445Y-96140300D01*
X134777406Y-96120615D01*
X134731651Y-96067811D01*
X134722136Y-96036706D01*
X134718455Y-96014646D01*
X134715671Y-95992315D01*
X134712015Y-95962986D01*
X134712014Y-95962983D01*
X134709885Y-95955831D01*
X134707462Y-95948774D01*
X134682679Y-95902980D01*
X134659816Y-95856212D01*
X134655514Y-95850187D01*
X134655472Y-95850133D01*
X134655449Y-95850101D01*
X134650898Y-95844253D01*
X134612585Y-95808984D01*
X133987010Y-95183409D01*
X133970884Y-95163552D01*
X133965614Y-95155485D01*
X133939201Y-95134927D01*
X133933437Y-95129836D01*
X133930936Y-95127335D01*
X133912911Y-95114465D01*
X133912910Y-95114464D01*
X133871828Y-95082489D01*
X133871825Y-95082488D01*
X133865231Y-95078919D01*
X133858563Y-95075659D01*
X133808651Y-95060800D01*
X133759425Y-95043900D01*
X133752041Y-95042668D01*
X133744656Y-95041747D01*
X133692633Y-95043900D01*
X131615000Y-95043900D01*
X131547961Y-95024215D01*
X131502206Y-94971411D01*
X131491000Y-94919900D01*
X131491000Y-94900000D01*
X136475000Y-94900000D01*
X137450000Y-94900000D01*
X137450000Y-94150000D01*
X137950000Y-94150000D01*
X137950000Y-94900000D01*
X138924999Y-94900000D01*
X139775000Y-94900000D01*
X140750000Y-94900000D01*
X140750000Y-94150000D01*
X141250000Y-94150000D01*
X141250000Y-94900000D01*
X142224999Y-94900000D01*
X142224999Y-94850028D01*
X142224998Y-94850013D01*
X142214505Y-94747302D01*
X142159358Y-94580880D01*
X142159356Y-94580875D01*
X142067315Y-94431654D01*
X141943345Y-94307684D01*
X141794124Y-94215643D01*
X141794119Y-94215641D01*
X141627697Y-94160494D01*
X141627690Y-94160493D01*
X141524986Y-94150000D01*
X141250000Y-94150000D01*
X140750000Y-94150000D01*
X140475029Y-94150000D01*
X140475012Y-94150001D01*
X140372302Y-94160494D01*
X140205880Y-94215641D01*
X140205875Y-94215643D01*
X140056654Y-94307684D01*
X139932684Y-94431654D01*
X139840643Y-94580875D01*
X139840641Y-94580880D01*
X139785494Y-94747302D01*
X139785493Y-94747309D01*
X139775000Y-94850013D01*
X139775000Y-94900000D01*
X138924999Y-94900000D01*
X138924999Y-94850028D01*
X138924998Y-94850013D01*
X138914505Y-94747302D01*
X138859358Y-94580880D01*
X138859356Y-94580875D01*
X138767315Y-94431654D01*
X138643345Y-94307684D01*
X138494124Y-94215643D01*
X138494119Y-94215641D01*
X138327697Y-94160494D01*
X138327690Y-94160493D01*
X138224986Y-94150000D01*
X137950000Y-94150000D01*
X137450000Y-94150000D01*
X137175029Y-94150000D01*
X137175012Y-94150001D01*
X137072302Y-94160494D01*
X136905880Y-94215641D01*
X136905875Y-94215643D01*
X136756654Y-94307684D01*
X136632684Y-94431654D01*
X136540643Y-94580875D01*
X136540641Y-94580880D01*
X136485494Y-94747302D01*
X136485493Y-94747309D01*
X136475000Y-94850013D01*
X136475000Y-94900000D01*
X131491000Y-94900000D01*
X131491000Y-93735129D01*
X153207551Y-93735129D01*
X153227317Y-93986280D01*
X153286126Y-94231239D01*
X153382533Y-94463988D01*
X153514160Y-94678782D01*
X153514161Y-94678785D01*
X153535578Y-94703861D01*
X153677776Y-94870353D01*
X153796100Y-94971411D01*
X153869343Y-95033967D01*
X153869346Y-95033968D01*
X154084140Y-95165595D01*
X154316889Y-95262002D01*
X154561852Y-95320812D01*
X154717950Y-95333097D01*
X154750116Y-95335629D01*
X154750118Y-95335629D01*
X154875884Y-95335629D01*
X154905518Y-95333296D01*
X155064148Y-95320812D01*
X155309111Y-95262002D01*
X155541859Y-95165595D01*
X155756659Y-95033965D01*
X155948224Y-94870353D01*
X156111836Y-94678788D01*
X156243466Y-94463988D01*
X156339873Y-94231240D01*
X156398683Y-93986277D01*
X156418449Y-93735129D01*
X156398683Y-93483981D01*
X156339873Y-93239018D01*
X156243466Y-93006270D01*
X156243466Y-93006269D01*
X156111839Y-92791475D01*
X156111838Y-92791472D01*
X156074875Y-92748195D01*
X155948224Y-92599905D01*
X155821571Y-92491733D01*
X155756656Y-92436290D01*
X155756653Y-92436289D01*
X155541859Y-92304662D01*
X155309110Y-92208255D01*
X155064150Y-92149446D01*
X154875884Y-92134629D01*
X154875882Y-92134629D01*
X154750118Y-92134629D01*
X154750116Y-92134629D01*
X154561849Y-92149446D01*
X154316889Y-92208255D01*
X154084140Y-92304662D01*
X153869346Y-92436289D01*
X153869343Y-92436290D01*
X153677776Y-92599905D01*
X153514161Y-92791472D01*
X153514160Y-92791475D01*
X153382533Y-93006269D01*
X153286126Y-93239018D01*
X153227317Y-93483977D01*
X153207551Y-93735129D01*
X131491000Y-93735129D01*
X131491000Y-91242460D01*
X131510685Y-91175421D01*
X131563489Y-91129666D01*
X131615000Y-91118460D01*
X156193421Y-91118460D01*
X156207388Y-91118460D01*
X156212255Y-91118651D01*
G37*
G04 #@! TD.AperFunction*
G04 #@! TA.AperFunction,Conductor*
G36*
X131053039Y-91138145D02*
G01*
X131098794Y-91190949D01*
X131110000Y-91242460D01*
X131110000Y-103971919D01*
X131090315Y-104038958D01*
X131037511Y-104084713D01*
X130968353Y-104094657D01*
X130911691Y-104071187D01*
X130881770Y-104048789D01*
X130881769Y-104048788D01*
X130881767Y-104048787D01*
X130745842Y-103998089D01*
X130745838Y-103998088D01*
X130685763Y-103991629D01*
X130064248Y-103991629D01*
X130064237Y-103991630D01*
X129996686Y-103998891D01*
X129927927Y-103986483D01*
X129895754Y-103963282D01*
X129043454Y-103110981D01*
X129009969Y-103049658D01*
X129014953Y-102979966D01*
X129056825Y-102924033D01*
X129122289Y-102899616D01*
X129131135Y-102899300D01*
X129312140Y-102899300D01*
X129312146Y-102899300D01*
X129381050Y-102889261D01*
X129450003Y-102855552D01*
X129487339Y-102837300D01*
X129571000Y-102753639D01*
X129608955Y-102676000D01*
X129622961Y-102647350D01*
X129633000Y-102578446D01*
X129633000Y-102440215D01*
X129652685Y-102373176D01*
X129681515Y-102341838D01*
X129706423Y-102322725D01*
X129802600Y-102197386D01*
X129863055Y-102051431D01*
X129870512Y-101994800D01*
X129352015Y-101994800D01*
X129334137Y-101993504D01*
X129312147Y-101990300D01*
X129312146Y-101990300D01*
X127969854Y-101990300D01*
X127969853Y-101990300D01*
X127947863Y-101993504D01*
X127929985Y-101994800D01*
X127411490Y-101994800D01*
X127411488Y-101994801D01*
X127418942Y-102051427D01*
X127418944Y-102051433D01*
X127479399Y-102197385D01*
X127575576Y-102322725D01*
X127600485Y-102341838D01*
X127641689Y-102398266D01*
X127649000Y-102440215D01*
X127649000Y-102578446D01*
X127656529Y-102630124D01*
X127659039Y-102647352D01*
X127673812Y-102677570D01*
X127685570Y-102746443D01*
X127658227Y-102810740D01*
X127600462Y-102850046D01*
X127562411Y-102856029D01*
X127037666Y-102856029D01*
X127012219Y-102853390D01*
X127009967Y-102852917D01*
X127002788Y-102851412D01*
X126969580Y-102855552D01*
X126961904Y-102856029D01*
X126958363Y-102856029D01*
X126941978Y-102858762D01*
X126936516Y-102859674D01*
X126884858Y-102866113D01*
X126877702Y-102868243D01*
X126870649Y-102870665D01*
X126824847Y-102895451D01*
X126778088Y-102918309D01*
X126771992Y-102922661D01*
X126766129Y-102927226D01*
X126730855Y-102965543D01*
X125487681Y-104208717D01*
X125426358Y-104242202D01*
X125356666Y-104237218D01*
X125312319Y-104208717D01*
X124592419Y-103488817D01*
X124558934Y-103427494D01*
X124556100Y-103401136D01*
X124556100Y-103087104D01*
X124575785Y-103020065D01*
X124628589Y-102974310D01*
X124697747Y-102964366D01*
X124755587Y-102988729D01*
X124798721Y-103021828D01*
X124865910Y-103049658D01*
X124944047Y-103082023D01*
X125081855Y-103100166D01*
X125099999Y-103102555D01*
X125100000Y-103102555D01*
X125100001Y-103102555D01*
X125116253Y-103100415D01*
X125255953Y-103082023D01*
X125401278Y-103021828D01*
X125526071Y-102926071D01*
X125621828Y-102801278D01*
X125682023Y-102655953D01*
X125702555Y-102500000D01*
X125682023Y-102344047D01*
X125643073Y-102250013D01*
X125621828Y-102198722D01*
X125578237Y-102141913D01*
X125553043Y-102076744D01*
X125567082Y-102008299D01*
X125588928Y-101978750D01*
X126055861Y-101511819D01*
X126117184Y-101478334D01*
X126143542Y-101475500D01*
X127285799Y-101475500D01*
X127352838Y-101495185D01*
X127398593Y-101547989D01*
X127404396Y-101586713D01*
X127411488Y-101594800D01*
X127929985Y-101594800D01*
X127947863Y-101596096D01*
X127969853Y-101599300D01*
X127969854Y-101599300D01*
X129312147Y-101599300D01*
X129334137Y-101596096D01*
X129352015Y-101594800D01*
X129870510Y-101594800D01*
X129870511Y-101594798D01*
X129863057Y-101538172D01*
X129863055Y-101538166D01*
X129802600Y-101392214D01*
X129706422Y-101266872D01*
X129681512Y-101247758D01*
X129640310Y-101191329D01*
X129633000Y-101149383D01*
X129633000Y-101011159D01*
X129633000Y-101011154D01*
X129622961Y-100942250D01*
X129589722Y-100874260D01*
X129577963Y-100805388D01*
X129589723Y-100765339D01*
X129608049Y-100727854D01*
X129622961Y-100697350D01*
X129633000Y-100628446D01*
X129633000Y-100490215D01*
X129652685Y-100423176D01*
X129681515Y-100391838D01*
X129706423Y-100372725D01*
X129802600Y-100247386D01*
X129863055Y-100101431D01*
X129870512Y-100044800D01*
X129352015Y-100044800D01*
X129334137Y-100043504D01*
X129312147Y-100040300D01*
X129312146Y-100040300D01*
X127969854Y-100040300D01*
X127969853Y-100040300D01*
X127947863Y-100043504D01*
X127929985Y-100044800D01*
X127430201Y-100044800D01*
X127363162Y-100025115D01*
X127354715Y-100019176D01*
X127346764Y-100013075D01*
X127301278Y-99978172D01*
X127301274Y-99978170D01*
X127301272Y-99978169D01*
X127155956Y-99917978D01*
X127155954Y-99917977D01*
X127155953Y-99917977D01*
X127077976Y-99907711D01*
X127000001Y-99897445D01*
X126999999Y-99897445D01*
X126844047Y-99917977D01*
X126844043Y-99917978D01*
X126698723Y-99978171D01*
X126573929Y-100073929D01*
X126478171Y-100198723D01*
X126417978Y-100344043D01*
X126417977Y-100344047D01*
X126397445Y-100500000D01*
X126417977Y-100655953D01*
X126417978Y-100655956D01*
X126418527Y-100658004D01*
X126418484Y-100659803D01*
X126419038Y-100664010D01*
X126418382Y-100664096D01*
X126416866Y-100727854D01*
X126377705Y-100785717D01*
X126313477Y-100813223D01*
X126298753Y-100814100D01*
X125972338Y-100814100D01*
X125966937Y-100813864D01*
X125956875Y-100812983D01*
X125925932Y-100810276D01*
X125925929Y-100810276D01*
X125886169Y-100820929D01*
X125880891Y-100822099D01*
X125840350Y-100829248D01*
X125835989Y-100830835D01*
X125817481Y-100838501D01*
X125813284Y-100840459D01*
X125779561Y-100864072D01*
X125774999Y-100866978D01*
X125739355Y-100887557D01*
X125739348Y-100887564D01*
X125712880Y-100919105D01*
X125709225Y-100923093D01*
X124878293Y-101754025D01*
X124874305Y-101757680D01*
X124842764Y-101784148D01*
X124842758Y-101784154D01*
X124822177Y-101819800D01*
X124819272Y-101824361D01*
X124795659Y-101858084D01*
X124792480Y-101864902D01*
X124746305Y-101917340D01*
X124679111Y-101936489D01*
X124612231Y-101916270D01*
X124566898Y-101863103D01*
X124556100Y-101812493D01*
X124556100Y-99949793D01*
X124558739Y-99924347D01*
X124560716Y-99914919D01*
X124557093Y-99885851D01*
X124556577Y-99881709D01*
X124556100Y-99874033D01*
X124556100Y-99870495D01*
X124556100Y-99870492D01*
X124552454Y-99848646D01*
X124546015Y-99796987D01*
X124546013Y-99796983D01*
X124543885Y-99789836D01*
X124541463Y-99782781D01*
X124541463Y-99782776D01*
X124516677Y-99736976D01*
X124493819Y-99690218D01*
X124489473Y-99684131D01*
X124484898Y-99678253D01*
X124446585Y-99642984D01*
X124099510Y-99295909D01*
X124083384Y-99276052D01*
X124078114Y-99267985D01*
X124051701Y-99247427D01*
X124045937Y-99242336D01*
X124043436Y-99239835D01*
X124025411Y-99226965D01*
X124025410Y-99226964D01*
X123984328Y-99194989D01*
X123984325Y-99194988D01*
X123977731Y-99191419D01*
X123971063Y-99188159D01*
X123921151Y-99173300D01*
X123871925Y-99156400D01*
X123864541Y-99155168D01*
X123857156Y-99154247D01*
X123805133Y-99156400D01*
X123789632Y-99156400D01*
X123722593Y-99136715D01*
X123690779Y-99100000D01*
X124997445Y-99100000D01*
X125016543Y-99245064D01*
X125017977Y-99255952D01*
X125017978Y-99255956D01*
X125078170Y-99401275D01*
X125078171Y-99401277D01*
X125078172Y-99401278D01*
X125173929Y-99526071D01*
X125298722Y-99621828D01*
X125444047Y-99682023D01*
X125581855Y-99700166D01*
X125599999Y-99702555D01*
X125600000Y-99702555D01*
X125600001Y-99702555D01*
X125616253Y-99700415D01*
X125755953Y-99682023D01*
X125901278Y-99621828D01*
X125993422Y-99551123D01*
X126058589Y-99525930D01*
X126068907Y-99525500D01*
X127285799Y-99525500D01*
X127352838Y-99545185D01*
X127398593Y-99597989D01*
X127404396Y-99636713D01*
X127411488Y-99644800D01*
X127929985Y-99644800D01*
X127947863Y-99646096D01*
X127969853Y-99649300D01*
X127969854Y-99649300D01*
X129312147Y-99649300D01*
X129334137Y-99646096D01*
X129352015Y-99644800D01*
X129870510Y-99644800D01*
X129870511Y-99644798D01*
X129863057Y-99588172D01*
X129863055Y-99588166D01*
X129802600Y-99442214D01*
X129706422Y-99316872D01*
X129681512Y-99297758D01*
X129640310Y-99241329D01*
X129633000Y-99199383D01*
X129633000Y-99061159D01*
X129633000Y-99061154D01*
X129622961Y-98992250D01*
X129589722Y-98924260D01*
X129577963Y-98855388D01*
X129589723Y-98815339D01*
X129595922Y-98802660D01*
X129622961Y-98747350D01*
X129633000Y-98678446D01*
X129633000Y-98411154D01*
X129622961Y-98342250D01*
X129622143Y-98340577D01*
X129600128Y-98295544D01*
X129589722Y-98274260D01*
X129577963Y-98205388D01*
X129589723Y-98165339D01*
X129622960Y-98097352D01*
X129622959Y-98097352D01*
X129622961Y-98097350D01*
X129633000Y-98028446D01*
X129633000Y-97890215D01*
X129652685Y-97823176D01*
X129681515Y-97791838D01*
X129706423Y-97772725D01*
X129802600Y-97647386D01*
X129863055Y-97501431D01*
X129870512Y-97444800D01*
X129352015Y-97444800D01*
X129334137Y-97443504D01*
X129312147Y-97440300D01*
X129312146Y-97440300D01*
X127969854Y-97440300D01*
X127969853Y-97440300D01*
X127947863Y-97443504D01*
X127929985Y-97444800D01*
X127411490Y-97444800D01*
X127406002Y-97451057D01*
X127398658Y-97498152D01*
X127352277Y-97550407D01*
X127286485Y-97569300D01*
X126160401Y-97569300D01*
X126093362Y-97549615D01*
X126062025Y-97520786D01*
X126026072Y-97473930D01*
X126026071Y-97473929D01*
X125901278Y-97378172D01*
X125901277Y-97378171D01*
X125901275Y-97378170D01*
X125755956Y-97317978D01*
X125755954Y-97317977D01*
X125755953Y-97317977D01*
X125677976Y-97307711D01*
X125600001Y-97297445D01*
X125599999Y-97297445D01*
X125444047Y-97317977D01*
X125444043Y-97317978D01*
X125298723Y-97378171D01*
X125173929Y-97473929D01*
X125078171Y-97598723D01*
X125017978Y-97744043D01*
X125017977Y-97744047D01*
X124997445Y-97899999D01*
X124997445Y-97900000D01*
X125017977Y-98055952D01*
X125017978Y-98055956D01*
X125078170Y-98201275D01*
X125078171Y-98201277D01*
X125078172Y-98201278D01*
X125173929Y-98326071D01*
X125205114Y-98350000D01*
X125272392Y-98401625D01*
X125313594Y-98458053D01*
X125317749Y-98527799D01*
X125283536Y-98588719D01*
X125272392Y-98598375D01*
X125173929Y-98673928D01*
X125078171Y-98798723D01*
X125017978Y-98944043D01*
X125017977Y-98944047D01*
X125003698Y-99052508D01*
X124997445Y-99100000D01*
X123690779Y-99100000D01*
X123676838Y-99083911D01*
X123673459Y-99075756D01*
X123647342Y-99005733D01*
X123586354Y-98924261D01*
X123560404Y-98889595D01*
X123461207Y-98815339D01*
X123444267Y-98802658D01*
X123308342Y-98751960D01*
X123308338Y-98751959D01*
X123248262Y-98745500D01*
X122251748Y-98745500D01*
X122251742Y-98745501D01*
X122191655Y-98751960D01*
X122055738Y-98802655D01*
X122055730Y-98802660D01*
X121939595Y-98889595D01*
X121879564Y-98969790D01*
X121852658Y-99005733D01*
X121817498Y-99100000D01*
X121801959Y-99141662D01*
X121795500Y-99201728D01*
X121795500Y-99823251D01*
X121795501Y-99823257D01*
X121801960Y-99883344D01*
X121852655Y-100019261D01*
X121852656Y-100019264D01*
X121852658Y-100019267D01*
X121875918Y-100050339D01*
X121939595Y-100135404D01*
X121977930Y-100164100D01*
X122055733Y-100222342D01*
X122191658Y-100273040D01*
X122251745Y-100279500D01*
X123248254Y-100279499D01*
X123308342Y-100273040D01*
X123444267Y-100222342D01*
X123560404Y-100135404D01*
X123620633Y-100054945D01*
X123676565Y-100013075D01*
X123746256Y-100008089D01*
X123807580Y-100041573D01*
X123841066Y-100102896D01*
X123843900Y-100129256D01*
X123843900Y-101610136D01*
X123824215Y-101677175D01*
X123771411Y-101722930D01*
X123702253Y-101732874D01*
X123650113Y-101710465D01*
X123649491Y-101711475D01*
X123494124Y-101615643D01*
X123494119Y-101615641D01*
X123327697Y-101560494D01*
X123327690Y-101560493D01*
X123224986Y-101550000D01*
X122950000Y-101550000D01*
X122950000Y-102676000D01*
X122930315Y-102743039D01*
X122877511Y-102788794D01*
X122826000Y-102800000D01*
X121475001Y-102800000D01*
X121475001Y-102849986D01*
X121485494Y-102952697D01*
X121540641Y-103119119D01*
X121540643Y-103119124D01*
X121632684Y-103268345D01*
X121756654Y-103392315D01*
X121905875Y-103484356D01*
X121905882Y-103484359D01*
X121992081Y-103512922D01*
X122049526Y-103552694D01*
X122076350Y-103617210D01*
X122064035Y-103685985D01*
X122016493Y-103737186D01*
X121996416Y-103746808D01*
X121980736Y-103752656D01*
X121980730Y-103752660D01*
X121864595Y-103839595D01*
X121777660Y-103955730D01*
X121777658Y-103955733D01*
X121746736Y-104038636D01*
X121704866Y-104094567D01*
X121639402Y-104118984D01*
X121630556Y-104119300D01*
X121622036Y-104119300D01*
X121554997Y-104099615D01*
X121532543Y-104078958D01*
X121531823Y-104079680D01*
X121526077Y-104073935D01*
X121526073Y-104073932D01*
X121526071Y-104073929D01*
X121401278Y-103978172D01*
X121401277Y-103978171D01*
X121401275Y-103978170D01*
X121255956Y-103917978D01*
X121255954Y-103917977D01*
X121255953Y-103917977D01*
X121177976Y-103907711D01*
X121100001Y-103897445D01*
X121099999Y-103897445D01*
X120944047Y-103917977D01*
X120944043Y-103917978D01*
X120798722Y-103978171D01*
X120723404Y-104035965D01*
X120658234Y-104061159D01*
X120589790Y-104047120D01*
X120539800Y-103998306D01*
X120531739Y-103980929D01*
X120522342Y-103955733D01*
X120448443Y-103857014D01*
X120435404Y-103839595D01*
X120333113Y-103763023D01*
X120319267Y-103752658D01*
X120319264Y-103752657D01*
X120319263Y-103752656D01*
X120303584Y-103746808D01*
X120247652Y-103704935D01*
X120223238Y-103639470D01*
X120238092Y-103571197D01*
X120287499Y-103521794D01*
X120307919Y-103512922D01*
X120394117Y-103484359D01*
X120394124Y-103484356D01*
X120543345Y-103392315D01*
X120667315Y-103268345D01*
X120759356Y-103119124D01*
X120759358Y-103119119D01*
X120814505Y-102952697D01*
X120814506Y-102952690D01*
X120824999Y-102849986D01*
X120825000Y-102849973D01*
X120825000Y-102800000D01*
X118375001Y-102800000D01*
X118375001Y-102849986D01*
X118385494Y-102952697D01*
X118440641Y-103119119D01*
X118440643Y-103119124D01*
X118532684Y-103268345D01*
X118656654Y-103392315D01*
X118805875Y-103484356D01*
X118805882Y-103484359D01*
X118892081Y-103512922D01*
X118949526Y-103552694D01*
X118976350Y-103617210D01*
X118964035Y-103685985D01*
X118916493Y-103737186D01*
X118896416Y-103746808D01*
X118880736Y-103752656D01*
X118880730Y-103752660D01*
X118764595Y-103839595D01*
X118677660Y-103955730D01*
X118677658Y-103955733D01*
X118626960Y-104091658D01*
X118626959Y-104091662D01*
X118620500Y-104151728D01*
X118620500Y-104748251D01*
X118620501Y-104748257D01*
X118626960Y-104808344D01*
X118677655Y-104944261D01*
X118677656Y-104944264D01*
X118677658Y-104944267D01*
X118688901Y-104959286D01*
X118764595Y-105060404D01*
X118820904Y-105102555D01*
X118880733Y-105147342D01*
X119016658Y-105198040D01*
X119076745Y-105204500D01*
X120123254Y-105204499D01*
X120183342Y-105198040D01*
X120319267Y-105147342D01*
X120435404Y-105060404D01*
X120511100Y-104959284D01*
X120567031Y-104917414D01*
X120636722Y-104912428D01*
X120685851Y-104935219D01*
X120717216Y-104959286D01*
X120798721Y-105021828D01*
X120845937Y-105041385D01*
X120944047Y-105082023D01*
X121081855Y-105100166D01*
X121099999Y-105102555D01*
X121100000Y-105102555D01*
X121100001Y-105102555D01*
X121116253Y-105100415D01*
X121255953Y-105082023D01*
X121401278Y-105021828D01*
X121526071Y-104926071D01*
X121554492Y-104889030D01*
X121610918Y-104847829D01*
X121680664Y-104843674D01*
X121741584Y-104877885D01*
X121769048Y-104921183D01*
X121777656Y-104944263D01*
X121777657Y-104944264D01*
X121777658Y-104944267D01*
X121788901Y-104959286D01*
X121864595Y-105060404D01*
X121920904Y-105102555D01*
X121980733Y-105147342D01*
X122116658Y-105198040D01*
X122176745Y-105204500D01*
X123223254Y-105204499D01*
X123283342Y-105198040D01*
X123419267Y-105147342D01*
X123535404Y-105060404D01*
X123622342Y-104944267D01*
X123673040Y-104808342D01*
X123678596Y-104756666D01*
X123679499Y-104748271D01*
X123679499Y-104748264D01*
X123679500Y-104748255D01*
X123679499Y-104151746D01*
X123673040Y-104091658D01*
X123670450Y-104084713D01*
X123622344Y-103955738D01*
X123622343Y-103955737D01*
X123622342Y-103955733D01*
X123548443Y-103857014D01*
X123535404Y-103839595D01*
X123433113Y-103763023D01*
X123419267Y-103752658D01*
X123419264Y-103752657D01*
X123419263Y-103752656D01*
X123403584Y-103746808D01*
X123347652Y-103704935D01*
X123323238Y-103639470D01*
X123338092Y-103571197D01*
X123387499Y-103521794D01*
X123407919Y-103512922D01*
X123494117Y-103484359D01*
X123494124Y-103484356D01*
X123649491Y-103388525D01*
X123650207Y-103389687D01*
X123707775Y-103366457D01*
X123776418Y-103379492D01*
X123827117Y-103427569D01*
X123843900Y-103489863D01*
X123843900Y-103550205D01*
X123841261Y-103575653D01*
X123839283Y-103585081D01*
X123843423Y-103618289D01*
X123843900Y-103625966D01*
X123843900Y-103629508D01*
X123847545Y-103651353D01*
X123853985Y-103703014D01*
X123856116Y-103710172D01*
X123858537Y-103717224D01*
X123883322Y-103763023D01*
X123906178Y-103809778D01*
X123910526Y-103815868D01*
X123915100Y-103821745D01*
X123915101Y-103821746D01*
X123953413Y-103857014D01*
X125135974Y-105039576D01*
X125139435Y-105043336D01*
X125166669Y-105075492D01*
X125167617Y-105076294D01*
X125190518Y-105094119D01*
X125330117Y-105233718D01*
X125363602Y-105295041D01*
X125358618Y-105364733D01*
X125352921Y-105377694D01*
X125310500Y-105460947D01*
X125295500Y-105555660D01*
X125295500Y-105619900D01*
X125275815Y-105686939D01*
X125223011Y-105732694D01*
X125171500Y-105743900D01*
X123349795Y-105743900D01*
X123324348Y-105741261D01*
X123322096Y-105740788D01*
X123314917Y-105739283D01*
X123281709Y-105743423D01*
X123274033Y-105743900D01*
X123270492Y-105743900D01*
X123248646Y-105747544D01*
X123196985Y-105753984D01*
X123189839Y-105756111D01*
X123182779Y-105758535D01*
X123136980Y-105783320D01*
X123090217Y-105806180D01*
X123084121Y-105810532D01*
X123078258Y-105815097D01*
X123042984Y-105853414D01*
X122483407Y-106412990D01*
X122463554Y-106429113D01*
X122455485Y-106434384D01*
X122434932Y-106460790D01*
X122429855Y-106466541D01*
X122427346Y-106469051D01*
X122427329Y-106469071D01*
X122414463Y-106487090D01*
X122382487Y-106528173D01*
X122378928Y-106534748D01*
X122375657Y-106541441D01*
X122360799Y-106591349D01*
X122343898Y-106640580D01*
X122342670Y-106647941D01*
X122341747Y-106655345D01*
X122343900Y-106707367D01*
X122343900Y-106771500D01*
X122324215Y-106838539D01*
X122271411Y-106884294D01*
X122219903Y-106895500D01*
X122176749Y-106895500D01*
X122176741Y-106895501D01*
X122116655Y-106901960D01*
X121980738Y-106952655D01*
X121980730Y-106952660D01*
X121864595Y-107039595D01*
X121777660Y-107155730D01*
X121777658Y-107155733D01*
X121756209Y-107213236D01*
X121714340Y-107269167D01*
X121648876Y-107293584D01*
X121640030Y-107293900D01*
X120659970Y-107293900D01*
X120592931Y-107274215D01*
X120547176Y-107221411D01*
X120543798Y-107213258D01*
X120522342Y-107155733D01*
X120463213Y-107076745D01*
X120435404Y-107039595D01*
X120358126Y-106981747D01*
X120319267Y-106952658D01*
X120183342Y-106901960D01*
X120183338Y-106901959D01*
X120123262Y-106895500D01*
X119076748Y-106895500D01*
X119076742Y-106895501D01*
X119016655Y-106901960D01*
X118880738Y-106952655D01*
X118880730Y-106952660D01*
X118764595Y-107039595D01*
X118677660Y-107155730D01*
X118677658Y-107155733D01*
X118626960Y-107291658D01*
X118626959Y-107291662D01*
X118620500Y-107351728D01*
X118620500Y-107948251D01*
X118620501Y-107948257D01*
X118626960Y-108008344D01*
X118677655Y-108144261D01*
X118677656Y-108144264D01*
X118677658Y-108144267D01*
X118701971Y-108176746D01*
X118764595Y-108260404D01*
X118822443Y-108303707D01*
X118880733Y-108347342D01*
X118880736Y-108347343D01*
X118896412Y-108353190D01*
X118952345Y-108395062D01*
X118976761Y-108460526D01*
X118961909Y-108528799D01*
X118912503Y-108578204D01*
X118892082Y-108587077D01*
X118805878Y-108615642D01*
X118805875Y-108615643D01*
X118656654Y-108707684D01*
X118532684Y-108831654D01*
X118440643Y-108980875D01*
X118440641Y-108980880D01*
X118385494Y-109147302D01*
X118385493Y-109147309D01*
X118375000Y-109250013D01*
X118375000Y-109300000D01*
X120824999Y-109300000D01*
X120824999Y-109250028D01*
X120824998Y-109250013D01*
X120814505Y-109147302D01*
X120759358Y-108980880D01*
X120759356Y-108980875D01*
X120667315Y-108831654D01*
X120543345Y-108707684D01*
X120394124Y-108615643D01*
X120394119Y-108615641D01*
X120307917Y-108587077D01*
X120250472Y-108547304D01*
X120223649Y-108482789D01*
X120235964Y-108414013D01*
X120283507Y-108362813D01*
X120303582Y-108353191D01*
X120319267Y-108347342D01*
X120435404Y-108260404D01*
X120522342Y-108144267D01*
X120543790Y-108086763D01*
X120585660Y-108030833D01*
X120651124Y-108006416D01*
X120659970Y-108006100D01*
X121340577Y-108006100D01*
X121640030Y-108006100D01*
X121707069Y-108025785D01*
X121752824Y-108078589D01*
X121756201Y-108086741D01*
X121777658Y-108144267D01*
X121801971Y-108176746D01*
X121864595Y-108260404D01*
X121922443Y-108303707D01*
X121980733Y-108347342D01*
X121980736Y-108347343D01*
X121996412Y-108353190D01*
X122052345Y-108395062D01*
X122076761Y-108460526D01*
X122061909Y-108528799D01*
X122012503Y-108578204D01*
X121992082Y-108587077D01*
X121905878Y-108615642D01*
X121905875Y-108615643D01*
X121756654Y-108707684D01*
X121632684Y-108831654D01*
X121540643Y-108980875D01*
X121540641Y-108980880D01*
X121485494Y-109147302D01*
X121485493Y-109147309D01*
X121475000Y-109250013D01*
X121475000Y-109300000D01*
X123924999Y-109300000D01*
X123924999Y-109250028D01*
X123924998Y-109250013D01*
X123914505Y-109147302D01*
X123859358Y-108980880D01*
X123859356Y-108980875D01*
X123767315Y-108831654D01*
X123643345Y-108707684D01*
X123494124Y-108615643D01*
X123494119Y-108615641D01*
X123407917Y-108587077D01*
X123350472Y-108547304D01*
X123323649Y-108482789D01*
X123335964Y-108414013D01*
X123383507Y-108362813D01*
X123403582Y-108353191D01*
X123419267Y-108347342D01*
X123535404Y-108260404D01*
X123622342Y-108144267D01*
X123673040Y-108008342D01*
X123676008Y-107980733D01*
X123679499Y-107948271D01*
X123679499Y-107948264D01*
X123679500Y-107948255D01*
X123679499Y-107351746D01*
X123673040Y-107291658D01*
X123644597Y-107215400D01*
X123622344Y-107155738D01*
X123622343Y-107155737D01*
X123622342Y-107155733D01*
X123563213Y-107076745D01*
X123535404Y-107039595D01*
X123458126Y-106981747D01*
X123419267Y-106952658D01*
X123283342Y-106901960D01*
X123283338Y-106901959D01*
X123283337Y-106901959D01*
X123275792Y-106900176D01*
X123276300Y-106898022D01*
X123222118Y-106875573D01*
X123182275Y-106818177D01*
X123179788Y-106748351D01*
X123212248Y-106691352D01*
X123411184Y-106492416D01*
X123472507Y-106458934D01*
X123498864Y-106456100D01*
X125171500Y-106456100D01*
X125238539Y-106475785D01*
X125284294Y-106528589D01*
X125295500Y-106580100D01*
X125295500Y-106644339D01*
X125310500Y-106739052D01*
X125323516Y-106764596D01*
X125368674Y-106853223D01*
X125368676Y-106853225D01*
X125368678Y-106853228D01*
X125459271Y-106943821D01*
X125459273Y-106943822D01*
X125459277Y-106943826D01*
X125573445Y-107001998D01*
X125573446Y-107001998D01*
X125573448Y-107001999D01*
X125573447Y-107001999D01*
X125668161Y-107017000D01*
X125668166Y-107017000D01*
X126031839Y-107017000D01*
X126126552Y-107001999D01*
X126126553Y-107001998D01*
X126126555Y-107001998D01*
X126240723Y-106943826D01*
X126331326Y-106853223D01*
X126389498Y-106739055D01*
X126389498Y-106739053D01*
X126389499Y-106739052D01*
X126404500Y-106644339D01*
X127195500Y-106644339D01*
X127210500Y-106739052D01*
X127223516Y-106764596D01*
X127268674Y-106853223D01*
X127268676Y-106853225D01*
X127268678Y-106853228D01*
X127359271Y-106943821D01*
X127359273Y-106943822D01*
X127359277Y-106943826D01*
X127473445Y-107001998D01*
X127473446Y-107001998D01*
X127473448Y-107001999D01*
X127473447Y-107001999D01*
X127568161Y-107017000D01*
X127568166Y-107017000D01*
X127931839Y-107017000D01*
X128026552Y-107001999D01*
X128026553Y-107001998D01*
X128026555Y-107001998D01*
X128140723Y-106943826D01*
X128231326Y-106853223D01*
X128289498Y-106739055D01*
X128289498Y-106739053D01*
X128289499Y-106739052D01*
X128304500Y-106644339D01*
X128304500Y-105555660D01*
X128289499Y-105460947D01*
X128289498Y-105460945D01*
X128231326Y-105346777D01*
X128231322Y-105346773D01*
X128231321Y-105346771D01*
X128140728Y-105256178D01*
X128140725Y-105256176D01*
X128140723Y-105256174D01*
X128026555Y-105198002D01*
X128026554Y-105198001D01*
X128026551Y-105198000D01*
X128026552Y-105198000D01*
X127931839Y-105183000D01*
X127931834Y-105183000D01*
X127568166Y-105183000D01*
X127568161Y-105183000D01*
X127473447Y-105198000D01*
X127403349Y-105233718D01*
X127359277Y-105256174D01*
X127359276Y-105256175D01*
X127359271Y-105256178D01*
X127268678Y-105346771D01*
X127268675Y-105346776D01*
X127210500Y-105460947D01*
X127195500Y-105555660D01*
X127195500Y-106644339D01*
X126404500Y-106644339D01*
X126404500Y-105555660D01*
X126389499Y-105460947D01*
X126389498Y-105460945D01*
X126331326Y-105346777D01*
X126331322Y-105346773D01*
X126331321Y-105346771D01*
X126235298Y-105250748D01*
X126201813Y-105189425D01*
X126199931Y-105178404D01*
X126196015Y-105146986D01*
X126196014Y-105146983D01*
X126193885Y-105139831D01*
X126191462Y-105132774D01*
X126166679Y-105086980D01*
X126143816Y-105040212D01*
X126139514Y-105034187D01*
X126139472Y-105034133D01*
X126139449Y-105034101D01*
X126134898Y-105028253D01*
X126096585Y-104992984D01*
X125991282Y-104887681D01*
X125957797Y-104826358D01*
X125962781Y-104756666D01*
X125991282Y-104712319D01*
X127099053Y-103604548D01*
X127160376Y-103571063D01*
X127186734Y-103568229D01*
X128442137Y-103568229D01*
X128509176Y-103587914D01*
X128529818Y-103604548D01*
X129571681Y-104646411D01*
X129605166Y-104707734D01*
X129608000Y-104734092D01*
X129608000Y-105444380D01*
X129608001Y-105444386D01*
X129614460Y-105504473D01*
X129665155Y-105640390D01*
X129665156Y-105640393D01*
X129665158Y-105640396D01*
X129694247Y-105679255D01*
X129752095Y-105756533D01*
X129805692Y-105796654D01*
X129868233Y-105843471D01*
X129950735Y-105874243D01*
X130006668Y-105916114D01*
X130031084Y-105981579D01*
X130031400Y-105990424D01*
X130031400Y-109860367D01*
X130011715Y-109927406D01*
X129958911Y-109973161D01*
X129950735Y-109976548D01*
X129947754Y-109977660D01*
X129880733Y-110002658D01*
X129880730Y-110002659D01*
X129880730Y-110002660D01*
X129764595Y-110089595D01*
X129677660Y-110205730D01*
X129677655Y-110205738D01*
X129670881Y-110223902D01*
X129629010Y-110279836D01*
X129563545Y-110304252D01*
X129495272Y-110289400D01*
X129445867Y-110239994D01*
X129430700Y-110180568D01*
X129430700Y-109760401D01*
X129450385Y-109693362D01*
X129479214Y-109662025D01*
X129526071Y-109626071D01*
X129621828Y-109501278D01*
X129682023Y-109355953D01*
X129702555Y-109200000D01*
X129682023Y-109044047D01*
X129621828Y-108898723D01*
X129526071Y-108773929D01*
X129454211Y-108718789D01*
X129413011Y-108662363D01*
X129405700Y-108620415D01*
X129405700Y-108617149D01*
X129405936Y-108611743D01*
X129406879Y-108600972D01*
X129409524Y-108570733D01*
X129398868Y-108530969D01*
X129397700Y-108525699D01*
X129390551Y-108485150D01*
X129388954Y-108480764D01*
X129381307Y-108462301D01*
X129379340Y-108458083D01*
X129355725Y-108424358D01*
X129352817Y-108419793D01*
X129349480Y-108414013D01*
X129332239Y-108384151D01*
X129300693Y-108357680D01*
X129296709Y-108354029D01*
X129095969Y-108153289D01*
X129092318Y-108149305D01*
X129065849Y-108117761D01*
X129030196Y-108097176D01*
X129025648Y-108094279D01*
X128991916Y-108070660D01*
X128991914Y-108070659D01*
X128991912Y-108070658D01*
X128987718Y-108068702D01*
X128969204Y-108061033D01*
X128964852Y-108059449D01*
X128924310Y-108052300D01*
X128919028Y-108051129D01*
X128879266Y-108040475D01*
X128847098Y-108043290D01*
X128838251Y-108044064D01*
X128832851Y-108044300D01*
X128428500Y-108044300D01*
X128361461Y-108024615D01*
X128315706Y-107971811D01*
X128304500Y-107920300D01*
X128304500Y-107830660D01*
X128289499Y-107735947D01*
X128281628Y-107720500D01*
X128231326Y-107621777D01*
X128231322Y-107621773D01*
X128231321Y-107621771D01*
X128140728Y-107531178D01*
X128140725Y-107531176D01*
X128140723Y-107531174D01*
X128026555Y-107473002D01*
X128026554Y-107473001D01*
X128026551Y-107473000D01*
X128026552Y-107473000D01*
X127931839Y-107458000D01*
X127931834Y-107458000D01*
X127568166Y-107458000D01*
X127568163Y-107458000D01*
X127541279Y-107462257D01*
X127471985Y-107453300D01*
X127434204Y-107427464D01*
X127351561Y-107344821D01*
X127351552Y-107344814D01*
X127210196Y-107261217D01*
X127210193Y-107261216D01*
X127052494Y-107215400D01*
X127052497Y-107215400D01*
X127050000Y-107215203D01*
X127050000Y-109534795D01*
X127050001Y-109534795D01*
X127052488Y-109534600D01*
X127052494Y-109534599D01*
X127150331Y-109506175D01*
X127191576Y-109506292D01*
X127201063Y-109494552D01*
X127208528Y-109489769D01*
X127351553Y-109405184D01*
X127351561Y-109405178D01*
X127434203Y-109322535D01*
X127495526Y-109289049D01*
X127541282Y-109287742D01*
X127568166Y-109292000D01*
X127931839Y-109292000D01*
X128026552Y-109276999D01*
X128026553Y-109276998D01*
X128026555Y-109276998D01*
X128140723Y-109218826D01*
X128231326Y-109128223D01*
X128275289Y-109041940D01*
X128323261Y-108991147D01*
X128391082Y-108974352D01*
X128457217Y-108996889D01*
X128500669Y-109051604D01*
X128508711Y-109114423D01*
X128498080Y-109195177D01*
X128497445Y-109200000D01*
X128504029Y-109250013D01*
X128517977Y-109355952D01*
X128517978Y-109355956D01*
X128578170Y-109501275D01*
X128578171Y-109501277D01*
X128578172Y-109501278D01*
X128663186Y-109612070D01*
X128673930Y-109626072D01*
X128720786Y-109662025D01*
X128761989Y-109718453D01*
X128769300Y-109760401D01*
X128769300Y-109784277D01*
X128749615Y-109851316D01*
X128696811Y-109897071D01*
X128627653Y-109907015D01*
X128564097Y-109877990D01*
X128557619Y-109871958D01*
X128518345Y-109832684D01*
X128369124Y-109740643D01*
X128369119Y-109740641D01*
X128202697Y-109685494D01*
X128202690Y-109685493D01*
X128099986Y-109675000D01*
X128050000Y-109675000D01*
X128050000Y-112124999D01*
X128099972Y-112124999D01*
X128099986Y-112124998D01*
X128202697Y-112114505D01*
X128369119Y-112059358D01*
X128369124Y-112059356D01*
X128518345Y-111967315D01*
X128557619Y-111928042D01*
X128618942Y-111894557D01*
X128688634Y-111899541D01*
X128744567Y-111941413D01*
X128768984Y-112006877D01*
X128769300Y-112015723D01*
X128769300Y-112111657D01*
X128749615Y-112178696D01*
X128732981Y-112199338D01*
X128499339Y-112432981D01*
X128438016Y-112466466D01*
X128411658Y-112469300D01*
X124148342Y-112469300D01*
X124081303Y-112449615D01*
X124060661Y-112432981D01*
X124007019Y-112379339D01*
X123973534Y-112318016D01*
X123970700Y-112291658D01*
X123970700Y-111038342D01*
X123990385Y-110971303D01*
X124007019Y-110950661D01*
X124060661Y-110897019D01*
X124121984Y-110863534D01*
X124148342Y-110860700D01*
X124602851Y-110860700D01*
X124608252Y-110860935D01*
X124649267Y-110864524D01*
X124689037Y-110853866D01*
X124694297Y-110852700D01*
X124734851Y-110845551D01*
X124734855Y-110845548D01*
X124739248Y-110843950D01*
X124757662Y-110836322D01*
X124761910Y-110834341D01*
X124761916Y-110834340D01*
X124795642Y-110810723D01*
X124800190Y-110807825D01*
X124835849Y-110787239D01*
X124862319Y-110755691D01*
X124865948Y-110751730D01*
X124933821Y-110683857D01*
X124995143Y-110650375D01*
X125064834Y-110655360D01*
X125120768Y-110697231D01*
X125145184Y-110762696D01*
X125145500Y-110771541D01*
X125145500Y-111423251D01*
X125145501Y-111423257D01*
X125151960Y-111483344D01*
X125202655Y-111619261D01*
X125202656Y-111619264D01*
X125202658Y-111619267D01*
X125202782Y-111619432D01*
X125289595Y-111735404D01*
X125347443Y-111778707D01*
X125405733Y-111822342D01*
X125541658Y-111873040D01*
X125601745Y-111879500D01*
X126198254Y-111879499D01*
X126258342Y-111873040D01*
X126394267Y-111822342D01*
X126510404Y-111735404D01*
X126597342Y-111619267D01*
X126603190Y-111603587D01*
X126645060Y-111547655D01*
X126710525Y-111523238D01*
X126778798Y-111538090D01*
X126828203Y-111587495D01*
X126837077Y-111607918D01*
X126865641Y-111694119D01*
X126865643Y-111694124D01*
X126957684Y-111843345D01*
X127081654Y-111967315D01*
X127230875Y-112059356D01*
X127230880Y-112059358D01*
X127397302Y-112114505D01*
X127397309Y-112114506D01*
X127500019Y-112124999D01*
X127549999Y-112124998D01*
X127550000Y-112124998D01*
X127550000Y-109675000D01*
X127549999Y-109674999D01*
X127500029Y-109675000D01*
X127500011Y-109675001D01*
X127397302Y-109685494D01*
X127310653Y-109714207D01*
X127263815Y-109715818D01*
X127251667Y-109729757D01*
X127237330Y-109737633D01*
X127230884Y-109740638D01*
X127081654Y-109832684D01*
X126957684Y-109956654D01*
X126865643Y-110105875D01*
X126865641Y-110105880D01*
X126837077Y-110192082D01*
X126797304Y-110249527D01*
X126732788Y-110276350D01*
X126664012Y-110264035D01*
X126612813Y-110216492D01*
X126603191Y-110196417D01*
X126597342Y-110180733D01*
X126551219Y-110119119D01*
X126510404Y-110064595D01*
X126427665Y-110002659D01*
X126394267Y-109977658D01*
X126258342Y-109926960D01*
X126258338Y-109926959D01*
X126198263Y-109920500D01*
X125601748Y-109920500D01*
X125601742Y-109920501D01*
X125541655Y-109926960D01*
X125495979Y-109943996D01*
X125426287Y-109948980D01*
X125381525Y-109929390D01*
X125361915Y-109915659D01*
X125357718Y-109913702D01*
X125333509Y-109903674D01*
X125325455Y-109899024D01*
X125327181Y-109896033D01*
X125286019Y-109865721D01*
X125261089Y-109800451D01*
X125260700Y-109790634D01*
X125260700Y-109317915D01*
X125280385Y-109250876D01*
X125333189Y-109205121D01*
X125402347Y-109195177D01*
X125450430Y-109214692D01*
X125450582Y-109214395D01*
X125454040Y-109216157D01*
X125457583Y-109217595D01*
X125459275Y-109218824D01*
X125459277Y-109218826D01*
X125573445Y-109276998D01*
X125573446Y-109276998D01*
X125573448Y-109276999D01*
X125573447Y-109276999D01*
X125668161Y-109292000D01*
X125668166Y-109292000D01*
X126031833Y-109292000D01*
X126031834Y-109292000D01*
X126058714Y-109287742D01*
X126128004Y-109296695D01*
X126165794Y-109322534D01*
X126248438Y-109405178D01*
X126248447Y-109405185D01*
X126389801Y-109488781D01*
X126547514Y-109534600D01*
X126547511Y-109534600D01*
X126549998Y-109534795D01*
X126550000Y-109534795D01*
X126550000Y-107215203D01*
X126547503Y-107215400D01*
X126389806Y-107261216D01*
X126389803Y-107261217D01*
X126248447Y-107344814D01*
X126248442Y-107344818D01*
X126165795Y-107427465D01*
X126104471Y-107460949D01*
X126058720Y-107462257D01*
X126031837Y-107458000D01*
X126031834Y-107458000D01*
X125668166Y-107458000D01*
X125668161Y-107458000D01*
X125573447Y-107473000D01*
X125497333Y-107511783D01*
X125459277Y-107531174D01*
X125459276Y-107531175D01*
X125459271Y-107531178D01*
X125368678Y-107621771D01*
X125368675Y-107621776D01*
X125310500Y-107735947D01*
X125295500Y-107830660D01*
X125295500Y-107918594D01*
X125275815Y-107985633D01*
X125223011Y-108031388D01*
X125203595Y-108038369D01*
X125155974Y-108051129D01*
X125150690Y-108052300D01*
X125110153Y-108059447D01*
X125105818Y-108061025D01*
X125087271Y-108068706D01*
X125083084Y-108070659D01*
X125049361Y-108094272D01*
X125044800Y-108097177D01*
X125009154Y-108117758D01*
X125009148Y-108117764D01*
X124982680Y-108149305D01*
X124979025Y-108153293D01*
X124708293Y-108424025D01*
X124704305Y-108427680D01*
X124672764Y-108454148D01*
X124672758Y-108454154D01*
X124652177Y-108489800D01*
X124649272Y-108494361D01*
X124625659Y-108528084D01*
X124623706Y-108532271D01*
X124616025Y-108550818D01*
X124614447Y-108555153D01*
X124607300Y-108595689D01*
X124606129Y-108600972D01*
X124595475Y-108640732D01*
X124597368Y-108662363D01*
X124599048Y-108681565D01*
X124599064Y-108681742D01*
X124599300Y-108687149D01*
X124599300Y-110031658D01*
X124579615Y-110098697D01*
X124562981Y-110119339D01*
X124519339Y-110162981D01*
X124458016Y-110196466D01*
X124431658Y-110199300D01*
X124004509Y-110199300D01*
X123937470Y-110179615D01*
X123891715Y-110126811D01*
X123881771Y-110057653D01*
X123886803Y-110036296D01*
X123914505Y-109952697D01*
X123914506Y-109952690D01*
X123924999Y-109849986D01*
X123925000Y-109849973D01*
X123925000Y-109800000D01*
X122950000Y-109800000D01*
X122950000Y-110549999D01*
X123216419Y-110549999D01*
X123283458Y-110569684D01*
X123329213Y-110622488D01*
X123339157Y-110691646D01*
X123336122Y-110706358D01*
X123335989Y-110706850D01*
X123325975Y-110730955D01*
X123324447Y-110735153D01*
X123317300Y-110775689D01*
X123316129Y-110780972D01*
X123305475Y-110820732D01*
X123309064Y-110861742D01*
X123309300Y-110867149D01*
X123309300Y-112462849D01*
X123309064Y-112468252D01*
X123308960Y-112469446D01*
X123305475Y-112509267D01*
X123316129Y-112549028D01*
X123317300Y-112554310D01*
X123324449Y-112594852D01*
X123326033Y-112599204D01*
X123333702Y-112617718D01*
X123335658Y-112621912D01*
X123335659Y-112621914D01*
X123335660Y-112621916D01*
X123359279Y-112655648D01*
X123362176Y-112660196D01*
X123382761Y-112695849D01*
X123414306Y-112722319D01*
X123418289Y-112725969D01*
X123714040Y-113021720D01*
X123717679Y-113025692D01*
X123744151Y-113057239D01*
X123779812Y-113077828D01*
X123784346Y-113080716D01*
X123818083Y-113104340D01*
X123818085Y-113104340D01*
X123822312Y-113106312D01*
X123840768Y-113113957D01*
X123845147Y-113115550D01*
X123845149Y-113115551D01*
X123885708Y-113122701D01*
X123890965Y-113123867D01*
X123930733Y-113134523D01*
X123971741Y-113130935D01*
X123977141Y-113130700D01*
X125141065Y-113130700D01*
X126101065Y-113130700D01*
X128582851Y-113130700D01*
X128588252Y-113130935D01*
X128629267Y-113134524D01*
X128669037Y-113123866D01*
X128674297Y-113122700D01*
X128714851Y-113115551D01*
X128714855Y-113115548D01*
X128719248Y-113113950D01*
X128737662Y-113106322D01*
X128741910Y-113104341D01*
X128741916Y-113104340D01*
X128775642Y-113080723D01*
X128780190Y-113077825D01*
X128815849Y-113057239D01*
X128842329Y-113025680D01*
X128845947Y-113021731D01*
X129321725Y-112545954D01*
X129325697Y-112542314D01*
X129357239Y-112515849D01*
X129377822Y-112480197D01*
X129380723Y-112475644D01*
X129385897Y-112468255D01*
X129404340Y-112441916D01*
X129404341Y-112441910D01*
X129406322Y-112437664D01*
X129413950Y-112419248D01*
X129415548Y-112414855D01*
X129415551Y-112414851D01*
X129422700Y-112374297D01*
X129423866Y-112369037D01*
X129434524Y-112329267D01*
X129430935Y-112288252D01*
X129430700Y-112282849D01*
X129430700Y-111619432D01*
X129450385Y-111552393D01*
X129503189Y-111506638D01*
X129572347Y-111496694D01*
X129635903Y-111525719D01*
X129670881Y-111576098D01*
X129677655Y-111594261D01*
X129677656Y-111594264D01*
X129677658Y-111594267D01*
X129687877Y-111607918D01*
X129764595Y-111710404D01*
X129822443Y-111753707D01*
X129880733Y-111797342D01*
X130016658Y-111848040D01*
X130076745Y-111854500D01*
X130698254Y-111854499D01*
X130758342Y-111848040D01*
X130894267Y-111797342D01*
X131010404Y-111710404D01*
X131097342Y-111594267D01*
X131148040Y-111458342D01*
X131151812Y-111423255D01*
X131154499Y-111398271D01*
X131154499Y-111398264D01*
X131154500Y-111398255D01*
X131154500Y-111398251D01*
X131445500Y-111398251D01*
X131445501Y-111398257D01*
X131451960Y-111458344D01*
X131502655Y-111594261D01*
X131502656Y-111594264D01*
X131502658Y-111594267D01*
X131512877Y-111607918D01*
X131589595Y-111710404D01*
X131647443Y-111753707D01*
X131705733Y-111797342D01*
X131841658Y-111848040D01*
X131901745Y-111854500D01*
X132523254Y-111854499D01*
X132583342Y-111848040D01*
X132719267Y-111797342D01*
X132835404Y-111710404D01*
X132922342Y-111594267D01*
X132973040Y-111458342D01*
X132976812Y-111423255D01*
X132979499Y-111398271D01*
X132979500Y-111398254D01*
X132979500Y-111354700D01*
X132999185Y-111287661D01*
X133051989Y-111241906D01*
X133103500Y-111230700D01*
X133811658Y-111230700D01*
X133878697Y-111250385D01*
X133899339Y-111267019D01*
X134252981Y-111620661D01*
X134286466Y-111681984D01*
X134289300Y-111708342D01*
X134289300Y-113523814D01*
X134269615Y-113590853D01*
X134216811Y-113636608D01*
X134210095Y-113639440D01*
X134125571Y-113672185D01*
X133951536Y-113779944D01*
X133800269Y-113917841D01*
X133676912Y-114081193D01*
X133585673Y-114264424D01*
X133529654Y-114461312D01*
X133510768Y-114665128D01*
X133510768Y-114665129D01*
X133529654Y-114868945D01*
X133529654Y-114868947D01*
X133529655Y-114868950D01*
X133566596Y-114998785D01*
X133585673Y-115065833D01*
X133676912Y-115249064D01*
X133800269Y-115412416D01*
X133951537Y-115550314D01*
X133951539Y-115550316D01*
X134125569Y-115658071D01*
X134125575Y-115658074D01*
X134166010Y-115673738D01*
X134316444Y-115732017D01*
X134517653Y-115769629D01*
X134517656Y-115769629D01*
X134722344Y-115769629D01*
X134722347Y-115769629D01*
X134923556Y-115732017D01*
X135114427Y-115658073D01*
X135288462Y-115550315D01*
X135439732Y-115412414D01*
X135563088Y-115249064D01*
X135648380Y-115077774D01*
X135695883Y-115026537D01*
X135763545Y-115009116D01*
X135829886Y-115031041D01*
X135873841Y-115085353D01*
X135879155Y-115100952D01*
X135886567Y-115128614D01*
X135886570Y-115128621D01*
X135986399Y-115342707D01*
X136121894Y-115536211D01*
X136288917Y-115703234D01*
X136482421Y-115838729D01*
X136696507Y-115938558D01*
X136696516Y-115938562D01*
X136910000Y-115995763D01*
X136910000Y-115100630D01*
X137017685Y-115149809D01*
X137124237Y-115165129D01*
X137195763Y-115165129D01*
X137302315Y-115149809D01*
X137410000Y-115100630D01*
X137410000Y-115995762D01*
X137623483Y-115938562D01*
X137623492Y-115938558D01*
X137837578Y-115838729D01*
X138031082Y-115703234D01*
X138198105Y-115536211D01*
X138333599Y-115342707D01*
X138359117Y-115287984D01*
X138405289Y-115235544D01*
X138472482Y-115216391D01*
X138539364Y-115236606D01*
X138584699Y-115289771D01*
X138595500Y-115340386D01*
X138595500Y-115540192D01*
X138610266Y-115614430D01*
X138666515Y-115698613D01*
X138700234Y-115721143D01*
X138750699Y-115754863D01*
X138750702Y-115754863D01*
X138750703Y-115754864D01*
X138775666Y-115759829D01*
X138824933Y-115769629D01*
X140575066Y-115769628D01*
X140649301Y-115754863D01*
X140733484Y-115698613D01*
X140789734Y-115614430D01*
X140804500Y-115540196D01*
X140804499Y-113790063D01*
X140789734Y-113715828D01*
X140738693Y-113639440D01*
X140733484Y-113631644D01*
X140672435Y-113590853D01*
X140649301Y-113575395D01*
X140649299Y-113575394D01*
X140649296Y-113575393D01*
X140575069Y-113560629D01*
X138824936Y-113560629D01*
X138750698Y-113575395D01*
X138666515Y-113631644D01*
X138610266Y-113715828D01*
X138610264Y-113715832D01*
X138595500Y-113790057D01*
X138595500Y-113989869D01*
X138575815Y-114056908D01*
X138523011Y-114102663D01*
X138453853Y-114112607D01*
X138390297Y-114083582D01*
X138359118Y-114042274D01*
X138333600Y-113987551D01*
X138333599Y-113987549D01*
X138198113Y-113794055D01*
X138198108Y-113794049D01*
X138031082Y-113627023D01*
X137837578Y-113491528D01*
X137623492Y-113391699D01*
X137623486Y-113391696D01*
X137410000Y-113334493D01*
X137410000Y-114229627D01*
X137302315Y-114180449D01*
X137195763Y-114165129D01*
X137124237Y-114165129D01*
X137017685Y-114180449D01*
X136910000Y-114229627D01*
X136910000Y-113334493D01*
X136909999Y-113334493D01*
X136696513Y-113391696D01*
X136696507Y-113391699D01*
X136482422Y-113491528D01*
X136482420Y-113491529D01*
X136288926Y-113627015D01*
X136288920Y-113627020D01*
X136121891Y-113794049D01*
X136121886Y-113794055D01*
X135986400Y-113987549D01*
X135986399Y-113987551D01*
X135886570Y-114201636D01*
X135886564Y-114201651D01*
X135879154Y-114229306D01*
X135842788Y-114288966D01*
X135779941Y-114319494D01*
X135710566Y-114311199D01*
X135656688Y-114266712D01*
X135648380Y-114252483D01*
X135636839Y-114229306D01*
X135563088Y-114081194D01*
X135439732Y-113917844D01*
X135439730Y-113917841D01*
X135288463Y-113779944D01*
X135288462Y-113779943D01*
X135222186Y-113738906D01*
X135114428Y-113672185D01*
X135029905Y-113639440D01*
X134974504Y-113596867D01*
X134950914Y-113531099D01*
X134950700Y-113523814D01*
X134950700Y-111537137D01*
X134950936Y-111531730D01*
X134953132Y-111506638D01*
X134954523Y-111490733D01*
X134943867Y-111450965D01*
X134942701Y-111445708D01*
X134935551Y-111405149D01*
X134935550Y-111405147D01*
X134933957Y-111400768D01*
X134926312Y-111382312D01*
X134924340Y-111378085D01*
X134924340Y-111378083D01*
X134900716Y-111344346D01*
X134897828Y-111339812D01*
X134877239Y-111304151D01*
X134845692Y-111277679D01*
X134841720Y-111274040D01*
X134245969Y-110678289D01*
X134242319Y-110674306D01*
X134215849Y-110642761D01*
X134180196Y-110622176D01*
X134175648Y-110619279D01*
X134141916Y-110595660D01*
X134141914Y-110595659D01*
X134141912Y-110595658D01*
X134137718Y-110593702D01*
X134119204Y-110586033D01*
X134114852Y-110584449D01*
X134074310Y-110577300D01*
X134069028Y-110576129D01*
X134029266Y-110565475D01*
X133997098Y-110568290D01*
X133988251Y-110569064D01*
X133982851Y-110569300D01*
X133103499Y-110569300D01*
X133080341Y-110562500D01*
X138400001Y-110562500D01*
X138400001Y-110624986D01*
X138410494Y-110727697D01*
X138465641Y-110894119D01*
X138465643Y-110894124D01*
X138557684Y-111043345D01*
X138681654Y-111167315D01*
X138830875Y-111259356D01*
X138830880Y-111259358D01*
X138997302Y-111314505D01*
X138997309Y-111314506D01*
X139100019Y-111324999D01*
X139349999Y-111324999D01*
X139350000Y-111324998D01*
X139350000Y-110562500D01*
X139850000Y-110562500D01*
X139850000Y-111324999D01*
X140099972Y-111324999D01*
X140099986Y-111324998D01*
X140202697Y-111314505D01*
X140369119Y-111259358D01*
X140369124Y-111259356D01*
X140518345Y-111167315D01*
X140642315Y-111043345D01*
X140734356Y-110894124D01*
X140734358Y-110894119D01*
X140789505Y-110727697D01*
X140789506Y-110727690D01*
X140799999Y-110624986D01*
X140800000Y-110624973D01*
X140800000Y-110562500D01*
X139850000Y-110562500D01*
X139350000Y-110562500D01*
X138400001Y-110562500D01*
X133080341Y-110562500D01*
X133036460Y-110549615D01*
X132990705Y-110496811D01*
X132979499Y-110445300D01*
X132979499Y-110401748D01*
X132979499Y-110401745D01*
X132973040Y-110341658D01*
X132948681Y-110276350D01*
X132922344Y-110205738D01*
X132922343Y-110205737D01*
X132922342Y-110205733D01*
X132878707Y-110147443D01*
X132835404Y-110089595D01*
X132758007Y-110031658D01*
X132719267Y-110002658D01*
X132583342Y-109951960D01*
X132583338Y-109951959D01*
X132523263Y-109945500D01*
X131901748Y-109945500D01*
X131901742Y-109945501D01*
X131841655Y-109951960D01*
X131705738Y-110002655D01*
X131705730Y-110002660D01*
X131589595Y-110089595D01*
X131502660Y-110205730D01*
X131502658Y-110205733D01*
X131451960Y-110341658D01*
X131451959Y-110341662D01*
X131445500Y-110401728D01*
X131445500Y-111398251D01*
X131154500Y-111398251D01*
X131154499Y-110401746D01*
X131148040Y-110341658D01*
X131123681Y-110276350D01*
X131097344Y-110205738D01*
X131097343Y-110205737D01*
X131097342Y-110205733D01*
X131053707Y-110147443D01*
X131010404Y-110089595D01*
X130933007Y-110031658D01*
X130894267Y-110002658D01*
X130827246Y-109977660D01*
X130824265Y-109976548D01*
X130768332Y-109934676D01*
X130743916Y-109869212D01*
X130743600Y-109860367D01*
X130743600Y-105981099D01*
X130763285Y-105914060D01*
X130816089Y-105868305D01*
X130824241Y-105864927D01*
X130881767Y-105843471D01*
X130911690Y-105821070D01*
X130977154Y-105796654D01*
X131045427Y-105811506D01*
X131094832Y-105860911D01*
X131110000Y-105920338D01*
X131110000Y-109610129D01*
X138333935Y-109610129D01*
X138400974Y-109629814D01*
X138446729Y-109682618D01*
X138456673Y-109751776D01*
X138451641Y-109773133D01*
X138410494Y-109897302D01*
X138410493Y-109897309D01*
X138400000Y-110000013D01*
X138400000Y-110062500D01*
X140799999Y-110062500D01*
X140799999Y-110000028D01*
X140799998Y-110000013D01*
X140789505Y-109897302D01*
X140748360Y-109773133D01*
X140745958Y-109703305D01*
X140781690Y-109643263D01*
X140844210Y-109612070D01*
X140866066Y-109610129D01*
X143767000Y-109610129D01*
X143834039Y-109629814D01*
X143879794Y-109682618D01*
X143891000Y-109734129D01*
X143891000Y-116346056D01*
X143871315Y-116413095D01*
X143818511Y-116458850D01*
X143767633Y-116470054D01*
X129117864Y-116544798D01*
X118112613Y-116544798D01*
X118107745Y-116544607D01*
X117929097Y-116530543D01*
X117909879Y-116527498D01*
X117742761Y-116487373D01*
X117724257Y-116481360D01*
X117565478Y-116415589D01*
X117548141Y-116406756D01*
X117401593Y-116316949D01*
X117385852Y-116305512D01*
X117255163Y-116193893D01*
X117241405Y-116180135D01*
X117129782Y-116049443D01*
X117118348Y-116033706D01*
X117028541Y-115887155D01*
X117019710Y-115869823D01*
X117006830Y-115838729D01*
X116953934Y-115711031D01*
X116947929Y-115692554D01*
X116907797Y-115525401D01*
X116904757Y-115506207D01*
X116890691Y-115327528D01*
X116890500Y-115322661D01*
X116890500Y-114055129D01*
X117774551Y-114055129D01*
X117794317Y-114306280D01*
X117853126Y-114551239D01*
X117949533Y-114783988D01*
X118081160Y-114998782D01*
X118081161Y-114998785D01*
X118136604Y-115063700D01*
X118244776Y-115190353D01*
X118383365Y-115308719D01*
X118436343Y-115353967D01*
X118436346Y-115353968D01*
X118651140Y-115485595D01*
X118807392Y-115550316D01*
X118883889Y-115582002D01*
X119128852Y-115640812D01*
X119284950Y-115653097D01*
X119317116Y-115655629D01*
X119317118Y-115655629D01*
X119442884Y-115655629D01*
X119472518Y-115653296D01*
X119631148Y-115640812D01*
X119876111Y-115582002D01*
X120108859Y-115485595D01*
X120323659Y-115353965D01*
X120515224Y-115190353D01*
X120678836Y-114998788D01*
X120810466Y-114783988D01*
X120859699Y-114665129D01*
X123350768Y-114665129D01*
X123369654Y-114868945D01*
X123369654Y-114868947D01*
X123369655Y-114868950D01*
X123406596Y-114998785D01*
X123425673Y-115065833D01*
X123516912Y-115249064D01*
X123640269Y-115412416D01*
X123791537Y-115550314D01*
X123791539Y-115550316D01*
X123965569Y-115658071D01*
X123965575Y-115658074D01*
X124006010Y-115673738D01*
X124156444Y-115732017D01*
X124357653Y-115769629D01*
X124357656Y-115769629D01*
X124562344Y-115769629D01*
X124562347Y-115769629D01*
X124763556Y-115732017D01*
X124954427Y-115658073D01*
X125128462Y-115550315D01*
X125279732Y-115412414D01*
X125403088Y-115249064D01*
X125494328Y-115065830D01*
X125550345Y-114868950D01*
X125569232Y-114665129D01*
X125890768Y-114665129D01*
X125909654Y-114868945D01*
X125909654Y-114868947D01*
X125909655Y-114868950D01*
X125946596Y-114998785D01*
X125965673Y-115065833D01*
X126056912Y-115249064D01*
X126180269Y-115412416D01*
X126331537Y-115550314D01*
X126331539Y-115550316D01*
X126505569Y-115658071D01*
X126505575Y-115658074D01*
X126546010Y-115673738D01*
X126696444Y-115732017D01*
X126897653Y-115769629D01*
X126897656Y-115769629D01*
X127102344Y-115769629D01*
X127102347Y-115769629D01*
X127303556Y-115732017D01*
X127494427Y-115658073D01*
X127668462Y-115550315D01*
X127819732Y-115412414D01*
X127943088Y-115249064D01*
X128034328Y-115065830D01*
X128090345Y-114868950D01*
X128109232Y-114665129D01*
X128430768Y-114665129D01*
X128449654Y-114868945D01*
X128449654Y-114868947D01*
X128449655Y-114868950D01*
X128486596Y-114998785D01*
X128505673Y-115065833D01*
X128596912Y-115249064D01*
X128720269Y-115412416D01*
X128871537Y-115550314D01*
X128871539Y-115550316D01*
X129045569Y-115658071D01*
X129045575Y-115658074D01*
X129086010Y-115673738D01*
X129236444Y-115732017D01*
X129437653Y-115769629D01*
X129437656Y-115769629D01*
X129642344Y-115769629D01*
X129642347Y-115769629D01*
X129843556Y-115732017D01*
X130034427Y-115658073D01*
X130208462Y-115550315D01*
X130359732Y-115412414D01*
X130483088Y-115249064D01*
X130574328Y-115065830D01*
X130630345Y-114868950D01*
X130649232Y-114665129D01*
X130970768Y-114665129D01*
X130989654Y-114868945D01*
X130989654Y-114868947D01*
X130989655Y-114868950D01*
X131026596Y-114998785D01*
X131045673Y-115065833D01*
X131136912Y-115249064D01*
X131260269Y-115412416D01*
X131411537Y-115550314D01*
X131411539Y-115550316D01*
X131585569Y-115658071D01*
X131585575Y-115658074D01*
X131626010Y-115673738D01*
X131776444Y-115732017D01*
X131977653Y-115769629D01*
X131977656Y-115769629D01*
X132182344Y-115769629D01*
X132182347Y-115769629D01*
X132383556Y-115732017D01*
X132574427Y-115658073D01*
X132748462Y-115550315D01*
X132899732Y-115412414D01*
X133023088Y-115249064D01*
X133114328Y-115065830D01*
X133170345Y-114868950D01*
X133189232Y-114665129D01*
X133170345Y-114461308D01*
X133114328Y-114264428D01*
X133023088Y-114081194D01*
X132899732Y-113917844D01*
X132899730Y-113917841D01*
X132748462Y-113779943D01*
X132748460Y-113779941D01*
X132574430Y-113672186D01*
X132574424Y-113672183D01*
X132410698Y-113608756D01*
X132383556Y-113598241D01*
X132182347Y-113560629D01*
X131977653Y-113560629D01*
X131776444Y-113598241D01*
X131776441Y-113598241D01*
X131776441Y-113598242D01*
X131585575Y-113672183D01*
X131585569Y-113672186D01*
X131411539Y-113779941D01*
X131411537Y-113779943D01*
X131260269Y-113917841D01*
X131136912Y-114081193D01*
X131045673Y-114264424D01*
X130989654Y-114461312D01*
X130970768Y-114665128D01*
X130970768Y-114665129D01*
X130649232Y-114665129D01*
X130630345Y-114461308D01*
X130574328Y-114264428D01*
X130483088Y-114081194D01*
X130359732Y-113917844D01*
X130359730Y-113917841D01*
X130208462Y-113779943D01*
X130208460Y-113779941D01*
X130034430Y-113672186D01*
X130034424Y-113672183D01*
X129870698Y-113608756D01*
X129843556Y-113598241D01*
X129642347Y-113560629D01*
X129437653Y-113560629D01*
X129236444Y-113598241D01*
X129236441Y-113598241D01*
X129236441Y-113598242D01*
X129045575Y-113672183D01*
X129045569Y-113672186D01*
X128871539Y-113779941D01*
X128871537Y-113779943D01*
X128720269Y-113917841D01*
X128596912Y-114081193D01*
X128505673Y-114264424D01*
X128449654Y-114461312D01*
X128430768Y-114665128D01*
X128430768Y-114665129D01*
X128109232Y-114665129D01*
X128090345Y-114461308D01*
X128034328Y-114264428D01*
X127943088Y-114081194D01*
X127819732Y-113917844D01*
X127819730Y-113917841D01*
X127668462Y-113779943D01*
X127668460Y-113779941D01*
X127494430Y-113672186D01*
X127494424Y-113672183D01*
X127330698Y-113608756D01*
X127303556Y-113598241D01*
X127102347Y-113560629D01*
X126897653Y-113560629D01*
X126696444Y-113598241D01*
X126696441Y-113598241D01*
X126696441Y-113598242D01*
X126505575Y-113672183D01*
X126505569Y-113672186D01*
X126331539Y-113779941D01*
X126331537Y-113779943D01*
X126180269Y-113917841D01*
X126056912Y-114081193D01*
X125965673Y-114264424D01*
X125909654Y-114461312D01*
X125890768Y-114665128D01*
X125890768Y-114665129D01*
X125569232Y-114665129D01*
X125550345Y-114461308D01*
X125494328Y-114264428D01*
X125403088Y-114081194D01*
X125279732Y-113917844D01*
X125279730Y-113917841D01*
X125128462Y-113779943D01*
X125128460Y-113779941D01*
X124954430Y-113672186D01*
X124954424Y-113672183D01*
X124790698Y-113608756D01*
X124763556Y-113598241D01*
X124562347Y-113560629D01*
X124357653Y-113560629D01*
X124156444Y-113598241D01*
X124156441Y-113598241D01*
X124156441Y-113598242D01*
X123965575Y-113672183D01*
X123965569Y-113672186D01*
X123791539Y-113779941D01*
X123791537Y-113779943D01*
X123640269Y-113917841D01*
X123516912Y-114081193D01*
X123425673Y-114264424D01*
X123369654Y-114461312D01*
X123350768Y-114665128D01*
X123350768Y-114665129D01*
X120859699Y-114665129D01*
X120906873Y-114551240D01*
X120965683Y-114306277D01*
X120985449Y-114055129D01*
X120965683Y-113803981D01*
X120906873Y-113559018D01*
X120878918Y-113491528D01*
X120810466Y-113326269D01*
X120678839Y-113111475D01*
X120678838Y-113111472D01*
X120632517Y-113057238D01*
X120515224Y-112919905D01*
X120388571Y-112811733D01*
X120323656Y-112756290D01*
X120323653Y-112756289D01*
X120108859Y-112624662D01*
X119876110Y-112528255D01*
X119631150Y-112469446D01*
X119442884Y-112454629D01*
X119442882Y-112454629D01*
X119317118Y-112454629D01*
X119317116Y-112454629D01*
X119128849Y-112469446D01*
X118883889Y-112528255D01*
X118651140Y-112624662D01*
X118436346Y-112756289D01*
X118436343Y-112756290D01*
X118244776Y-112919905D01*
X118081161Y-113111472D01*
X118081160Y-113111475D01*
X117949533Y-113326269D01*
X117853126Y-113559018D01*
X117794317Y-113803977D01*
X117774551Y-114055129D01*
X116890500Y-114055129D01*
X116890500Y-109800000D01*
X118375001Y-109800000D01*
X118375001Y-109849986D01*
X118385494Y-109952697D01*
X118440641Y-110119119D01*
X118440643Y-110119124D01*
X118532684Y-110268345D01*
X118656654Y-110392315D01*
X118805875Y-110484356D01*
X118805880Y-110484358D01*
X118972302Y-110539505D01*
X118972309Y-110539506D01*
X119075019Y-110549999D01*
X119349999Y-110549999D01*
X119350000Y-110549998D01*
X119350000Y-109800000D01*
X119850000Y-109800000D01*
X119850000Y-110549999D01*
X120124972Y-110549999D01*
X120124986Y-110549998D01*
X120227697Y-110539505D01*
X120394119Y-110484358D01*
X120394124Y-110484356D01*
X120543345Y-110392315D01*
X120667315Y-110268345D01*
X120759356Y-110119124D01*
X120759358Y-110119119D01*
X120814505Y-109952697D01*
X120814506Y-109952690D01*
X120824999Y-109849986D01*
X120825000Y-109849973D01*
X120825000Y-109800000D01*
X121475001Y-109800000D01*
X121475001Y-109849986D01*
X121485494Y-109952697D01*
X121540641Y-110119119D01*
X121540643Y-110119124D01*
X121632684Y-110268345D01*
X121756654Y-110392315D01*
X121905875Y-110484356D01*
X121905880Y-110484358D01*
X122072302Y-110539505D01*
X122072309Y-110539506D01*
X122175019Y-110549999D01*
X122449999Y-110549999D01*
X122450000Y-110549998D01*
X122450000Y-109800000D01*
X121475001Y-109800000D01*
X120825000Y-109800000D01*
X119850000Y-109800000D01*
X119350000Y-109800000D01*
X118375001Y-109800000D01*
X116890500Y-109800000D01*
X116890500Y-102300000D01*
X118375000Y-102300000D01*
X119350000Y-102300000D01*
X119350000Y-101550000D01*
X119850000Y-101550000D01*
X119850000Y-102300000D01*
X120824999Y-102300000D01*
X121475000Y-102300000D01*
X122450000Y-102300000D01*
X122450000Y-101550000D01*
X122175029Y-101550000D01*
X122175012Y-101550001D01*
X122072302Y-101560494D01*
X121905880Y-101615641D01*
X121905875Y-101615643D01*
X121756654Y-101707684D01*
X121632684Y-101831654D01*
X121540643Y-101980875D01*
X121540641Y-101980880D01*
X121485494Y-102147302D01*
X121485493Y-102147309D01*
X121475000Y-102250013D01*
X121475000Y-102300000D01*
X120824999Y-102300000D01*
X120824999Y-102250028D01*
X120824998Y-102250013D01*
X120814505Y-102147302D01*
X120759358Y-101980880D01*
X120759356Y-101980875D01*
X120667315Y-101831654D01*
X120543345Y-101707684D01*
X120394124Y-101615643D01*
X120394119Y-101615641D01*
X120227697Y-101560494D01*
X120227690Y-101560493D01*
X120124986Y-101550000D01*
X119850000Y-101550000D01*
X119350000Y-101550000D01*
X119075029Y-101550000D01*
X119075012Y-101550001D01*
X118972302Y-101560494D01*
X118805880Y-101615641D01*
X118805875Y-101615643D01*
X118656654Y-101707684D01*
X118532684Y-101831654D01*
X118440643Y-101980875D01*
X118440641Y-101980880D01*
X118385494Y-102147302D01*
X118385493Y-102147309D01*
X118375000Y-102250013D01*
X118375000Y-102300000D01*
X116890500Y-102300000D01*
X116890500Y-97955815D01*
X118300000Y-97955815D01*
X118310407Y-98057673D01*
X118365094Y-98222709D01*
X118365096Y-98222714D01*
X118456370Y-98370691D01*
X118579308Y-98493629D01*
X118727285Y-98584903D01*
X118727292Y-98584906D01*
X118811900Y-98612942D01*
X118869345Y-98652714D01*
X118896169Y-98717230D01*
X118883854Y-98786006D01*
X118836312Y-98837206D01*
X118816235Y-98846828D01*
X118802514Y-98851945D01*
X118802508Y-98851949D01*
X118687811Y-98937811D01*
X118601949Y-99052508D01*
X118601947Y-99052511D01*
X118551881Y-99186744D01*
X118551880Y-99186748D01*
X118551880Y-99186750D01*
X118545500Y-99246091D01*
X118545500Y-99246098D01*
X118545500Y-99246099D01*
X118545500Y-99828906D01*
X118545501Y-99828912D01*
X118551879Y-99888250D01*
X118601947Y-100022488D01*
X118601949Y-100022491D01*
X118687811Y-100137189D01*
X118801562Y-100222342D01*
X118802508Y-100223050D01*
X118802511Y-100223052D01*
X118936745Y-100273118D01*
X118936744Y-100273118D01*
X118936750Y-100273120D01*
X118996091Y-100279500D01*
X120003908Y-100279499D01*
X120063250Y-100273120D01*
X120197491Y-100223051D01*
X120312189Y-100137189D01*
X120398051Y-100022491D01*
X120436257Y-99920057D01*
X120449015Y-99885851D01*
X120490886Y-99829917D01*
X120505906Y-99821793D01*
X120505440Y-99820985D01*
X120513489Y-99816336D01*
X120537662Y-99806322D01*
X120541910Y-99804341D01*
X120541916Y-99804340D01*
X120575642Y-99780723D01*
X120580190Y-99777825D01*
X120615849Y-99757239D01*
X120642319Y-99725691D01*
X120645959Y-99721719D01*
X121937188Y-98430490D01*
X121998509Y-98397007D01*
X122068196Y-98401990D01*
X122191658Y-98448040D01*
X122251745Y-98454500D01*
X123248254Y-98454499D01*
X123308342Y-98448040D01*
X123444267Y-98397342D01*
X123560404Y-98310404D01*
X123647342Y-98194267D01*
X123698040Y-98058342D01*
X123701255Y-98028440D01*
X123704499Y-97998271D01*
X123704499Y-97998264D01*
X123704500Y-97998255D01*
X123704499Y-97376746D01*
X123698040Y-97316658D01*
X123647342Y-97180733D01*
X123603707Y-97122443D01*
X123560404Y-97064595D01*
X123533960Y-97044800D01*
X127411487Y-97044800D01*
X128441000Y-97044800D01*
X128441000Y-96794800D01*
X128841000Y-96794800D01*
X128841000Y-97044800D01*
X129870510Y-97044800D01*
X129870511Y-97044798D01*
X129863058Y-96988177D01*
X129863055Y-96988168D01*
X129854392Y-96967253D01*
X129846923Y-96897783D01*
X129854392Y-96872346D01*
X129863056Y-96851429D01*
X129870512Y-96794800D01*
X128841000Y-96794800D01*
X128441000Y-96794800D01*
X127411490Y-96794800D01*
X127411488Y-96794801D01*
X127418942Y-96851427D01*
X127418943Y-96851429D01*
X127427608Y-96872349D01*
X127435076Y-96941818D01*
X127427609Y-96967249D01*
X127418943Y-96988170D01*
X127411487Y-97044800D01*
X123533960Y-97044800D01*
X123483126Y-97006747D01*
X123444267Y-96977658D01*
X123308342Y-96926960D01*
X123308338Y-96926959D01*
X123248262Y-96920500D01*
X122251748Y-96920500D01*
X122251742Y-96920501D01*
X122191655Y-96926960D01*
X122055738Y-96977655D01*
X122055730Y-96977660D01*
X121939595Y-97064595D01*
X121852660Y-97180730D01*
X121852658Y-97180733D01*
X121801960Y-97316658D01*
X121801959Y-97316662D01*
X121795500Y-97376728D01*
X121795500Y-97585457D01*
X121775815Y-97652496D01*
X121759181Y-97673138D01*
X120491029Y-98941289D01*
X120429706Y-98974774D01*
X120360014Y-98969790D01*
X120315667Y-98941289D01*
X120312191Y-98937813D01*
X120312189Y-98937812D01*
X120312189Y-98937811D01*
X120197491Y-98851949D01*
X120197487Y-98851947D01*
X120183766Y-98846829D01*
X120127833Y-98804956D01*
X120103418Y-98739492D01*
X120118271Y-98671219D01*
X120167677Y-98621815D01*
X120188099Y-98612942D01*
X120272707Y-98584906D01*
X120272714Y-98584903D01*
X120420691Y-98493629D01*
X120543629Y-98370691D01*
X120634903Y-98222714D01*
X120634905Y-98222709D01*
X120689592Y-98057673D01*
X120699999Y-97955815D01*
X120700000Y-97955802D01*
X120700000Y-97912500D01*
X118300000Y-97912500D01*
X118300000Y-97955815D01*
X116890500Y-97955815D01*
X116890500Y-97412500D01*
X118300000Y-97412500D01*
X119250000Y-97412500D01*
X119250000Y-96675000D01*
X119750000Y-96675000D01*
X119750000Y-97412500D01*
X120700000Y-97412500D01*
X120700000Y-97369197D01*
X120699999Y-97369184D01*
X120689592Y-97267326D01*
X120634905Y-97102290D01*
X120634903Y-97102285D01*
X120543629Y-96954308D01*
X120420691Y-96831370D01*
X120272714Y-96740096D01*
X120272709Y-96740094D01*
X120107673Y-96685407D01*
X120005815Y-96675000D01*
X119750000Y-96675000D01*
X119250000Y-96675000D01*
X118994184Y-96675000D01*
X118892326Y-96685407D01*
X118727290Y-96740094D01*
X118727285Y-96740096D01*
X118579308Y-96831370D01*
X118456370Y-96954308D01*
X118365096Y-97102285D01*
X118365094Y-97102290D01*
X118310407Y-97267326D01*
X118300000Y-97369184D01*
X118300000Y-97412500D01*
X116890500Y-97412500D01*
X116890500Y-96394800D01*
X127411487Y-96394800D01*
X128441000Y-96394800D01*
X128441000Y-95894800D01*
X128841000Y-95894800D01*
X128841000Y-96394800D01*
X129870510Y-96394800D01*
X129870511Y-96394798D01*
X129863057Y-96338172D01*
X129863055Y-96338166D01*
X129802600Y-96192214D01*
X129706424Y-96066875D01*
X129581086Y-95970699D01*
X129435134Y-95910245D01*
X129435130Y-95910244D01*
X129317830Y-95894800D01*
X128841000Y-95894800D01*
X128441000Y-95894800D01*
X127964175Y-95894800D01*
X127846871Y-95910242D01*
X127846866Y-95910244D01*
X127700914Y-95970699D01*
X127575575Y-96066875D01*
X127479399Y-96192213D01*
X127418944Y-96338168D01*
X127411487Y-96394800D01*
X116890500Y-96394800D01*
X116890500Y-93735129D01*
X117774551Y-93735129D01*
X117794317Y-93986280D01*
X117853126Y-94231239D01*
X117949533Y-94463988D01*
X118081160Y-94678782D01*
X118081161Y-94678785D01*
X118081164Y-94678788D01*
X118244776Y-94870353D01*
X118393066Y-94997004D01*
X118436343Y-95033967D01*
X118436346Y-95033968D01*
X118651140Y-95165595D01*
X118883889Y-95262002D01*
X119128852Y-95320812D01*
X119284950Y-95333097D01*
X119317116Y-95335629D01*
X119317118Y-95335629D01*
X119442884Y-95335629D01*
X119472518Y-95333296D01*
X119631148Y-95320812D01*
X119876111Y-95262002D01*
X120108859Y-95165595D01*
X120323659Y-95033965D01*
X120515224Y-94870353D01*
X120678836Y-94678788D01*
X120810466Y-94463988D01*
X120906873Y-94231240D01*
X120965683Y-93986277D01*
X120985449Y-93735129D01*
X120965683Y-93483981D01*
X120906873Y-93239018D01*
X120810466Y-93006270D01*
X120810466Y-93006269D01*
X120678839Y-92791475D01*
X120678838Y-92791472D01*
X120641875Y-92748195D01*
X120515224Y-92599905D01*
X120388571Y-92491733D01*
X120323656Y-92436290D01*
X120323653Y-92436289D01*
X120108859Y-92304662D01*
X119876110Y-92208255D01*
X119631150Y-92149446D01*
X119442884Y-92134629D01*
X119442882Y-92134629D01*
X119317118Y-92134629D01*
X119317116Y-92134629D01*
X119128849Y-92149446D01*
X118883889Y-92208255D01*
X118651140Y-92304662D01*
X118436346Y-92436289D01*
X118436343Y-92436290D01*
X118244776Y-92599905D01*
X118081161Y-92791472D01*
X118081160Y-92791475D01*
X117949533Y-93006269D01*
X117853126Y-93239018D01*
X117794317Y-93483977D01*
X117774551Y-93735129D01*
X116890500Y-93735129D01*
X116890500Y-92340561D01*
X116890690Y-92335709D01*
X116904759Y-92157053D01*
X116907800Y-92137857D01*
X116947935Y-91970707D01*
X116953939Y-91952228D01*
X117019725Y-91793415D01*
X117028547Y-91776103D01*
X117118362Y-91629538D01*
X117129791Y-91613809D01*
X117241413Y-91483113D01*
X117255170Y-91469355D01*
X117385865Y-91357724D01*
X117401604Y-91346288D01*
X117426913Y-91330777D01*
X117548147Y-91256476D01*
X117565469Y-91247649D01*
X117724260Y-91181863D01*
X117742763Y-91175851D01*
X117909889Y-91135713D01*
X117929101Y-91132667D01*
X118003520Y-91126803D01*
X118106982Y-91118652D01*
X118111854Y-91118460D01*
X130986000Y-91118460D01*
X131053039Y-91138145D01*
G37*
G04 #@! TD.AperFunction*
M02*
