%TF.GenerationSoftware,KiCad,Pcbnew,7.0.9*%
%TF.CreationDate,2023-11-22T10:43:11-08:00*%
%TF.ProjectId,PCM510xA_I2S_DAC,50434d35-3130-4784-915f-4932535f4441,1.0.1*%
%TF.SameCoordinates,Original*%
%TF.FileFunction,Drillmap*%
%TF.FilePolarity,Positive*%
%FSLAX45Y45*%
G04 Gerber Fmt 4.5, Leading zero omitted, Abs format (unit mm)*
G04 Created by KiCad (PCBNEW 7.0.9) date 2023-11-22 10:43:11*
%MOMM*%
%LPD*%
G01*
G04 APERTURE LIST*
%ADD10C,0.100000*%
%ADD11C,0.200000*%
%ADD12C,0.170000*%
%ADD13C,0.270000*%
G04 APERTURE END LIST*
D10*
X15748000Y-11532513D02*
X15748000Y-9233813D01*
X11684000Y-11532513D02*
G75*
G03*
X11811017Y-11659530I127020J3D01*
G01*
X11684000Y-9233813D02*
X11684000Y-11532513D01*
X15620983Y-11659530D02*
G75*
G03*
X15748000Y-11532513I7J127010D01*
G01*
X15748004Y-9233813D02*
G75*
G03*
X15620983Y-9106796I-127024J-7D01*
G01*
X15620983Y-9106796D02*
X11811000Y-9106796D01*
X15620983Y-11659530D02*
X11811000Y-11659530D01*
X11811017Y-9106790D02*
G75*
G03*
X11684000Y-9233813I13J-127030D01*
G01*
D11*
D12*
X14608500Y-10304513D02*
X14778500Y-10474513D01*
X14778500Y-10304513D02*
X14608500Y-10474513D01*
X15308500Y-10304513D02*
X15478500Y-10474513D01*
X15478500Y-10304513D02*
X15308500Y-10474513D01*
D13*
X12073000Y-9373513D02*
G75*
G03*
X12073000Y-9373513I-135000J0D01*
G01*
X12073000Y-11405513D02*
G75*
G03*
X12073000Y-11405513I-135000J0D01*
G01*
X15616300Y-9373513D02*
G75*
G03*
X15616300Y-9373513I-135000J0D01*
G01*
X15616300Y-11405513D02*
G75*
G03*
X15616300Y-11405513I-135000J0D01*
G01*
D11*
X11939777Y-11976014D02*
X11939777Y-11776014D01*
X11939777Y-11776014D02*
X11987396Y-11776014D01*
X11987396Y-11776014D02*
X12015967Y-11785538D01*
X12015967Y-11785538D02*
X12035015Y-11804585D01*
X12035015Y-11804585D02*
X12044539Y-11823633D01*
X12044539Y-11823633D02*
X12054062Y-11861728D01*
X12054062Y-11861728D02*
X12054062Y-11890299D01*
X12054062Y-11890299D02*
X12044539Y-11928395D01*
X12044539Y-11928395D02*
X12035015Y-11947442D01*
X12035015Y-11947442D02*
X12015967Y-11966490D01*
X12015967Y-11966490D02*
X11987396Y-11976014D01*
X11987396Y-11976014D02*
X11939777Y-11976014D01*
X12139777Y-11976014D02*
X12139777Y-11842680D01*
X12139777Y-11880776D02*
X12149301Y-11861728D01*
X12149301Y-11861728D02*
X12158824Y-11852204D01*
X12158824Y-11852204D02*
X12177872Y-11842680D01*
X12177872Y-11842680D02*
X12196920Y-11842680D01*
X12263586Y-11976014D02*
X12263586Y-11842680D01*
X12263586Y-11776014D02*
X12254062Y-11785538D01*
X12254062Y-11785538D02*
X12263586Y-11795061D01*
X12263586Y-11795061D02*
X12273110Y-11785538D01*
X12273110Y-11785538D02*
X12263586Y-11776014D01*
X12263586Y-11776014D02*
X12263586Y-11795061D01*
X12387396Y-11976014D02*
X12368348Y-11966490D01*
X12368348Y-11966490D02*
X12358824Y-11947442D01*
X12358824Y-11947442D02*
X12358824Y-11776014D01*
X12492158Y-11976014D02*
X12473110Y-11966490D01*
X12473110Y-11966490D02*
X12463586Y-11947442D01*
X12463586Y-11947442D02*
X12463586Y-11776014D01*
X12720729Y-11976014D02*
X12720729Y-11776014D01*
X12720729Y-11776014D02*
X12787396Y-11918871D01*
X12787396Y-11918871D02*
X12854062Y-11776014D01*
X12854062Y-11776014D02*
X12854062Y-11976014D01*
X13035015Y-11976014D02*
X13035015Y-11871252D01*
X13035015Y-11871252D02*
X13025491Y-11852204D01*
X13025491Y-11852204D02*
X13006443Y-11842680D01*
X13006443Y-11842680D02*
X12968348Y-11842680D01*
X12968348Y-11842680D02*
X12949301Y-11852204D01*
X13035015Y-11966490D02*
X13015967Y-11976014D01*
X13015967Y-11976014D02*
X12968348Y-11976014D01*
X12968348Y-11976014D02*
X12949301Y-11966490D01*
X12949301Y-11966490D02*
X12939777Y-11947442D01*
X12939777Y-11947442D02*
X12939777Y-11928395D01*
X12939777Y-11928395D02*
X12949301Y-11909347D01*
X12949301Y-11909347D02*
X12968348Y-11899823D01*
X12968348Y-11899823D02*
X13015967Y-11899823D01*
X13015967Y-11899823D02*
X13035015Y-11890299D01*
X13130253Y-11842680D02*
X13130253Y-12042680D01*
X13130253Y-11852204D02*
X13149301Y-11842680D01*
X13149301Y-11842680D02*
X13187396Y-11842680D01*
X13187396Y-11842680D02*
X13206443Y-11852204D01*
X13206443Y-11852204D02*
X13215967Y-11861728D01*
X13215967Y-11861728D02*
X13225491Y-11880776D01*
X13225491Y-11880776D02*
X13225491Y-11937918D01*
X13225491Y-11937918D02*
X13215967Y-11956966D01*
X13215967Y-11956966D02*
X13206443Y-11966490D01*
X13206443Y-11966490D02*
X13187396Y-11976014D01*
X13187396Y-11976014D02*
X13149301Y-11976014D01*
X13149301Y-11976014D02*
X13130253Y-11966490D01*
X13311205Y-11956966D02*
X13320729Y-11966490D01*
X13320729Y-11966490D02*
X13311205Y-11976014D01*
X13311205Y-11976014D02*
X13301682Y-11966490D01*
X13301682Y-11966490D02*
X13311205Y-11956966D01*
X13311205Y-11956966D02*
X13311205Y-11976014D01*
X13311205Y-11852204D02*
X13320729Y-11861728D01*
X13320729Y-11861728D02*
X13311205Y-11871252D01*
X13311205Y-11871252D02*
X13301682Y-11861728D01*
X13301682Y-11861728D02*
X13311205Y-11852204D01*
X13311205Y-11852204D02*
X13311205Y-11871252D01*
D12*
X11509000Y-12219530D02*
X11679000Y-12389530D01*
X11679000Y-12219530D02*
X11509000Y-12389530D01*
D11*
X12044539Y-12396014D02*
X11930253Y-12396014D01*
X11987396Y-12396014D02*
X11987396Y-12196014D01*
X11987396Y-12196014D02*
X11968348Y-12224585D01*
X11968348Y-12224585D02*
X11949301Y-12243633D01*
X11949301Y-12243633D02*
X11930253Y-12253157D01*
X12130253Y-12376966D02*
X12139777Y-12386490D01*
X12139777Y-12386490D02*
X12130253Y-12396014D01*
X12130253Y-12396014D02*
X12120729Y-12386490D01*
X12120729Y-12386490D02*
X12130253Y-12376966D01*
X12130253Y-12376966D02*
X12130253Y-12396014D01*
X12206443Y-12196014D02*
X12339777Y-12196014D01*
X12339777Y-12196014D02*
X12254062Y-12396014D01*
X12454062Y-12196014D02*
X12473110Y-12196014D01*
X12473110Y-12196014D02*
X12492158Y-12205538D01*
X12492158Y-12205538D02*
X12501682Y-12215061D01*
X12501682Y-12215061D02*
X12511205Y-12234109D01*
X12511205Y-12234109D02*
X12520729Y-12272204D01*
X12520729Y-12272204D02*
X12520729Y-12319823D01*
X12520729Y-12319823D02*
X12511205Y-12357918D01*
X12511205Y-12357918D02*
X12501682Y-12376966D01*
X12501682Y-12376966D02*
X12492158Y-12386490D01*
X12492158Y-12386490D02*
X12473110Y-12396014D01*
X12473110Y-12396014D02*
X12454062Y-12396014D01*
X12454062Y-12396014D02*
X12435015Y-12386490D01*
X12435015Y-12386490D02*
X12425491Y-12376966D01*
X12425491Y-12376966D02*
X12415967Y-12357918D01*
X12415967Y-12357918D02*
X12406443Y-12319823D01*
X12406443Y-12319823D02*
X12406443Y-12272204D01*
X12406443Y-12272204D02*
X12415967Y-12234109D01*
X12415967Y-12234109D02*
X12425491Y-12215061D01*
X12425491Y-12215061D02*
X12435015Y-12205538D01*
X12435015Y-12205538D02*
X12454062Y-12196014D01*
X12644539Y-12196014D02*
X12663586Y-12196014D01*
X12663586Y-12196014D02*
X12682634Y-12205538D01*
X12682634Y-12205538D02*
X12692158Y-12215061D01*
X12692158Y-12215061D02*
X12701682Y-12234109D01*
X12701682Y-12234109D02*
X12711205Y-12272204D01*
X12711205Y-12272204D02*
X12711205Y-12319823D01*
X12711205Y-12319823D02*
X12701682Y-12357918D01*
X12701682Y-12357918D02*
X12692158Y-12376966D01*
X12692158Y-12376966D02*
X12682634Y-12386490D01*
X12682634Y-12386490D02*
X12663586Y-12396014D01*
X12663586Y-12396014D02*
X12644539Y-12396014D01*
X12644539Y-12396014D02*
X12625491Y-12386490D01*
X12625491Y-12386490D02*
X12615967Y-12376966D01*
X12615967Y-12376966D02*
X12606443Y-12357918D01*
X12606443Y-12357918D02*
X12596920Y-12319823D01*
X12596920Y-12319823D02*
X12596920Y-12272204D01*
X12596920Y-12272204D02*
X12606443Y-12234109D01*
X12606443Y-12234109D02*
X12615967Y-12215061D01*
X12615967Y-12215061D02*
X12625491Y-12205538D01*
X12625491Y-12205538D02*
X12644539Y-12196014D01*
X12796920Y-12396014D02*
X12796920Y-12262680D01*
X12796920Y-12281728D02*
X12806443Y-12272204D01*
X12806443Y-12272204D02*
X12825491Y-12262680D01*
X12825491Y-12262680D02*
X12854063Y-12262680D01*
X12854063Y-12262680D02*
X12873110Y-12272204D01*
X12873110Y-12272204D02*
X12882634Y-12291252D01*
X12882634Y-12291252D02*
X12882634Y-12396014D01*
X12882634Y-12291252D02*
X12892158Y-12272204D01*
X12892158Y-12272204D02*
X12911205Y-12262680D01*
X12911205Y-12262680D02*
X12939777Y-12262680D01*
X12939777Y-12262680D02*
X12958824Y-12272204D01*
X12958824Y-12272204D02*
X12968348Y-12291252D01*
X12968348Y-12291252D02*
X12968348Y-12396014D01*
X13063586Y-12396014D02*
X13063586Y-12262680D01*
X13063586Y-12281728D02*
X13073110Y-12272204D01*
X13073110Y-12272204D02*
X13092158Y-12262680D01*
X13092158Y-12262680D02*
X13120729Y-12262680D01*
X13120729Y-12262680D02*
X13139777Y-12272204D01*
X13139777Y-12272204D02*
X13149301Y-12291252D01*
X13149301Y-12291252D02*
X13149301Y-12396014D01*
X13149301Y-12291252D02*
X13158824Y-12272204D01*
X13158824Y-12272204D02*
X13177872Y-12262680D01*
X13177872Y-12262680D02*
X13206443Y-12262680D01*
X13206443Y-12262680D02*
X13225491Y-12272204D01*
X13225491Y-12272204D02*
X13235015Y-12291252D01*
X13235015Y-12291252D02*
X13235015Y-12396014D01*
X13625491Y-12186490D02*
X13454063Y-12443633D01*
X13882634Y-12196014D02*
X13901682Y-12196014D01*
X13901682Y-12196014D02*
X13920729Y-12205538D01*
X13920729Y-12205538D02*
X13930253Y-12215061D01*
X13930253Y-12215061D02*
X13939777Y-12234109D01*
X13939777Y-12234109D02*
X13949301Y-12272204D01*
X13949301Y-12272204D02*
X13949301Y-12319823D01*
X13949301Y-12319823D02*
X13939777Y-12357918D01*
X13939777Y-12357918D02*
X13930253Y-12376966D01*
X13930253Y-12376966D02*
X13920729Y-12386490D01*
X13920729Y-12386490D02*
X13901682Y-12396014D01*
X13901682Y-12396014D02*
X13882634Y-12396014D01*
X13882634Y-12396014D02*
X13863586Y-12386490D01*
X13863586Y-12386490D02*
X13854063Y-12376966D01*
X13854063Y-12376966D02*
X13844539Y-12357918D01*
X13844539Y-12357918D02*
X13835015Y-12319823D01*
X13835015Y-12319823D02*
X13835015Y-12272204D01*
X13835015Y-12272204D02*
X13844539Y-12234109D01*
X13844539Y-12234109D02*
X13854063Y-12215061D01*
X13854063Y-12215061D02*
X13863586Y-12205538D01*
X13863586Y-12205538D02*
X13882634Y-12196014D01*
X14035015Y-12376966D02*
X14044539Y-12386490D01*
X14044539Y-12386490D02*
X14035015Y-12396014D01*
X14035015Y-12396014D02*
X14025491Y-12386490D01*
X14025491Y-12386490D02*
X14035015Y-12376966D01*
X14035015Y-12376966D02*
X14035015Y-12396014D01*
X14168348Y-12196014D02*
X14187396Y-12196014D01*
X14187396Y-12196014D02*
X14206444Y-12205538D01*
X14206444Y-12205538D02*
X14215967Y-12215061D01*
X14215967Y-12215061D02*
X14225491Y-12234109D01*
X14225491Y-12234109D02*
X14235015Y-12272204D01*
X14235015Y-12272204D02*
X14235015Y-12319823D01*
X14235015Y-12319823D02*
X14225491Y-12357918D01*
X14225491Y-12357918D02*
X14215967Y-12376966D01*
X14215967Y-12376966D02*
X14206444Y-12386490D01*
X14206444Y-12386490D02*
X14187396Y-12396014D01*
X14187396Y-12396014D02*
X14168348Y-12396014D01*
X14168348Y-12396014D02*
X14149301Y-12386490D01*
X14149301Y-12386490D02*
X14139777Y-12376966D01*
X14139777Y-12376966D02*
X14130253Y-12357918D01*
X14130253Y-12357918D02*
X14120729Y-12319823D01*
X14120729Y-12319823D02*
X14120729Y-12272204D01*
X14120729Y-12272204D02*
X14130253Y-12234109D01*
X14130253Y-12234109D02*
X14139777Y-12215061D01*
X14139777Y-12215061D02*
X14149301Y-12205538D01*
X14149301Y-12205538D02*
X14168348Y-12196014D01*
X14406444Y-12196014D02*
X14368348Y-12196014D01*
X14368348Y-12196014D02*
X14349301Y-12205538D01*
X14349301Y-12205538D02*
X14339777Y-12215061D01*
X14339777Y-12215061D02*
X14320729Y-12243633D01*
X14320729Y-12243633D02*
X14311206Y-12281728D01*
X14311206Y-12281728D02*
X14311206Y-12357918D01*
X14311206Y-12357918D02*
X14320729Y-12376966D01*
X14320729Y-12376966D02*
X14330253Y-12386490D01*
X14330253Y-12386490D02*
X14349301Y-12396014D01*
X14349301Y-12396014D02*
X14387396Y-12396014D01*
X14387396Y-12396014D02*
X14406444Y-12386490D01*
X14406444Y-12386490D02*
X14415967Y-12376966D01*
X14415967Y-12376966D02*
X14425491Y-12357918D01*
X14425491Y-12357918D02*
X14425491Y-12310299D01*
X14425491Y-12310299D02*
X14415967Y-12291252D01*
X14415967Y-12291252D02*
X14406444Y-12281728D01*
X14406444Y-12281728D02*
X14387396Y-12272204D01*
X14387396Y-12272204D02*
X14349301Y-12272204D01*
X14349301Y-12272204D02*
X14330253Y-12281728D01*
X14330253Y-12281728D02*
X14320729Y-12291252D01*
X14320729Y-12291252D02*
X14311206Y-12310299D01*
X14596920Y-12196014D02*
X14558825Y-12196014D01*
X14558825Y-12196014D02*
X14539777Y-12205538D01*
X14539777Y-12205538D02*
X14530253Y-12215061D01*
X14530253Y-12215061D02*
X14511206Y-12243633D01*
X14511206Y-12243633D02*
X14501682Y-12281728D01*
X14501682Y-12281728D02*
X14501682Y-12357918D01*
X14501682Y-12357918D02*
X14511206Y-12376966D01*
X14511206Y-12376966D02*
X14520729Y-12386490D01*
X14520729Y-12386490D02*
X14539777Y-12396014D01*
X14539777Y-12396014D02*
X14577872Y-12396014D01*
X14577872Y-12396014D02*
X14596920Y-12386490D01*
X14596920Y-12386490D02*
X14606444Y-12376966D01*
X14606444Y-12376966D02*
X14615967Y-12357918D01*
X14615967Y-12357918D02*
X14615967Y-12310299D01*
X14615967Y-12310299D02*
X14606444Y-12291252D01*
X14606444Y-12291252D02*
X14596920Y-12281728D01*
X14596920Y-12281728D02*
X14577872Y-12272204D01*
X14577872Y-12272204D02*
X14539777Y-12272204D01*
X14539777Y-12272204D02*
X14520729Y-12281728D01*
X14520729Y-12281728D02*
X14511206Y-12291252D01*
X14511206Y-12291252D02*
X14501682Y-12310299D01*
X14711206Y-12396014D02*
X14749301Y-12396014D01*
X14749301Y-12396014D02*
X14768348Y-12386490D01*
X14768348Y-12386490D02*
X14777872Y-12376966D01*
X14777872Y-12376966D02*
X14796920Y-12348395D01*
X14796920Y-12348395D02*
X14806444Y-12310299D01*
X14806444Y-12310299D02*
X14806444Y-12234109D01*
X14806444Y-12234109D02*
X14796920Y-12215061D01*
X14796920Y-12215061D02*
X14787396Y-12205538D01*
X14787396Y-12205538D02*
X14768348Y-12196014D01*
X14768348Y-12196014D02*
X14730253Y-12196014D01*
X14730253Y-12196014D02*
X14711206Y-12205538D01*
X14711206Y-12205538D02*
X14701682Y-12215061D01*
X14701682Y-12215061D02*
X14692158Y-12234109D01*
X14692158Y-12234109D02*
X14692158Y-12281728D01*
X14692158Y-12281728D02*
X14701682Y-12300776D01*
X14701682Y-12300776D02*
X14711206Y-12310299D01*
X14711206Y-12310299D02*
X14730253Y-12319823D01*
X14730253Y-12319823D02*
X14768348Y-12319823D01*
X14768348Y-12319823D02*
X14787396Y-12310299D01*
X14787396Y-12310299D02*
X14796920Y-12300776D01*
X14796920Y-12300776D02*
X14806444Y-12281728D01*
X14882634Y-12196014D02*
X14882634Y-12234109D01*
X14958825Y-12196014D02*
X14958825Y-12234109D01*
X15254063Y-12472204D02*
X15244539Y-12462680D01*
X15244539Y-12462680D02*
X15225491Y-12434109D01*
X15225491Y-12434109D02*
X15215968Y-12415061D01*
X15215968Y-12415061D02*
X15206444Y-12386490D01*
X15206444Y-12386490D02*
X15196920Y-12338871D01*
X15196920Y-12338871D02*
X15196920Y-12300776D01*
X15196920Y-12300776D02*
X15206444Y-12253157D01*
X15206444Y-12253157D02*
X15215968Y-12224585D01*
X15215968Y-12224585D02*
X15225491Y-12205538D01*
X15225491Y-12205538D02*
X15244539Y-12176966D01*
X15244539Y-12176966D02*
X15254063Y-12167442D01*
X15320729Y-12215061D02*
X15330253Y-12205538D01*
X15330253Y-12205538D02*
X15349301Y-12196014D01*
X15349301Y-12196014D02*
X15396920Y-12196014D01*
X15396920Y-12196014D02*
X15415968Y-12205538D01*
X15415968Y-12205538D02*
X15425491Y-12215061D01*
X15425491Y-12215061D02*
X15435015Y-12234109D01*
X15435015Y-12234109D02*
X15435015Y-12253157D01*
X15435015Y-12253157D02*
X15425491Y-12281728D01*
X15425491Y-12281728D02*
X15311206Y-12396014D01*
X15311206Y-12396014D02*
X15435015Y-12396014D01*
X15673110Y-12396014D02*
X15673110Y-12196014D01*
X15758825Y-12396014D02*
X15758825Y-12291252D01*
X15758825Y-12291252D02*
X15749301Y-12272204D01*
X15749301Y-12272204D02*
X15730253Y-12262680D01*
X15730253Y-12262680D02*
X15701682Y-12262680D01*
X15701682Y-12262680D02*
X15682634Y-12272204D01*
X15682634Y-12272204D02*
X15673110Y-12281728D01*
X15882634Y-12396014D02*
X15863587Y-12386490D01*
X15863587Y-12386490D02*
X15854063Y-12376966D01*
X15854063Y-12376966D02*
X15844539Y-12357918D01*
X15844539Y-12357918D02*
X15844539Y-12300776D01*
X15844539Y-12300776D02*
X15854063Y-12281728D01*
X15854063Y-12281728D02*
X15863587Y-12272204D01*
X15863587Y-12272204D02*
X15882634Y-12262680D01*
X15882634Y-12262680D02*
X15911206Y-12262680D01*
X15911206Y-12262680D02*
X15930253Y-12272204D01*
X15930253Y-12272204D02*
X15939777Y-12281728D01*
X15939777Y-12281728D02*
X15949301Y-12300776D01*
X15949301Y-12300776D02*
X15949301Y-12357918D01*
X15949301Y-12357918D02*
X15939777Y-12376966D01*
X15939777Y-12376966D02*
X15930253Y-12386490D01*
X15930253Y-12386490D02*
X15911206Y-12396014D01*
X15911206Y-12396014D02*
X15882634Y-12396014D01*
X16063587Y-12396014D02*
X16044539Y-12386490D01*
X16044539Y-12386490D02*
X16035015Y-12367442D01*
X16035015Y-12367442D02*
X16035015Y-12196014D01*
X16215968Y-12386490D02*
X16196920Y-12396014D01*
X16196920Y-12396014D02*
X16158825Y-12396014D01*
X16158825Y-12396014D02*
X16139777Y-12386490D01*
X16139777Y-12386490D02*
X16130253Y-12367442D01*
X16130253Y-12367442D02*
X16130253Y-12291252D01*
X16130253Y-12291252D02*
X16139777Y-12272204D01*
X16139777Y-12272204D02*
X16158825Y-12262680D01*
X16158825Y-12262680D02*
X16196920Y-12262680D01*
X16196920Y-12262680D02*
X16215968Y-12272204D01*
X16215968Y-12272204D02*
X16225491Y-12291252D01*
X16225491Y-12291252D02*
X16225491Y-12310299D01*
X16225491Y-12310299D02*
X16130253Y-12329347D01*
X16301682Y-12386490D02*
X16320730Y-12396014D01*
X16320730Y-12396014D02*
X16358825Y-12396014D01*
X16358825Y-12396014D02*
X16377872Y-12386490D01*
X16377872Y-12386490D02*
X16387396Y-12367442D01*
X16387396Y-12367442D02*
X16387396Y-12357918D01*
X16387396Y-12357918D02*
X16377872Y-12338871D01*
X16377872Y-12338871D02*
X16358825Y-12329347D01*
X16358825Y-12329347D02*
X16330253Y-12329347D01*
X16330253Y-12329347D02*
X16311206Y-12319823D01*
X16311206Y-12319823D02*
X16301682Y-12300776D01*
X16301682Y-12300776D02*
X16301682Y-12291252D01*
X16301682Y-12291252D02*
X16311206Y-12272204D01*
X16311206Y-12272204D02*
X16330253Y-12262680D01*
X16330253Y-12262680D02*
X16358825Y-12262680D01*
X16358825Y-12262680D02*
X16377872Y-12272204D01*
X16454063Y-12472204D02*
X16463587Y-12462680D01*
X16463587Y-12462680D02*
X16482634Y-12434109D01*
X16482634Y-12434109D02*
X16492158Y-12415061D01*
X16492158Y-12415061D02*
X16501682Y-12386490D01*
X16501682Y-12386490D02*
X16511206Y-12338871D01*
X16511206Y-12338871D02*
X16511206Y-12300776D01*
X16511206Y-12300776D02*
X16501682Y-12253157D01*
X16501682Y-12253157D02*
X16492158Y-12224585D01*
X16492158Y-12224585D02*
X16482634Y-12205538D01*
X16482634Y-12205538D02*
X16463587Y-12176966D01*
X16463587Y-12176966D02*
X16454063Y-12167442D01*
X16815968Y-12472204D02*
X16806444Y-12462680D01*
X16806444Y-12462680D02*
X16787396Y-12434109D01*
X16787396Y-12434109D02*
X16777873Y-12415061D01*
X16777873Y-12415061D02*
X16768349Y-12386490D01*
X16768349Y-12386490D02*
X16758825Y-12338871D01*
X16758825Y-12338871D02*
X16758825Y-12300776D01*
X16758825Y-12300776D02*
X16768349Y-12253157D01*
X16768349Y-12253157D02*
X16777873Y-12224585D01*
X16777873Y-12224585D02*
X16787396Y-12205538D01*
X16787396Y-12205538D02*
X16806444Y-12176966D01*
X16806444Y-12176966D02*
X16815968Y-12167442D01*
X16892158Y-12262680D02*
X16892158Y-12396014D01*
X16892158Y-12281728D02*
X16901682Y-12272204D01*
X16901682Y-12272204D02*
X16920730Y-12262680D01*
X16920730Y-12262680D02*
X16949301Y-12262680D01*
X16949301Y-12262680D02*
X16968349Y-12272204D01*
X16968349Y-12272204D02*
X16977873Y-12291252D01*
X16977873Y-12291252D02*
X16977873Y-12396014D01*
X17101682Y-12396014D02*
X17082634Y-12386490D01*
X17082634Y-12386490D02*
X17073111Y-12376966D01*
X17073111Y-12376966D02*
X17063587Y-12357918D01*
X17063587Y-12357918D02*
X17063587Y-12300776D01*
X17063587Y-12300776D02*
X17073111Y-12281728D01*
X17073111Y-12281728D02*
X17082634Y-12272204D01*
X17082634Y-12272204D02*
X17101682Y-12262680D01*
X17101682Y-12262680D02*
X17130254Y-12262680D01*
X17130254Y-12262680D02*
X17149301Y-12272204D01*
X17149301Y-12272204D02*
X17158825Y-12281728D01*
X17158825Y-12281728D02*
X17168349Y-12300776D01*
X17168349Y-12300776D02*
X17168349Y-12357918D01*
X17168349Y-12357918D02*
X17158825Y-12376966D01*
X17158825Y-12376966D02*
X17149301Y-12386490D01*
X17149301Y-12386490D02*
X17130254Y-12396014D01*
X17130254Y-12396014D02*
X17101682Y-12396014D01*
X17225492Y-12262680D02*
X17301682Y-12262680D01*
X17254063Y-12196014D02*
X17254063Y-12367442D01*
X17254063Y-12367442D02*
X17263587Y-12386490D01*
X17263587Y-12386490D02*
X17282634Y-12396014D01*
X17282634Y-12396014D02*
X17301682Y-12396014D01*
X17520730Y-12262680D02*
X17520730Y-12462680D01*
X17520730Y-12272204D02*
X17539777Y-12262680D01*
X17539777Y-12262680D02*
X17577873Y-12262680D01*
X17577873Y-12262680D02*
X17596920Y-12272204D01*
X17596920Y-12272204D02*
X17606444Y-12281728D01*
X17606444Y-12281728D02*
X17615968Y-12300776D01*
X17615968Y-12300776D02*
X17615968Y-12357918D01*
X17615968Y-12357918D02*
X17606444Y-12376966D01*
X17606444Y-12376966D02*
X17596920Y-12386490D01*
X17596920Y-12386490D02*
X17577873Y-12396014D01*
X17577873Y-12396014D02*
X17539777Y-12396014D01*
X17539777Y-12396014D02*
X17520730Y-12386490D01*
X17730254Y-12396014D02*
X17711206Y-12386490D01*
X17711206Y-12386490D02*
X17701682Y-12367442D01*
X17701682Y-12367442D02*
X17701682Y-12196014D01*
X17892158Y-12396014D02*
X17892158Y-12291252D01*
X17892158Y-12291252D02*
X17882635Y-12272204D01*
X17882635Y-12272204D02*
X17863587Y-12262680D01*
X17863587Y-12262680D02*
X17825492Y-12262680D01*
X17825492Y-12262680D02*
X17806444Y-12272204D01*
X17892158Y-12386490D02*
X17873111Y-12396014D01*
X17873111Y-12396014D02*
X17825492Y-12396014D01*
X17825492Y-12396014D02*
X17806444Y-12386490D01*
X17806444Y-12386490D02*
X17796920Y-12367442D01*
X17796920Y-12367442D02*
X17796920Y-12348395D01*
X17796920Y-12348395D02*
X17806444Y-12329347D01*
X17806444Y-12329347D02*
X17825492Y-12319823D01*
X17825492Y-12319823D02*
X17873111Y-12319823D01*
X17873111Y-12319823D02*
X17892158Y-12310299D01*
X17958825Y-12262680D02*
X18035015Y-12262680D01*
X17987396Y-12196014D02*
X17987396Y-12367442D01*
X17987396Y-12367442D02*
X17996920Y-12386490D01*
X17996920Y-12386490D02*
X18015968Y-12396014D01*
X18015968Y-12396014D02*
X18035015Y-12396014D01*
X18177873Y-12386490D02*
X18158825Y-12396014D01*
X18158825Y-12396014D02*
X18120730Y-12396014D01*
X18120730Y-12396014D02*
X18101682Y-12386490D01*
X18101682Y-12386490D02*
X18092158Y-12367442D01*
X18092158Y-12367442D02*
X18092158Y-12291252D01*
X18092158Y-12291252D02*
X18101682Y-12272204D01*
X18101682Y-12272204D02*
X18120730Y-12262680D01*
X18120730Y-12262680D02*
X18158825Y-12262680D01*
X18158825Y-12262680D02*
X18177873Y-12272204D01*
X18177873Y-12272204D02*
X18187396Y-12291252D01*
X18187396Y-12291252D02*
X18187396Y-12310299D01*
X18187396Y-12310299D02*
X18092158Y-12329347D01*
X18358825Y-12396014D02*
X18358825Y-12196014D01*
X18358825Y-12386490D02*
X18339777Y-12396014D01*
X18339777Y-12396014D02*
X18301682Y-12396014D01*
X18301682Y-12396014D02*
X18282635Y-12386490D01*
X18282635Y-12386490D02*
X18273111Y-12376966D01*
X18273111Y-12376966D02*
X18263587Y-12357918D01*
X18263587Y-12357918D02*
X18263587Y-12300776D01*
X18263587Y-12300776D02*
X18273111Y-12281728D01*
X18273111Y-12281728D02*
X18282635Y-12272204D01*
X18282635Y-12272204D02*
X18301682Y-12262680D01*
X18301682Y-12262680D02*
X18339777Y-12262680D01*
X18339777Y-12262680D02*
X18358825Y-12272204D01*
X18435016Y-12472204D02*
X18444539Y-12462680D01*
X18444539Y-12462680D02*
X18463587Y-12434109D01*
X18463587Y-12434109D02*
X18473111Y-12415061D01*
X18473111Y-12415061D02*
X18482635Y-12386490D01*
X18482635Y-12386490D02*
X18492158Y-12338871D01*
X18492158Y-12338871D02*
X18492158Y-12300776D01*
X18492158Y-12300776D02*
X18482635Y-12253157D01*
X18482635Y-12253157D02*
X18473111Y-12224585D01*
X18473111Y-12224585D02*
X18463587Y-12205538D01*
X18463587Y-12205538D02*
X18444539Y-12176966D01*
X18444539Y-12176966D02*
X18435016Y-12167442D01*
X11679000Y-12594530D02*
G75*
G03*
X11679000Y-12594530I-100000J0D01*
G01*
X11930253Y-12505061D02*
X11939777Y-12495538D01*
X11939777Y-12495538D02*
X11958824Y-12486014D01*
X11958824Y-12486014D02*
X12006443Y-12486014D01*
X12006443Y-12486014D02*
X12025491Y-12495538D01*
X12025491Y-12495538D02*
X12035015Y-12505061D01*
X12035015Y-12505061D02*
X12044539Y-12524109D01*
X12044539Y-12524109D02*
X12044539Y-12543157D01*
X12044539Y-12543157D02*
X12035015Y-12571728D01*
X12035015Y-12571728D02*
X11920729Y-12686014D01*
X11920729Y-12686014D02*
X12044539Y-12686014D01*
X12130253Y-12666966D02*
X12139777Y-12676490D01*
X12139777Y-12676490D02*
X12130253Y-12686014D01*
X12130253Y-12686014D02*
X12120729Y-12676490D01*
X12120729Y-12676490D02*
X12130253Y-12666966D01*
X12130253Y-12666966D02*
X12130253Y-12686014D01*
X12206443Y-12486014D02*
X12339777Y-12486014D01*
X12339777Y-12486014D02*
X12254062Y-12686014D01*
X12454062Y-12486014D02*
X12473110Y-12486014D01*
X12473110Y-12486014D02*
X12492158Y-12495538D01*
X12492158Y-12495538D02*
X12501682Y-12505061D01*
X12501682Y-12505061D02*
X12511205Y-12524109D01*
X12511205Y-12524109D02*
X12520729Y-12562204D01*
X12520729Y-12562204D02*
X12520729Y-12609823D01*
X12520729Y-12609823D02*
X12511205Y-12647918D01*
X12511205Y-12647918D02*
X12501682Y-12666966D01*
X12501682Y-12666966D02*
X12492158Y-12676490D01*
X12492158Y-12676490D02*
X12473110Y-12686014D01*
X12473110Y-12686014D02*
X12454062Y-12686014D01*
X12454062Y-12686014D02*
X12435015Y-12676490D01*
X12435015Y-12676490D02*
X12425491Y-12666966D01*
X12425491Y-12666966D02*
X12415967Y-12647918D01*
X12415967Y-12647918D02*
X12406443Y-12609823D01*
X12406443Y-12609823D02*
X12406443Y-12562204D01*
X12406443Y-12562204D02*
X12415967Y-12524109D01*
X12415967Y-12524109D02*
X12425491Y-12505061D01*
X12425491Y-12505061D02*
X12435015Y-12495538D01*
X12435015Y-12495538D02*
X12454062Y-12486014D01*
X12644539Y-12486014D02*
X12663586Y-12486014D01*
X12663586Y-12486014D02*
X12682634Y-12495538D01*
X12682634Y-12495538D02*
X12692158Y-12505061D01*
X12692158Y-12505061D02*
X12701682Y-12524109D01*
X12701682Y-12524109D02*
X12711205Y-12562204D01*
X12711205Y-12562204D02*
X12711205Y-12609823D01*
X12711205Y-12609823D02*
X12701682Y-12647918D01*
X12701682Y-12647918D02*
X12692158Y-12666966D01*
X12692158Y-12666966D02*
X12682634Y-12676490D01*
X12682634Y-12676490D02*
X12663586Y-12686014D01*
X12663586Y-12686014D02*
X12644539Y-12686014D01*
X12644539Y-12686014D02*
X12625491Y-12676490D01*
X12625491Y-12676490D02*
X12615967Y-12666966D01*
X12615967Y-12666966D02*
X12606443Y-12647918D01*
X12606443Y-12647918D02*
X12596920Y-12609823D01*
X12596920Y-12609823D02*
X12596920Y-12562204D01*
X12596920Y-12562204D02*
X12606443Y-12524109D01*
X12606443Y-12524109D02*
X12615967Y-12505061D01*
X12615967Y-12505061D02*
X12625491Y-12495538D01*
X12625491Y-12495538D02*
X12644539Y-12486014D01*
X12796920Y-12686014D02*
X12796920Y-12552680D01*
X12796920Y-12571728D02*
X12806443Y-12562204D01*
X12806443Y-12562204D02*
X12825491Y-12552680D01*
X12825491Y-12552680D02*
X12854063Y-12552680D01*
X12854063Y-12552680D02*
X12873110Y-12562204D01*
X12873110Y-12562204D02*
X12882634Y-12581252D01*
X12882634Y-12581252D02*
X12882634Y-12686014D01*
X12882634Y-12581252D02*
X12892158Y-12562204D01*
X12892158Y-12562204D02*
X12911205Y-12552680D01*
X12911205Y-12552680D02*
X12939777Y-12552680D01*
X12939777Y-12552680D02*
X12958824Y-12562204D01*
X12958824Y-12562204D02*
X12968348Y-12581252D01*
X12968348Y-12581252D02*
X12968348Y-12686014D01*
X13063586Y-12686014D02*
X13063586Y-12552680D01*
X13063586Y-12571728D02*
X13073110Y-12562204D01*
X13073110Y-12562204D02*
X13092158Y-12552680D01*
X13092158Y-12552680D02*
X13120729Y-12552680D01*
X13120729Y-12552680D02*
X13139777Y-12562204D01*
X13139777Y-12562204D02*
X13149301Y-12581252D01*
X13149301Y-12581252D02*
X13149301Y-12686014D01*
X13149301Y-12581252D02*
X13158824Y-12562204D01*
X13158824Y-12562204D02*
X13177872Y-12552680D01*
X13177872Y-12552680D02*
X13206443Y-12552680D01*
X13206443Y-12552680D02*
X13225491Y-12562204D01*
X13225491Y-12562204D02*
X13235015Y-12581252D01*
X13235015Y-12581252D02*
X13235015Y-12686014D01*
X13625491Y-12476490D02*
X13454063Y-12733633D01*
X13882634Y-12486014D02*
X13901682Y-12486014D01*
X13901682Y-12486014D02*
X13920729Y-12495538D01*
X13920729Y-12495538D02*
X13930253Y-12505061D01*
X13930253Y-12505061D02*
X13939777Y-12524109D01*
X13939777Y-12524109D02*
X13949301Y-12562204D01*
X13949301Y-12562204D02*
X13949301Y-12609823D01*
X13949301Y-12609823D02*
X13939777Y-12647918D01*
X13939777Y-12647918D02*
X13930253Y-12666966D01*
X13930253Y-12666966D02*
X13920729Y-12676490D01*
X13920729Y-12676490D02*
X13901682Y-12686014D01*
X13901682Y-12686014D02*
X13882634Y-12686014D01*
X13882634Y-12686014D02*
X13863586Y-12676490D01*
X13863586Y-12676490D02*
X13854063Y-12666966D01*
X13854063Y-12666966D02*
X13844539Y-12647918D01*
X13844539Y-12647918D02*
X13835015Y-12609823D01*
X13835015Y-12609823D02*
X13835015Y-12562204D01*
X13835015Y-12562204D02*
X13844539Y-12524109D01*
X13844539Y-12524109D02*
X13854063Y-12505061D01*
X13854063Y-12505061D02*
X13863586Y-12495538D01*
X13863586Y-12495538D02*
X13882634Y-12486014D01*
X14035015Y-12666966D02*
X14044539Y-12676490D01*
X14044539Y-12676490D02*
X14035015Y-12686014D01*
X14035015Y-12686014D02*
X14025491Y-12676490D01*
X14025491Y-12676490D02*
X14035015Y-12666966D01*
X14035015Y-12666966D02*
X14035015Y-12686014D01*
X14235015Y-12686014D02*
X14120729Y-12686014D01*
X14177872Y-12686014D02*
X14177872Y-12486014D01*
X14177872Y-12486014D02*
X14158825Y-12514585D01*
X14158825Y-12514585D02*
X14139777Y-12533633D01*
X14139777Y-12533633D02*
X14120729Y-12543157D01*
X14358825Y-12486014D02*
X14377872Y-12486014D01*
X14377872Y-12486014D02*
X14396920Y-12495538D01*
X14396920Y-12495538D02*
X14406444Y-12505061D01*
X14406444Y-12505061D02*
X14415967Y-12524109D01*
X14415967Y-12524109D02*
X14425491Y-12562204D01*
X14425491Y-12562204D02*
X14425491Y-12609823D01*
X14425491Y-12609823D02*
X14415967Y-12647918D01*
X14415967Y-12647918D02*
X14406444Y-12666966D01*
X14406444Y-12666966D02*
X14396920Y-12676490D01*
X14396920Y-12676490D02*
X14377872Y-12686014D01*
X14377872Y-12686014D02*
X14358825Y-12686014D01*
X14358825Y-12686014D02*
X14339777Y-12676490D01*
X14339777Y-12676490D02*
X14330253Y-12666966D01*
X14330253Y-12666966D02*
X14320729Y-12647918D01*
X14320729Y-12647918D02*
X14311206Y-12609823D01*
X14311206Y-12609823D02*
X14311206Y-12562204D01*
X14311206Y-12562204D02*
X14320729Y-12524109D01*
X14320729Y-12524109D02*
X14330253Y-12505061D01*
X14330253Y-12505061D02*
X14339777Y-12495538D01*
X14339777Y-12495538D02*
X14358825Y-12486014D01*
X14596920Y-12486014D02*
X14558825Y-12486014D01*
X14558825Y-12486014D02*
X14539777Y-12495538D01*
X14539777Y-12495538D02*
X14530253Y-12505061D01*
X14530253Y-12505061D02*
X14511206Y-12533633D01*
X14511206Y-12533633D02*
X14501682Y-12571728D01*
X14501682Y-12571728D02*
X14501682Y-12647918D01*
X14501682Y-12647918D02*
X14511206Y-12666966D01*
X14511206Y-12666966D02*
X14520729Y-12676490D01*
X14520729Y-12676490D02*
X14539777Y-12686014D01*
X14539777Y-12686014D02*
X14577872Y-12686014D01*
X14577872Y-12686014D02*
X14596920Y-12676490D01*
X14596920Y-12676490D02*
X14606444Y-12666966D01*
X14606444Y-12666966D02*
X14615967Y-12647918D01*
X14615967Y-12647918D02*
X14615967Y-12600299D01*
X14615967Y-12600299D02*
X14606444Y-12581252D01*
X14606444Y-12581252D02*
X14596920Y-12571728D01*
X14596920Y-12571728D02*
X14577872Y-12562204D01*
X14577872Y-12562204D02*
X14539777Y-12562204D01*
X14539777Y-12562204D02*
X14520729Y-12571728D01*
X14520729Y-12571728D02*
X14511206Y-12581252D01*
X14511206Y-12581252D02*
X14501682Y-12600299D01*
X14682634Y-12486014D02*
X14806444Y-12486014D01*
X14806444Y-12486014D02*
X14739777Y-12562204D01*
X14739777Y-12562204D02*
X14768348Y-12562204D01*
X14768348Y-12562204D02*
X14787396Y-12571728D01*
X14787396Y-12571728D02*
X14796920Y-12581252D01*
X14796920Y-12581252D02*
X14806444Y-12600299D01*
X14806444Y-12600299D02*
X14806444Y-12647918D01*
X14806444Y-12647918D02*
X14796920Y-12666966D01*
X14796920Y-12666966D02*
X14787396Y-12676490D01*
X14787396Y-12676490D02*
X14768348Y-12686014D01*
X14768348Y-12686014D02*
X14711206Y-12686014D01*
X14711206Y-12686014D02*
X14692158Y-12676490D01*
X14692158Y-12676490D02*
X14682634Y-12666966D01*
X14882634Y-12486014D02*
X14882634Y-12524109D01*
X14958825Y-12486014D02*
X14958825Y-12524109D01*
X15254063Y-12762204D02*
X15244539Y-12752680D01*
X15244539Y-12752680D02*
X15225491Y-12724109D01*
X15225491Y-12724109D02*
X15215968Y-12705061D01*
X15215968Y-12705061D02*
X15206444Y-12676490D01*
X15206444Y-12676490D02*
X15196920Y-12628871D01*
X15196920Y-12628871D02*
X15196920Y-12590776D01*
X15196920Y-12590776D02*
X15206444Y-12543157D01*
X15206444Y-12543157D02*
X15215968Y-12514585D01*
X15215968Y-12514585D02*
X15225491Y-12495538D01*
X15225491Y-12495538D02*
X15244539Y-12466966D01*
X15244539Y-12466966D02*
X15254063Y-12457442D01*
X15415968Y-12552680D02*
X15415968Y-12686014D01*
X15368348Y-12476490D02*
X15320729Y-12619347D01*
X15320729Y-12619347D02*
X15444539Y-12619347D01*
X15673110Y-12686014D02*
X15673110Y-12486014D01*
X15758825Y-12686014D02*
X15758825Y-12581252D01*
X15758825Y-12581252D02*
X15749301Y-12562204D01*
X15749301Y-12562204D02*
X15730253Y-12552680D01*
X15730253Y-12552680D02*
X15701682Y-12552680D01*
X15701682Y-12552680D02*
X15682634Y-12562204D01*
X15682634Y-12562204D02*
X15673110Y-12571728D01*
X15882634Y-12686014D02*
X15863587Y-12676490D01*
X15863587Y-12676490D02*
X15854063Y-12666966D01*
X15854063Y-12666966D02*
X15844539Y-12647918D01*
X15844539Y-12647918D02*
X15844539Y-12590776D01*
X15844539Y-12590776D02*
X15854063Y-12571728D01*
X15854063Y-12571728D02*
X15863587Y-12562204D01*
X15863587Y-12562204D02*
X15882634Y-12552680D01*
X15882634Y-12552680D02*
X15911206Y-12552680D01*
X15911206Y-12552680D02*
X15930253Y-12562204D01*
X15930253Y-12562204D02*
X15939777Y-12571728D01*
X15939777Y-12571728D02*
X15949301Y-12590776D01*
X15949301Y-12590776D02*
X15949301Y-12647918D01*
X15949301Y-12647918D02*
X15939777Y-12666966D01*
X15939777Y-12666966D02*
X15930253Y-12676490D01*
X15930253Y-12676490D02*
X15911206Y-12686014D01*
X15911206Y-12686014D02*
X15882634Y-12686014D01*
X16063587Y-12686014D02*
X16044539Y-12676490D01*
X16044539Y-12676490D02*
X16035015Y-12657442D01*
X16035015Y-12657442D02*
X16035015Y-12486014D01*
X16215968Y-12676490D02*
X16196920Y-12686014D01*
X16196920Y-12686014D02*
X16158825Y-12686014D01*
X16158825Y-12686014D02*
X16139777Y-12676490D01*
X16139777Y-12676490D02*
X16130253Y-12657442D01*
X16130253Y-12657442D02*
X16130253Y-12581252D01*
X16130253Y-12581252D02*
X16139777Y-12562204D01*
X16139777Y-12562204D02*
X16158825Y-12552680D01*
X16158825Y-12552680D02*
X16196920Y-12552680D01*
X16196920Y-12552680D02*
X16215968Y-12562204D01*
X16215968Y-12562204D02*
X16225491Y-12581252D01*
X16225491Y-12581252D02*
X16225491Y-12600299D01*
X16225491Y-12600299D02*
X16130253Y-12619347D01*
X16301682Y-12676490D02*
X16320730Y-12686014D01*
X16320730Y-12686014D02*
X16358825Y-12686014D01*
X16358825Y-12686014D02*
X16377872Y-12676490D01*
X16377872Y-12676490D02*
X16387396Y-12657442D01*
X16387396Y-12657442D02*
X16387396Y-12647918D01*
X16387396Y-12647918D02*
X16377872Y-12628871D01*
X16377872Y-12628871D02*
X16358825Y-12619347D01*
X16358825Y-12619347D02*
X16330253Y-12619347D01*
X16330253Y-12619347D02*
X16311206Y-12609823D01*
X16311206Y-12609823D02*
X16301682Y-12590776D01*
X16301682Y-12590776D02*
X16301682Y-12581252D01*
X16301682Y-12581252D02*
X16311206Y-12562204D01*
X16311206Y-12562204D02*
X16330253Y-12552680D01*
X16330253Y-12552680D02*
X16358825Y-12552680D01*
X16358825Y-12552680D02*
X16377872Y-12562204D01*
X16454063Y-12762204D02*
X16463587Y-12752680D01*
X16463587Y-12752680D02*
X16482634Y-12724109D01*
X16482634Y-12724109D02*
X16492158Y-12705061D01*
X16492158Y-12705061D02*
X16501682Y-12676490D01*
X16501682Y-12676490D02*
X16511206Y-12628871D01*
X16511206Y-12628871D02*
X16511206Y-12590776D01*
X16511206Y-12590776D02*
X16501682Y-12543157D01*
X16501682Y-12543157D02*
X16492158Y-12514585D01*
X16492158Y-12514585D02*
X16482634Y-12495538D01*
X16482634Y-12495538D02*
X16463587Y-12466966D01*
X16463587Y-12466966D02*
X16454063Y-12457442D01*
X16815968Y-12762204D02*
X16806444Y-12752680D01*
X16806444Y-12752680D02*
X16787396Y-12724109D01*
X16787396Y-12724109D02*
X16777873Y-12705061D01*
X16777873Y-12705061D02*
X16768349Y-12676490D01*
X16768349Y-12676490D02*
X16758825Y-12628871D01*
X16758825Y-12628871D02*
X16758825Y-12590776D01*
X16758825Y-12590776D02*
X16768349Y-12543157D01*
X16768349Y-12543157D02*
X16777873Y-12514585D01*
X16777873Y-12514585D02*
X16787396Y-12495538D01*
X16787396Y-12495538D02*
X16806444Y-12466966D01*
X16806444Y-12466966D02*
X16815968Y-12457442D01*
X16892158Y-12552680D02*
X16892158Y-12686014D01*
X16892158Y-12571728D02*
X16901682Y-12562204D01*
X16901682Y-12562204D02*
X16920730Y-12552680D01*
X16920730Y-12552680D02*
X16949301Y-12552680D01*
X16949301Y-12552680D02*
X16968349Y-12562204D01*
X16968349Y-12562204D02*
X16977873Y-12581252D01*
X16977873Y-12581252D02*
X16977873Y-12686014D01*
X17101682Y-12686014D02*
X17082634Y-12676490D01*
X17082634Y-12676490D02*
X17073111Y-12666966D01*
X17073111Y-12666966D02*
X17063587Y-12647918D01*
X17063587Y-12647918D02*
X17063587Y-12590776D01*
X17063587Y-12590776D02*
X17073111Y-12571728D01*
X17073111Y-12571728D02*
X17082634Y-12562204D01*
X17082634Y-12562204D02*
X17101682Y-12552680D01*
X17101682Y-12552680D02*
X17130254Y-12552680D01*
X17130254Y-12552680D02*
X17149301Y-12562204D01*
X17149301Y-12562204D02*
X17158825Y-12571728D01*
X17158825Y-12571728D02*
X17168349Y-12590776D01*
X17168349Y-12590776D02*
X17168349Y-12647918D01*
X17168349Y-12647918D02*
X17158825Y-12666966D01*
X17158825Y-12666966D02*
X17149301Y-12676490D01*
X17149301Y-12676490D02*
X17130254Y-12686014D01*
X17130254Y-12686014D02*
X17101682Y-12686014D01*
X17225492Y-12552680D02*
X17301682Y-12552680D01*
X17254063Y-12486014D02*
X17254063Y-12657442D01*
X17254063Y-12657442D02*
X17263587Y-12676490D01*
X17263587Y-12676490D02*
X17282634Y-12686014D01*
X17282634Y-12686014D02*
X17301682Y-12686014D01*
X17520730Y-12552680D02*
X17520730Y-12752680D01*
X17520730Y-12562204D02*
X17539777Y-12552680D01*
X17539777Y-12552680D02*
X17577873Y-12552680D01*
X17577873Y-12552680D02*
X17596920Y-12562204D01*
X17596920Y-12562204D02*
X17606444Y-12571728D01*
X17606444Y-12571728D02*
X17615968Y-12590776D01*
X17615968Y-12590776D02*
X17615968Y-12647918D01*
X17615968Y-12647918D02*
X17606444Y-12666966D01*
X17606444Y-12666966D02*
X17596920Y-12676490D01*
X17596920Y-12676490D02*
X17577873Y-12686014D01*
X17577873Y-12686014D02*
X17539777Y-12686014D01*
X17539777Y-12686014D02*
X17520730Y-12676490D01*
X17730254Y-12686014D02*
X17711206Y-12676490D01*
X17711206Y-12676490D02*
X17701682Y-12657442D01*
X17701682Y-12657442D02*
X17701682Y-12486014D01*
X17892158Y-12686014D02*
X17892158Y-12581252D01*
X17892158Y-12581252D02*
X17882635Y-12562204D01*
X17882635Y-12562204D02*
X17863587Y-12552680D01*
X17863587Y-12552680D02*
X17825492Y-12552680D01*
X17825492Y-12552680D02*
X17806444Y-12562204D01*
X17892158Y-12676490D02*
X17873111Y-12686014D01*
X17873111Y-12686014D02*
X17825492Y-12686014D01*
X17825492Y-12686014D02*
X17806444Y-12676490D01*
X17806444Y-12676490D02*
X17796920Y-12657442D01*
X17796920Y-12657442D02*
X17796920Y-12638395D01*
X17796920Y-12638395D02*
X17806444Y-12619347D01*
X17806444Y-12619347D02*
X17825492Y-12609823D01*
X17825492Y-12609823D02*
X17873111Y-12609823D01*
X17873111Y-12609823D02*
X17892158Y-12600299D01*
X17958825Y-12552680D02*
X18035015Y-12552680D01*
X17987396Y-12486014D02*
X17987396Y-12657442D01*
X17987396Y-12657442D02*
X17996920Y-12676490D01*
X17996920Y-12676490D02*
X18015968Y-12686014D01*
X18015968Y-12686014D02*
X18035015Y-12686014D01*
X18177873Y-12676490D02*
X18158825Y-12686014D01*
X18158825Y-12686014D02*
X18120730Y-12686014D01*
X18120730Y-12686014D02*
X18101682Y-12676490D01*
X18101682Y-12676490D02*
X18092158Y-12657442D01*
X18092158Y-12657442D02*
X18092158Y-12581252D01*
X18092158Y-12581252D02*
X18101682Y-12562204D01*
X18101682Y-12562204D02*
X18120730Y-12552680D01*
X18120730Y-12552680D02*
X18158825Y-12552680D01*
X18158825Y-12552680D02*
X18177873Y-12562204D01*
X18177873Y-12562204D02*
X18187396Y-12581252D01*
X18187396Y-12581252D02*
X18187396Y-12600299D01*
X18187396Y-12600299D02*
X18092158Y-12619347D01*
X18358825Y-12686014D02*
X18358825Y-12486014D01*
X18358825Y-12676490D02*
X18339777Y-12686014D01*
X18339777Y-12686014D02*
X18301682Y-12686014D01*
X18301682Y-12686014D02*
X18282635Y-12676490D01*
X18282635Y-12676490D02*
X18273111Y-12666966D01*
X18273111Y-12666966D02*
X18263587Y-12647918D01*
X18263587Y-12647918D02*
X18263587Y-12590776D01*
X18263587Y-12590776D02*
X18273111Y-12571728D01*
X18273111Y-12571728D02*
X18282635Y-12562204D01*
X18282635Y-12562204D02*
X18301682Y-12552680D01*
X18301682Y-12552680D02*
X18339777Y-12552680D01*
X18339777Y-12552680D02*
X18358825Y-12562204D01*
X18435016Y-12762204D02*
X18444539Y-12752680D01*
X18444539Y-12752680D02*
X18463587Y-12724109D01*
X18463587Y-12724109D02*
X18473111Y-12705061D01*
X18473111Y-12705061D02*
X18482635Y-12676490D01*
X18482635Y-12676490D02*
X18492158Y-12628871D01*
X18492158Y-12628871D02*
X18492158Y-12590776D01*
X18492158Y-12590776D02*
X18482635Y-12543157D01*
X18482635Y-12543157D02*
X18473111Y-12514585D01*
X18473111Y-12514585D02*
X18463587Y-12495538D01*
X18463587Y-12495538D02*
X18444539Y-12466966D01*
X18444539Y-12466966D02*
X18435016Y-12457442D01*
M02*
