G04 #@! TF.GenerationSoftware,KiCad,Pcbnew,7.0.8*
G04 #@! TF.CreationDate,2023-10-02T15:07:27-07:00*
G04 #@! TF.ProjectId,PCM510xA_I2S_DAC,50434d35-3130-4784-915f-4932535f4441,0.0.2*
G04 #@! TF.SameCoordinates,Original*
G04 #@! TF.FileFunction,Copper,L2,Bot*
G04 #@! TF.FilePolarity,Positive*
%FSLAX46Y46*%
G04 Gerber Fmt 4.6, Leading zero omitted, Abs format (unit mm)*
G04 Created by KiCad (PCBNEW 7.0.8) date 2023-10-02 15:07:27*
%MOMM*%
%LPD*%
G01*
G04 APERTURE LIST*
G04 Aperture macros list*
%AMFreePoly0*
4,1,19,0.550000,-0.750000,0.000000,-0.750000,0.000000,-0.744911,-0.071157,-0.744911,-0.207708,-0.704816,-0.327430,-0.627875,-0.420627,-0.520320,-0.479746,-0.390866,-0.500000,-0.250000,-0.500000,0.250000,-0.479746,0.390866,-0.420627,0.520320,-0.327430,0.627875,-0.207708,0.704816,-0.071157,0.744911,0.000000,0.744911,0.000000,0.750000,0.550000,0.750000,0.550000,-0.750000,0.550000,-0.750000,
$1*%
%AMFreePoly1*
4,1,19,0.000000,0.744911,0.071157,0.744911,0.207708,0.704816,0.327430,0.627875,0.420627,0.520320,0.479746,0.390866,0.500000,0.250000,0.500000,-0.250000,0.479746,-0.390866,0.420627,-0.520320,0.327430,-0.627875,0.207708,-0.704816,0.071157,-0.744911,0.000000,-0.744911,0.000000,-0.750000,-0.550000,-0.750000,-0.550000,0.750000,0.000000,0.750000,0.000000,0.744911,0.000000,0.744911,
$1*%
G04 Aperture macros list end*
G04 #@! TA.AperFunction,ComponentPad*
%ADD10R,1.700000X1.700000*%
G04 #@! TD*
G04 #@! TA.AperFunction,ComponentPad*
%ADD11O,1.700000X1.700000*%
G04 #@! TD*
G04 #@! TA.AperFunction,SMDPad,CuDef*
%ADD12R,2.000000X2.000000*%
G04 #@! TD*
G04 #@! TA.AperFunction,SMDPad,CuDef*
%ADD13FreePoly0,270.000000*%
G04 #@! TD*
G04 #@! TA.AperFunction,SMDPad,CuDef*
%ADD14R,1.500000X1.000000*%
G04 #@! TD*
G04 #@! TA.AperFunction,SMDPad,CuDef*
%ADD15FreePoly1,270.000000*%
G04 #@! TD*
G04 #@! TA.AperFunction,ViaPad*
%ADD16C,0.685800*%
G04 #@! TD*
G04 #@! TA.AperFunction,Conductor*
%ADD17C,0.152400*%
G04 #@! TD*
G04 #@! TA.AperFunction,Conductor*
%ADD18C,0.203200*%
G04 #@! TD*
G04 APERTURE END LIST*
G04 #@! TA.AperFunction,EtchedComponent*
G36*
X121500000Y-100800000D02*
G01*
X120900000Y-100800000D01*
X120900000Y-100300000D01*
X121500000Y-100300000D01*
X121500000Y-100800000D01*
G37*
G04 #@! TD.AperFunction*
D10*
X139700000Y-114665129D03*
D11*
X137160000Y-114665129D03*
X134620000Y-114665129D03*
X132080000Y-114665129D03*
X129540000Y-114665129D03*
X127000000Y-114665129D03*
X124460000Y-114665129D03*
D12*
X154178000Y-107578129D03*
D13*
X121200000Y-99900000D03*
D14*
X121200000Y-101200000D03*
D15*
X121200000Y-102500000D03*
D12*
X142748000Y-107578129D03*
X122700000Y-107600000D03*
X150368000Y-107578129D03*
X146558000Y-107578129D03*
D16*
X124290000Y-98480000D03*
X124540000Y-111520000D03*
X143100000Y-110300000D03*
X117800000Y-105000000D03*
X122000000Y-92000000D03*
X118000000Y-96100000D03*
X130200000Y-92000000D03*
X122000000Y-115800000D03*
X118000000Y-110800000D03*
X129090000Y-107230000D03*
X143100000Y-115800000D03*
X150901400Y-104987329D03*
X154051000Y-110803929D03*
X121100000Y-104500000D03*
X125100000Y-102500000D03*
X121100000Y-106100000D03*
X132400000Y-107600000D03*
X127000000Y-98500000D03*
X125600000Y-97900000D03*
X125600000Y-99100000D03*
X127000000Y-100500000D03*
X127000000Y-97200000D03*
X150900000Y-115800000D03*
X145400000Y-104900000D03*
X156100000Y-96100000D03*
X150900000Y-92000000D03*
X145400000Y-110300000D03*
X143600000Y-96100000D03*
X145400000Y-115800000D03*
X139600000Y-92000000D03*
X145400000Y-92000000D03*
X139600000Y-104900000D03*
X132300000Y-92000000D03*
X156000000Y-105000000D03*
X156000000Y-110800000D03*
X129100000Y-109200000D03*
D17*
X125600000Y-97900000D02*
X125600000Y-97908224D01*
X125600000Y-97908224D02*
X126695200Y-99003424D01*
X126123700Y-100137024D02*
X126123700Y-100954752D01*
X126123700Y-100954752D02*
X126390400Y-101221452D01*
X126695200Y-99003424D02*
X126695200Y-99565524D01*
X126695200Y-99565524D02*
X126123700Y-100137024D01*
X126390400Y-101221452D02*
X126390400Y-111946582D01*
X126390400Y-111946582D02*
X127000000Y-112556182D01*
X127000000Y-112556182D02*
X127000000Y-114665129D01*
X126428500Y-100500000D02*
X126428500Y-100736724D01*
X126428500Y-100736724D02*
X126695200Y-101003424D01*
X126695200Y-101003424D02*
X126695200Y-111820329D01*
X126695200Y-111820329D02*
X129540000Y-114665129D01*
X124460000Y-114665129D02*
X126085600Y-113039529D01*
X126085600Y-101347704D02*
X125818900Y-101081004D01*
X126085600Y-113039529D02*
X126085600Y-101347704D01*
X125818900Y-99318900D02*
X125600000Y-99100000D01*
X125818900Y-101081004D02*
X125818900Y-99318900D01*
X150368000Y-105520729D02*
X150901400Y-104987329D01*
X150368000Y-107578129D02*
X150368000Y-105520729D01*
X154051000Y-110803929D02*
X154178000Y-110676929D01*
X154178000Y-110676929D02*
X154178000Y-107578129D01*
X123200000Y-104500000D02*
X121200000Y-104500000D01*
X122700000Y-107600000D02*
X122700000Y-105000000D01*
X125100000Y-102500000D02*
X125100000Y-103800000D01*
X125100000Y-103800000D02*
X124400000Y-104500000D01*
X122700000Y-105000000D02*
X123200000Y-104500000D01*
X124400000Y-104500000D02*
X123200000Y-104500000D01*
D18*
X121200000Y-102500000D02*
X121100000Y-102400000D01*
X120200000Y-102400000D02*
X119600000Y-103000000D01*
X120100000Y-106100000D02*
X119600000Y-105600000D01*
X121100000Y-106100000D02*
X120100000Y-106100000D01*
X119600000Y-105600000D02*
X119600000Y-103000000D01*
X121100000Y-102400000D02*
X120200000Y-102400000D01*
X132400000Y-107600000D02*
X132421871Y-107578129D01*
X132421871Y-107578129D02*
X142748000Y-107578129D01*
D17*
X126428500Y-100828500D02*
X126650000Y-101050000D01*
X126991776Y-99700000D02*
X126428500Y-100263276D01*
X126428500Y-100500000D02*
X126428500Y-100828500D01*
X126428500Y-100263276D02*
X126428500Y-100500000D01*
X127000000Y-99700000D02*
X126991776Y-99700000D01*
X127000000Y-98500000D02*
X127000000Y-99700000D01*
X134200000Y-111900000D02*
X127612152Y-111900000D01*
X127000000Y-111287848D02*
X127000000Y-100500000D01*
X127612152Y-111900000D02*
X127000000Y-111287848D01*
X134620000Y-112320000D02*
X134200000Y-111900000D01*
X134620000Y-114665129D02*
X134620000Y-112320000D01*
X127000000Y-97200000D02*
X127000000Y-96400000D01*
X119800000Y-101200000D02*
X121200000Y-101200000D01*
X127000000Y-96400000D02*
X126600000Y-96000000D01*
X119400000Y-100800000D02*
X119800000Y-101200000D01*
X121400000Y-96000000D02*
X119400000Y-98000000D01*
X119400000Y-98000000D02*
X119400000Y-100800000D01*
X126600000Y-96000000D02*
X121400000Y-96000000D01*
X139700000Y-114665129D02*
X134234871Y-109200000D01*
X129100000Y-109200000D02*
X129200000Y-109200000D01*
X134234871Y-109200000D02*
X129100000Y-109200000D01*
G04 #@! TA.AperFunction,Conductor*
G36*
X156212255Y-91118651D02*
G01*
X156390899Y-91132714D01*
X156410116Y-91135758D01*
X156493679Y-91155820D01*
X156577246Y-91175884D01*
X156595739Y-91181892D01*
X156754539Y-91247671D01*
X156771871Y-91256502D01*
X156918418Y-91346306D01*
X156934158Y-91357741D01*
X157064853Y-91469363D01*
X157078611Y-91483121D01*
X157190236Y-91613812D01*
X157201672Y-91629552D01*
X157291479Y-91776093D01*
X157300313Y-91793429D01*
X157366090Y-91952213D01*
X157372104Y-91970717D01*
X157411463Y-92134629D01*
X157412236Y-92137846D01*
X157415280Y-92157063D01*
X157429309Y-92335208D01*
X157429500Y-92340058D01*
X157429500Y-115294282D01*
X157429498Y-115294300D01*
X157429499Y-115322699D01*
X157429308Y-115327564D01*
X157415258Y-115506203D01*
X157412215Y-115525423D01*
X157372098Y-115692551D01*
X157366087Y-115711051D01*
X157300317Y-115869847D01*
X157291487Y-115887178D01*
X157201683Y-116033730D01*
X157190246Y-116049473D01*
X157078626Y-116180165D01*
X157064866Y-116193925D01*
X156934171Y-116305548D01*
X156918428Y-116316985D01*
X156771886Y-116406783D01*
X156754548Y-116415617D01*
X156595757Y-116481386D01*
X156577249Y-116487399D01*
X156410124Y-116527515D01*
X156390905Y-116530558D01*
X156212292Y-116544606D01*
X156207425Y-116544797D01*
X156168772Y-116544795D01*
X156168758Y-116544798D01*
X144523000Y-116544798D01*
X144455961Y-116525113D01*
X144410206Y-116472309D01*
X144399000Y-116420798D01*
X144399000Y-114055129D01*
X153207551Y-114055129D01*
X153227317Y-114306280D01*
X153286126Y-114551239D01*
X153382533Y-114783988D01*
X153514160Y-114998782D01*
X153514161Y-114998785D01*
X153514164Y-114998788D01*
X153677776Y-115190353D01*
X153826066Y-115317004D01*
X153869343Y-115353967D01*
X153869346Y-115353968D01*
X154084140Y-115485595D01*
X154316889Y-115582002D01*
X154561852Y-115640812D01*
X154717950Y-115653097D01*
X154750116Y-115655629D01*
X154750118Y-115655629D01*
X154875884Y-115655629D01*
X154905518Y-115653296D01*
X155064148Y-115640812D01*
X155309111Y-115582002D01*
X155541859Y-115485595D01*
X155756659Y-115353965D01*
X155948224Y-115190353D01*
X156111836Y-114998788D01*
X156243466Y-114783988D01*
X156339873Y-114551240D01*
X156398683Y-114306277D01*
X156418449Y-114055129D01*
X156398683Y-113803981D01*
X156339873Y-113559018D01*
X156243466Y-113326270D01*
X156243466Y-113326269D01*
X156111839Y-113111475D01*
X156111838Y-113111472D01*
X156074875Y-113068195D01*
X155948224Y-112919905D01*
X155821571Y-112811733D01*
X155756656Y-112756290D01*
X155756653Y-112756289D01*
X155541859Y-112624662D01*
X155309110Y-112528255D01*
X155064150Y-112469446D01*
X154875884Y-112454629D01*
X154875882Y-112454629D01*
X154750118Y-112454629D01*
X154750116Y-112454629D01*
X154561849Y-112469446D01*
X154316889Y-112528255D01*
X154084140Y-112624662D01*
X153869346Y-112756289D01*
X153869343Y-112756290D01*
X153677776Y-112919905D01*
X153514161Y-113111472D01*
X153514160Y-113111475D01*
X153382533Y-113326269D01*
X153286126Y-113559018D01*
X153227317Y-113803977D01*
X153207551Y-114055129D01*
X144399000Y-114055129D01*
X144399000Y-109229129D01*
X134783042Y-109229129D01*
X134716003Y-109209444D01*
X134695361Y-109192810D01*
X134480840Y-108978289D01*
X134477190Y-108974306D01*
X134450720Y-108942761D01*
X134415067Y-108922176D01*
X134410519Y-108919279D01*
X134376787Y-108895660D01*
X134376785Y-108895659D01*
X134376783Y-108895658D01*
X134372589Y-108893702D01*
X134354075Y-108886033D01*
X134349723Y-108884449D01*
X134309181Y-108877300D01*
X134303899Y-108876129D01*
X134264137Y-108865475D01*
X134231969Y-108868290D01*
X134223122Y-108869064D01*
X134217722Y-108869300D01*
X131615000Y-108869300D01*
X131547961Y-108849615D01*
X131502206Y-108796811D01*
X131491000Y-108745300D01*
X131491000Y-107600000D01*
X131797445Y-107600000D01*
X131817977Y-107755952D01*
X131817978Y-107755956D01*
X131878170Y-107901275D01*
X131878171Y-107901277D01*
X131878172Y-107901278D01*
X131973929Y-108026071D01*
X132098722Y-108121828D01*
X132244047Y-108182023D01*
X132381855Y-108200166D01*
X132399999Y-108202555D01*
X132400000Y-108202555D01*
X132400001Y-108202555D01*
X132416253Y-108200415D01*
X132555953Y-108182023D01*
X132701278Y-108121828D01*
X132826071Y-108026071D01*
X132859319Y-107982742D01*
X132915747Y-107941540D01*
X132957694Y-107934229D01*
X141369501Y-107934229D01*
X141436540Y-107953914D01*
X141482295Y-108006718D01*
X141493501Y-108058229D01*
X141493501Y-108603195D01*
X141508265Y-108677425D01*
X141508266Y-108677430D01*
X141564515Y-108761613D01*
X141598234Y-108784143D01*
X141648699Y-108817863D01*
X141648702Y-108817863D01*
X141648703Y-108817864D01*
X141673666Y-108822829D01*
X141722933Y-108832629D01*
X143773066Y-108832628D01*
X143847301Y-108817863D01*
X143931484Y-108761613D01*
X143987734Y-108677430D01*
X144002500Y-108603196D01*
X144002499Y-107828129D01*
X145058000Y-107828129D01*
X145058000Y-108625973D01*
X145064401Y-108685501D01*
X145064403Y-108685508D01*
X145114645Y-108820215D01*
X145114649Y-108820222D01*
X145200809Y-108935316D01*
X145200812Y-108935319D01*
X145315906Y-109021479D01*
X145315913Y-109021483D01*
X145450620Y-109071725D01*
X145450627Y-109071727D01*
X145510155Y-109078128D01*
X145510172Y-109078129D01*
X146308000Y-109078129D01*
X146308000Y-107828129D01*
X146808000Y-107828129D01*
X146808000Y-109078129D01*
X147605828Y-109078129D01*
X147605844Y-109078128D01*
X147665372Y-109071727D01*
X147665379Y-109071725D01*
X147800086Y-109021483D01*
X147800093Y-109021479D01*
X147915187Y-108935319D01*
X147915190Y-108935316D01*
X148001350Y-108820222D01*
X148001354Y-108820215D01*
X148051596Y-108685508D01*
X148051598Y-108685501D01*
X148057999Y-108625973D01*
X148058000Y-108625956D01*
X148058000Y-108603192D01*
X149113500Y-108603192D01*
X149128266Y-108677430D01*
X149184515Y-108761613D01*
X149218234Y-108784143D01*
X149268699Y-108817863D01*
X149268702Y-108817863D01*
X149268703Y-108817864D01*
X149293666Y-108822829D01*
X149342933Y-108832629D01*
X151393066Y-108832628D01*
X151467301Y-108817863D01*
X151551484Y-108761613D01*
X151607734Y-108677430D01*
X151622500Y-108603196D01*
X151622500Y-108603192D01*
X152923500Y-108603192D01*
X152938266Y-108677430D01*
X152994515Y-108761613D01*
X153028234Y-108784143D01*
X153078699Y-108817863D01*
X153078702Y-108817863D01*
X153078703Y-108817864D01*
X153103666Y-108822829D01*
X153152933Y-108832629D01*
X153723300Y-108832628D01*
X153790339Y-108852312D01*
X153836094Y-108905116D01*
X153847300Y-108956628D01*
X153847300Y-110158828D01*
X153827615Y-110225867D01*
X153774811Y-110271622D01*
X153770755Y-110273388D01*
X153749724Y-110282099D01*
X153624929Y-110377858D01*
X153529171Y-110502652D01*
X153468978Y-110647972D01*
X153468977Y-110647976D01*
X153448445Y-110803929D01*
X153458726Y-110882023D01*
X153468977Y-110959881D01*
X153468978Y-110959885D01*
X153529170Y-111105204D01*
X153529171Y-111105206D01*
X153529172Y-111105207D01*
X153624929Y-111230000D01*
X153749722Y-111325757D01*
X153895047Y-111385952D01*
X154032855Y-111404095D01*
X154050999Y-111406484D01*
X154051000Y-111406484D01*
X154051001Y-111406484D01*
X154067253Y-111404344D01*
X154206953Y-111385952D01*
X154352278Y-111325757D01*
X154477071Y-111230000D01*
X154572828Y-111105207D01*
X154633023Y-110959882D01*
X154653555Y-110803929D01*
X154633023Y-110647976D01*
X154572828Y-110502652D01*
X154534323Y-110452470D01*
X154509130Y-110387301D01*
X154508700Y-110376985D01*
X154508700Y-108956628D01*
X154528385Y-108889589D01*
X154581189Y-108843834D01*
X154632700Y-108832628D01*
X155203064Y-108832628D01*
X155203066Y-108832628D01*
X155277301Y-108817863D01*
X155361484Y-108761613D01*
X155417734Y-108677430D01*
X155432500Y-108603196D01*
X155432499Y-106553063D01*
X155417734Y-106478828D01*
X155399068Y-106450894D01*
X155361484Y-106394644D01*
X155311019Y-106360925D01*
X155277301Y-106338395D01*
X155277299Y-106338394D01*
X155277296Y-106338393D01*
X155203069Y-106323629D01*
X153152936Y-106323629D01*
X153078698Y-106338395D01*
X152994515Y-106394644D01*
X152938266Y-106478828D01*
X152938264Y-106478832D01*
X152923500Y-106553057D01*
X152923500Y-108603192D01*
X151622500Y-108603192D01*
X151622499Y-106553063D01*
X151607734Y-106478828D01*
X151589068Y-106450894D01*
X151551484Y-106394644D01*
X151501019Y-106360925D01*
X151467301Y-106338395D01*
X151467299Y-106338394D01*
X151467296Y-106338393D01*
X151393071Y-106323629D01*
X151393067Y-106323629D01*
X150822700Y-106323629D01*
X150755661Y-106303944D01*
X150709906Y-106251140D01*
X150698700Y-106199629D01*
X150698700Y-105709071D01*
X150718385Y-105642032D01*
X150735019Y-105621390D01*
X150738977Y-105617432D01*
X150800300Y-105583947D01*
X150842841Y-105582174D01*
X150901400Y-105589884D01*
X151057353Y-105569352D01*
X151202678Y-105509157D01*
X151327471Y-105413400D01*
X151423228Y-105288607D01*
X151483423Y-105143282D01*
X151503955Y-104987329D01*
X151503076Y-104980656D01*
X151489527Y-104877742D01*
X151483423Y-104831376D01*
X151423228Y-104686052D01*
X151327471Y-104561258D01*
X151202678Y-104465501D01*
X151202677Y-104465500D01*
X151202675Y-104465499D01*
X151057356Y-104405307D01*
X151057354Y-104405306D01*
X151057353Y-104405306D01*
X150979376Y-104395040D01*
X150901401Y-104384774D01*
X150901399Y-104384774D01*
X150745447Y-104405306D01*
X150745443Y-104405307D01*
X150600123Y-104465500D01*
X150475329Y-104561258D01*
X150379571Y-104686052D01*
X150319378Y-104831372D01*
X150319377Y-104831376D01*
X150298845Y-104987328D01*
X150298845Y-104987329D01*
X150306554Y-105045884D01*
X150295789Y-105114920D01*
X150271296Y-105149751D01*
X150146287Y-105274761D01*
X150142298Y-105278416D01*
X150110765Y-105304876D01*
X150110758Y-105304883D01*
X150090177Y-105340529D01*
X150087272Y-105345090D01*
X150063659Y-105378813D01*
X150061706Y-105383000D01*
X150054025Y-105401547D01*
X150052447Y-105405882D01*
X150045300Y-105446418D01*
X150044129Y-105451701D01*
X150033475Y-105491461D01*
X150037064Y-105532471D01*
X150037300Y-105537878D01*
X150037300Y-106199629D01*
X150017615Y-106266668D01*
X149964811Y-106312423D01*
X149913300Y-106323629D01*
X149342936Y-106323629D01*
X149268698Y-106338395D01*
X149184515Y-106394644D01*
X149128266Y-106478828D01*
X149128264Y-106478832D01*
X149113500Y-106553057D01*
X149113500Y-108603192D01*
X148058000Y-108603192D01*
X148058000Y-107828129D01*
X146808000Y-107828129D01*
X146308000Y-107828129D01*
X145058000Y-107828129D01*
X144002499Y-107828129D01*
X144002499Y-107328129D01*
X145058000Y-107328129D01*
X146308000Y-107328129D01*
X146308000Y-106078129D01*
X146808000Y-106078129D01*
X146808000Y-107328129D01*
X148058000Y-107328129D01*
X148058000Y-106530301D01*
X148057999Y-106530284D01*
X148051598Y-106470756D01*
X148051596Y-106470749D01*
X148001354Y-106336042D01*
X148001350Y-106336035D01*
X147915190Y-106220941D01*
X147915187Y-106220938D01*
X147800093Y-106134778D01*
X147800086Y-106134774D01*
X147665379Y-106084532D01*
X147665372Y-106084530D01*
X147605844Y-106078129D01*
X146808000Y-106078129D01*
X146308000Y-106078129D01*
X145510155Y-106078129D01*
X145450627Y-106084530D01*
X145450620Y-106084532D01*
X145315913Y-106134774D01*
X145315906Y-106134778D01*
X145200812Y-106220938D01*
X145200809Y-106220941D01*
X145114649Y-106336035D01*
X145114645Y-106336042D01*
X145064403Y-106470749D01*
X145064401Y-106470756D01*
X145058000Y-106530284D01*
X145058000Y-107328129D01*
X144002499Y-107328129D01*
X144002499Y-106553063D01*
X143987734Y-106478828D01*
X143969068Y-106450894D01*
X143931484Y-106394644D01*
X143881019Y-106360925D01*
X143847301Y-106338395D01*
X143847299Y-106338394D01*
X143847296Y-106338393D01*
X143773069Y-106323629D01*
X141722936Y-106323629D01*
X141648698Y-106338395D01*
X141564515Y-106394644D01*
X141508266Y-106478828D01*
X141508264Y-106478832D01*
X141493500Y-106553057D01*
X141493500Y-107098029D01*
X141473815Y-107165068D01*
X141421011Y-107210823D01*
X141369500Y-107222029D01*
X132924130Y-107222029D01*
X132857091Y-107202344D01*
X132832125Y-107179377D01*
X132831823Y-107179680D01*
X132826077Y-107173935D01*
X132826073Y-107173932D01*
X132826071Y-107173929D01*
X132701278Y-107078172D01*
X132701277Y-107078171D01*
X132701275Y-107078170D01*
X132555956Y-107017978D01*
X132555954Y-107017977D01*
X132555953Y-107017977D01*
X132477976Y-107007711D01*
X132400001Y-106997445D01*
X132399999Y-106997445D01*
X132244047Y-107017977D01*
X132244043Y-107017978D01*
X132098723Y-107078171D01*
X131973929Y-107173929D01*
X131878171Y-107298723D01*
X131817978Y-107444043D01*
X131817977Y-107444047D01*
X131797445Y-107599999D01*
X131797445Y-107600000D01*
X131491000Y-107600000D01*
X131491000Y-103842530D01*
X145830746Y-103842530D01*
X145840745Y-104052456D01*
X145890296Y-104256707D01*
X145890298Y-104256711D01*
X145977598Y-104447872D01*
X145977601Y-104447877D01*
X145977602Y-104447879D01*
X145977604Y-104447882D01*
X146099514Y-104619081D01*
X146099515Y-104619082D01*
X146099520Y-104619088D01*
X146251620Y-104764114D01*
X146392797Y-104854843D01*
X146428428Y-104877742D01*
X146623543Y-104955854D01*
X146726729Y-104975741D01*
X146829914Y-104995629D01*
X146829915Y-104995629D01*
X146987419Y-104995629D01*
X146987425Y-104995629D01*
X147144218Y-104980657D01*
X147345875Y-104921445D01*
X147532682Y-104825140D01*
X147697886Y-104695221D01*
X147835519Y-104536385D01*
X147940604Y-104354373D01*
X148009344Y-104155762D01*
X148039254Y-103947731D01*
X148034243Y-103842530D01*
X152830746Y-103842530D01*
X152840745Y-104052456D01*
X152890296Y-104256707D01*
X152890298Y-104256711D01*
X152977598Y-104447872D01*
X152977601Y-104447877D01*
X152977602Y-104447879D01*
X152977604Y-104447882D01*
X153099514Y-104619081D01*
X153099515Y-104619082D01*
X153099520Y-104619088D01*
X153251620Y-104764114D01*
X153392797Y-104854843D01*
X153428428Y-104877742D01*
X153623543Y-104955854D01*
X153726729Y-104975741D01*
X153829914Y-104995629D01*
X153829915Y-104995629D01*
X153987419Y-104995629D01*
X153987425Y-104995629D01*
X154144218Y-104980657D01*
X154345875Y-104921445D01*
X154532682Y-104825140D01*
X154697886Y-104695221D01*
X154835519Y-104536385D01*
X154940604Y-104354373D01*
X155009344Y-104155762D01*
X155039254Y-103947731D01*
X155029254Y-103737799D01*
X154979704Y-103533553D01*
X154979701Y-103533546D01*
X154892401Y-103342385D01*
X154892398Y-103342380D01*
X154892397Y-103342379D01*
X154892396Y-103342376D01*
X154770486Y-103171177D01*
X154770484Y-103171175D01*
X154770479Y-103171169D01*
X154618379Y-103026143D01*
X154441574Y-102912517D01*
X154246455Y-102834403D01*
X154040086Y-102794629D01*
X154040085Y-102794629D01*
X153882575Y-102794629D01*
X153725782Y-102809601D01*
X153725778Y-102809602D01*
X153524127Y-102868812D01*
X153337313Y-102965120D01*
X153172116Y-103095034D01*
X153172112Y-103095038D01*
X153034478Y-103253875D01*
X152929398Y-103435879D01*
X152860656Y-103634494D01*
X152860656Y-103634496D01*
X152845804Y-103737799D01*
X152830746Y-103842530D01*
X148034243Y-103842530D01*
X148029254Y-103737799D01*
X147979704Y-103533553D01*
X147979701Y-103533546D01*
X147892401Y-103342385D01*
X147892398Y-103342380D01*
X147892397Y-103342379D01*
X147892396Y-103342376D01*
X147770486Y-103171177D01*
X147770484Y-103171175D01*
X147770479Y-103171169D01*
X147618379Y-103026143D01*
X147441574Y-102912517D01*
X147246455Y-102834403D01*
X147040086Y-102794629D01*
X147040085Y-102794629D01*
X146882575Y-102794629D01*
X146725782Y-102809601D01*
X146725778Y-102809602D01*
X146524127Y-102868812D01*
X146337313Y-102965120D01*
X146172116Y-103095034D01*
X146172112Y-103095038D01*
X146034478Y-103253875D01*
X145929398Y-103435879D01*
X145860656Y-103634494D01*
X145860656Y-103634496D01*
X145845804Y-103737799D01*
X145830746Y-103842530D01*
X131491000Y-103842530D01*
X131491000Y-93735129D01*
X153207551Y-93735129D01*
X153227317Y-93986280D01*
X153286126Y-94231239D01*
X153382533Y-94463988D01*
X153514160Y-94678782D01*
X153514161Y-94678785D01*
X153514164Y-94678788D01*
X153677776Y-94870353D01*
X153826066Y-94997004D01*
X153869343Y-95033967D01*
X153869346Y-95033968D01*
X154084140Y-95165595D01*
X154316889Y-95262002D01*
X154561852Y-95320812D01*
X154717950Y-95333097D01*
X154750116Y-95335629D01*
X154750118Y-95335629D01*
X154875884Y-95335629D01*
X154905518Y-95333296D01*
X155064148Y-95320812D01*
X155309111Y-95262002D01*
X155541859Y-95165595D01*
X155756659Y-95033965D01*
X155948224Y-94870353D01*
X156111836Y-94678788D01*
X156243466Y-94463988D01*
X156339873Y-94231240D01*
X156398683Y-93986277D01*
X156418449Y-93735129D01*
X156398683Y-93483981D01*
X156339873Y-93239018D01*
X156243466Y-93006270D01*
X156243466Y-93006269D01*
X156111839Y-92791475D01*
X156111838Y-92791472D01*
X156074875Y-92748195D01*
X155948224Y-92599905D01*
X155821571Y-92491733D01*
X155756656Y-92436290D01*
X155756653Y-92436289D01*
X155541859Y-92304662D01*
X155309110Y-92208255D01*
X155064150Y-92149446D01*
X154875884Y-92134629D01*
X154875882Y-92134629D01*
X154750118Y-92134629D01*
X154750116Y-92134629D01*
X154561849Y-92149446D01*
X154316889Y-92208255D01*
X154084140Y-92304662D01*
X153869346Y-92436289D01*
X153869343Y-92436290D01*
X153677776Y-92599905D01*
X153514161Y-92791472D01*
X153514160Y-92791475D01*
X153382533Y-93006269D01*
X153286126Y-93239018D01*
X153227317Y-93483977D01*
X153207551Y-93735129D01*
X131491000Y-93735129D01*
X131491000Y-91242460D01*
X131510685Y-91175421D01*
X131563489Y-91129666D01*
X131615000Y-91118460D01*
X156193421Y-91118460D01*
X156207388Y-91118460D01*
X156212255Y-91118651D01*
G37*
G04 #@! TD.AperFunction*
G04 #@! TA.AperFunction,Conductor*
G36*
X131053039Y-91138145D02*
G01*
X131098794Y-91190949D01*
X131110000Y-91242460D01*
X131110000Y-108745300D01*
X131090315Y-108812339D01*
X131037511Y-108858094D01*
X130986000Y-108869300D01*
X129660401Y-108869300D01*
X129593362Y-108849615D01*
X129562025Y-108820786D01*
X129526072Y-108773930D01*
X129488761Y-108745300D01*
X129401278Y-108678172D01*
X129401277Y-108678171D01*
X129401275Y-108678170D01*
X129255956Y-108617978D01*
X129255954Y-108617977D01*
X129255953Y-108617977D01*
X129177976Y-108607711D01*
X129100001Y-108597445D01*
X129099999Y-108597445D01*
X128944047Y-108617977D01*
X128944043Y-108617978D01*
X128798723Y-108678171D01*
X128673929Y-108773929D01*
X128578171Y-108898723D01*
X128517978Y-109044043D01*
X128517977Y-109044047D01*
X128497445Y-109199999D01*
X128497445Y-109200000D01*
X128517977Y-109355952D01*
X128517978Y-109355956D01*
X128578170Y-109501275D01*
X128578171Y-109501277D01*
X128578172Y-109501278D01*
X128673929Y-109626071D01*
X128798722Y-109721828D01*
X128798723Y-109721828D01*
X128798724Y-109721829D01*
X128847163Y-109741893D01*
X128944047Y-109782023D01*
X129081855Y-109800166D01*
X129099999Y-109802555D01*
X129100000Y-109802555D01*
X129100001Y-109802555D01*
X129116253Y-109800415D01*
X129255953Y-109782023D01*
X129401278Y-109721828D01*
X129526071Y-109626071D01*
X129562027Y-109579213D01*
X129618455Y-109538010D01*
X129660402Y-109530700D01*
X130986000Y-109530700D01*
X131053039Y-109550385D01*
X131073496Y-109573994D01*
X131073681Y-109573810D01*
X131110000Y-109610129D01*
X134125958Y-109610129D01*
X134192997Y-109629814D01*
X134213639Y-109646448D01*
X137755317Y-113188126D01*
X137788802Y-113249449D01*
X137783818Y-113319141D01*
X137741946Y-113375074D01*
X137676482Y-113399491D01*
X137628792Y-113392827D01*
X137628720Y-113393099D01*
X137626522Y-113392510D01*
X137625226Y-113392329D01*
X137623494Y-113391698D01*
X137410000Y-113334493D01*
X137410000Y-114229627D01*
X137302315Y-114180449D01*
X137195763Y-114165129D01*
X137124237Y-114165129D01*
X137017685Y-114180449D01*
X136910000Y-114229627D01*
X136910000Y-113334493D01*
X136909999Y-113334493D01*
X136696513Y-113391696D01*
X136696507Y-113391699D01*
X136482422Y-113491528D01*
X136482420Y-113491529D01*
X136288926Y-113627015D01*
X136288920Y-113627020D01*
X136121891Y-113794049D01*
X136121886Y-113794055D01*
X135986400Y-113987549D01*
X135986399Y-113987551D01*
X135886570Y-114201636D01*
X135886564Y-114201651D01*
X135879154Y-114229306D01*
X135842788Y-114288966D01*
X135779941Y-114319494D01*
X135710566Y-114311199D01*
X135656688Y-114266712D01*
X135648380Y-114252483D01*
X135642252Y-114240177D01*
X135563088Y-114081194D01*
X135439732Y-113917844D01*
X135439730Y-113917841D01*
X135288463Y-113779944D01*
X135288462Y-113779943D01*
X135184913Y-113715828D01*
X135114428Y-113672185D01*
X135029905Y-113639440D01*
X134974504Y-113596867D01*
X134950914Y-113531099D01*
X134950700Y-113523814D01*
X134950700Y-112337149D01*
X134950936Y-112331743D01*
X134954524Y-112290734D01*
X134948169Y-112267019D01*
X134943868Y-112250969D01*
X134942700Y-112245699D01*
X134940111Y-112231016D01*
X134935551Y-112205149D01*
X134935550Y-112205147D01*
X134933965Y-112200794D01*
X134926298Y-112182283D01*
X134924340Y-112178085D01*
X134924340Y-112178084D01*
X134900727Y-112144360D01*
X134897820Y-112139798D01*
X134877239Y-112104151D01*
X134845704Y-112077690D01*
X134841715Y-112074034D01*
X134445968Y-111678288D01*
X134442312Y-111674298D01*
X134415849Y-111642761D01*
X134380196Y-111622176D01*
X134375648Y-111619279D01*
X134341916Y-111595660D01*
X134341914Y-111595659D01*
X134341912Y-111595658D01*
X134337718Y-111593702D01*
X134319204Y-111586033D01*
X134314852Y-111584449D01*
X134274310Y-111577300D01*
X134269028Y-111576129D01*
X134229266Y-111565475D01*
X134197098Y-111568290D01*
X134188251Y-111569064D01*
X134182851Y-111569300D01*
X127800495Y-111569300D01*
X127733456Y-111549615D01*
X127712814Y-111532981D01*
X127367019Y-111187186D01*
X127333534Y-111125863D01*
X127330700Y-111099505D01*
X127330700Y-101060401D01*
X127350385Y-100993362D01*
X127379214Y-100962025D01*
X127424018Y-100927646D01*
X127426071Y-100926071D01*
X127521828Y-100801278D01*
X127582023Y-100655953D01*
X127602555Y-100500000D01*
X127582023Y-100344047D01*
X127521828Y-100198723D01*
X127426071Y-100073929D01*
X127333853Y-100003168D01*
X127292653Y-99946742D01*
X127288498Y-99876996D01*
X127292817Y-99862393D01*
X127297151Y-99850485D01*
X127306285Y-99830899D01*
X127307895Y-99828111D01*
X127315551Y-99814851D01*
X127318769Y-99796598D01*
X127324365Y-99775715D01*
X127330699Y-99758313D01*
X127330700Y-99758310D01*
X127330700Y-99060401D01*
X127350385Y-98993362D01*
X127379214Y-98962025D01*
X127426071Y-98926071D01*
X127521828Y-98801278D01*
X127582023Y-98655953D01*
X127602555Y-98500000D01*
X127582023Y-98344047D01*
X127521828Y-98198723D01*
X127426071Y-98073929D01*
X127301278Y-97978172D01*
X127301277Y-97978171D01*
X127301275Y-97978170D01*
X127268418Y-97964561D01*
X127214014Y-97920721D01*
X127191949Y-97854427D01*
X127209228Y-97786727D01*
X127260365Y-97739117D01*
X127268418Y-97735439D01*
X127276163Y-97732230D01*
X127301278Y-97721828D01*
X127426071Y-97626071D01*
X127521828Y-97501278D01*
X127582023Y-97355953D01*
X127602555Y-97200000D01*
X127582023Y-97044047D01*
X127521828Y-96898723D01*
X127426071Y-96773929D01*
X127426069Y-96773927D01*
X127426068Y-96773926D01*
X127379213Y-96737972D01*
X127338010Y-96681544D01*
X127330700Y-96639597D01*
X127330700Y-96417137D01*
X127330936Y-96411730D01*
X127331851Y-96401278D01*
X127334523Y-96370733D01*
X127323867Y-96330965D01*
X127322701Y-96325708D01*
X127315551Y-96285149D01*
X127315550Y-96285147D01*
X127313957Y-96280768D01*
X127306312Y-96262312D01*
X127304340Y-96258085D01*
X127304340Y-96258083D01*
X127280716Y-96224346D01*
X127277828Y-96219812D01*
X127257239Y-96184151D01*
X127225692Y-96157679D01*
X127221720Y-96154040D01*
X126845969Y-95778289D01*
X126842318Y-95774305D01*
X126815849Y-95742761D01*
X126780196Y-95722176D01*
X126775648Y-95719279D01*
X126741916Y-95695660D01*
X126741914Y-95695659D01*
X126741912Y-95695658D01*
X126737718Y-95693702D01*
X126719204Y-95686033D01*
X126714852Y-95684449D01*
X126674310Y-95677300D01*
X126669028Y-95676129D01*
X126629266Y-95665475D01*
X126597098Y-95668290D01*
X126588251Y-95669064D01*
X126582851Y-95669300D01*
X121417149Y-95669300D01*
X121411748Y-95669064D01*
X121401623Y-95668178D01*
X121370732Y-95665475D01*
X121330972Y-95676129D01*
X121325689Y-95677300D01*
X121285153Y-95684447D01*
X121280818Y-95686025D01*
X121262271Y-95693706D01*
X121258084Y-95695659D01*
X121224361Y-95719272D01*
X121219800Y-95722177D01*
X121184154Y-95742758D01*
X121184148Y-95742764D01*
X121157680Y-95774305D01*
X121154025Y-95778293D01*
X119178293Y-97754025D01*
X119174305Y-97757680D01*
X119142764Y-97784148D01*
X119142758Y-97784154D01*
X119122177Y-97819800D01*
X119119272Y-97824361D01*
X119095659Y-97858084D01*
X119093706Y-97862271D01*
X119086025Y-97880818D01*
X119084447Y-97885153D01*
X119077300Y-97925689D01*
X119076129Y-97930972D01*
X119065475Y-97970732D01*
X119068178Y-98001623D01*
X119068768Y-98008367D01*
X119069064Y-98011742D01*
X119069300Y-98017149D01*
X119069300Y-100782849D01*
X119069064Y-100788255D01*
X119065475Y-100829267D01*
X119076129Y-100869028D01*
X119077300Y-100874310D01*
X119084449Y-100914852D01*
X119086033Y-100919204D01*
X119093702Y-100937718D01*
X119095658Y-100941912D01*
X119095659Y-100941914D01*
X119095660Y-100941916D01*
X119119279Y-100975648D01*
X119122176Y-100980196D01*
X119142761Y-101015849D01*
X119174306Y-101042319D01*
X119178289Y-101045969D01*
X119554040Y-101421720D01*
X119557679Y-101425692D01*
X119584151Y-101457239D01*
X119619812Y-101477828D01*
X119624346Y-101480716D01*
X119658083Y-101504340D01*
X119658085Y-101504340D01*
X119662312Y-101506312D01*
X119680768Y-101513957D01*
X119685147Y-101515550D01*
X119685149Y-101515551D01*
X119725708Y-101522701D01*
X119730965Y-101523867D01*
X119770733Y-101534523D01*
X119811737Y-101530935D01*
X119817138Y-101530700D01*
X120071501Y-101530700D01*
X120138540Y-101550385D01*
X120184295Y-101603189D01*
X120195501Y-101654700D01*
X120195501Y-101725066D01*
X120204524Y-101770435D01*
X120210566Y-101800810D01*
X120210566Y-101849189D01*
X120210266Y-101850699D01*
X120190515Y-101949998D01*
X120189326Y-101955974D01*
X120186939Y-101955499D01*
X120164750Y-102010364D01*
X120107693Y-102050692D01*
X120102928Y-102052216D01*
X120089837Y-102056112D01*
X120082779Y-102058535D01*
X120036980Y-102083320D01*
X119990217Y-102106180D01*
X119984121Y-102110532D01*
X119978258Y-102115097D01*
X119942984Y-102153414D01*
X119383407Y-102712990D01*
X119363554Y-102729113D01*
X119355485Y-102734384D01*
X119334932Y-102760790D01*
X119329855Y-102766541D01*
X119327346Y-102769051D01*
X119327329Y-102769071D01*
X119314463Y-102787090D01*
X119282487Y-102828173D01*
X119278928Y-102834748D01*
X119275657Y-102841441D01*
X119260799Y-102891349D01*
X119243898Y-102940580D01*
X119242670Y-102947941D01*
X119241747Y-102955345D01*
X119243900Y-103007367D01*
X119243900Y-105550205D01*
X119241261Y-105575653D01*
X119239283Y-105585081D01*
X119243423Y-105618289D01*
X119243900Y-105625966D01*
X119243900Y-105629508D01*
X119247545Y-105651353D01*
X119253985Y-105703014D01*
X119256116Y-105710172D01*
X119258537Y-105717224D01*
X119283322Y-105763023D01*
X119306178Y-105809778D01*
X119310526Y-105815868D01*
X119315100Y-105821745D01*
X119353414Y-105857015D01*
X119812989Y-106316590D01*
X119829116Y-106336448D01*
X119834386Y-106344515D01*
X119834388Y-106344517D01*
X119860797Y-106365071D01*
X119866551Y-106370152D01*
X119869065Y-106372666D01*
X119869066Y-106372667D01*
X119887089Y-106385536D01*
X119928169Y-106417509D01*
X119928172Y-106417511D01*
X119928173Y-106417511D01*
X119934754Y-106421073D01*
X119934771Y-106421081D01*
X119934791Y-106421091D01*
X119941439Y-106424341D01*
X119991348Y-106439199D01*
X120040577Y-106456100D01*
X120040581Y-106456100D01*
X120047909Y-106457323D01*
X120047953Y-106457329D01*
X120048004Y-106457337D01*
X120055343Y-106458252D01*
X120055343Y-106458251D01*
X120055344Y-106458252D01*
X120107367Y-106456100D01*
X120559088Y-106456100D01*
X120626127Y-106475785D01*
X120657464Y-106504614D01*
X120673925Y-106526067D01*
X120673927Y-106526068D01*
X120673929Y-106526071D01*
X120798722Y-106621828D01*
X120944047Y-106682023D01*
X121081855Y-106700166D01*
X121099999Y-106702555D01*
X121100000Y-106702555D01*
X121100001Y-106702555D01*
X121138988Y-106697422D01*
X121255953Y-106682023D01*
X121274049Y-106674527D01*
X121343513Y-106667058D01*
X121405993Y-106698331D01*
X121441647Y-106758418D01*
X121445500Y-106789088D01*
X121445500Y-108625063D01*
X121460266Y-108699301D01*
X121516515Y-108783484D01*
X121550234Y-108806014D01*
X121600699Y-108839734D01*
X121600702Y-108839734D01*
X121600703Y-108839735D01*
X121625666Y-108844700D01*
X121674933Y-108854500D01*
X123725066Y-108854499D01*
X123799301Y-108839734D01*
X123883484Y-108783484D01*
X123939734Y-108699301D01*
X123954500Y-108625067D01*
X123954499Y-106574934D01*
X123939734Y-106500699D01*
X123921068Y-106472765D01*
X123883484Y-106416515D01*
X123817860Y-106372667D01*
X123799301Y-106360266D01*
X123799299Y-106360265D01*
X123799296Y-106360264D01*
X123725071Y-106345500D01*
X123725067Y-106345500D01*
X123154700Y-106345500D01*
X123087661Y-106325815D01*
X123041906Y-106273011D01*
X123030700Y-106221500D01*
X123030700Y-105188342D01*
X123050385Y-105121303D01*
X123067019Y-105100661D01*
X123300662Y-104867019D01*
X123361985Y-104833534D01*
X123388343Y-104830700D01*
X124382851Y-104830700D01*
X124388252Y-104830935D01*
X124429267Y-104834524D01*
X124469037Y-104823866D01*
X124474297Y-104822700D01*
X124514851Y-104815551D01*
X124514855Y-104815548D01*
X124519248Y-104813950D01*
X124537662Y-104806322D01*
X124541910Y-104804341D01*
X124541916Y-104804340D01*
X124575642Y-104780723D01*
X124580190Y-104777825D01*
X124615849Y-104757239D01*
X124642319Y-104725691D01*
X124645959Y-104721719D01*
X125321719Y-104045959D01*
X125325691Y-104042319D01*
X125357239Y-104015849D01*
X125377823Y-103980194D01*
X125380715Y-103975654D01*
X125404340Y-103941917D01*
X125404341Y-103941911D01*
X125406314Y-103937681D01*
X125413950Y-103919248D01*
X125415546Y-103914858D01*
X125415551Y-103914851D01*
X125422703Y-103874280D01*
X125423865Y-103869038D01*
X125434523Y-103829267D01*
X125430935Y-103788264D01*
X125430700Y-103782861D01*
X125430700Y-103060401D01*
X125450385Y-102993362D01*
X125479214Y-102962025D01*
X125526071Y-102926071D01*
X125532523Y-102917661D01*
X125588949Y-102876458D01*
X125658694Y-102872301D01*
X125719616Y-102906512D01*
X125752371Y-102968228D01*
X125754900Y-102993146D01*
X125754900Y-112851185D01*
X125735215Y-112918224D01*
X125718581Y-112938866D01*
X125033785Y-113623661D01*
X124972462Y-113657146D01*
X124902770Y-113652162D01*
X124901310Y-113651607D01*
X124763559Y-113598242D01*
X124763558Y-113598241D01*
X124763556Y-113598241D01*
X124562347Y-113560629D01*
X124357653Y-113560629D01*
X124156444Y-113598241D01*
X124156441Y-113598241D01*
X124156441Y-113598242D01*
X123965575Y-113672183D01*
X123965569Y-113672186D01*
X123791539Y-113779941D01*
X123791537Y-113779943D01*
X123640269Y-113917841D01*
X123516912Y-114081193D01*
X123425673Y-114264424D01*
X123369654Y-114461312D01*
X123350768Y-114665128D01*
X123350768Y-114665129D01*
X123369654Y-114868945D01*
X123369654Y-114868947D01*
X123369655Y-114868950D01*
X123406596Y-114998785D01*
X123425673Y-115065833D01*
X123516912Y-115249064D01*
X123640269Y-115412416D01*
X123791537Y-115550314D01*
X123791539Y-115550316D01*
X123965569Y-115658071D01*
X123965575Y-115658074D01*
X124006010Y-115673738D01*
X124156444Y-115732017D01*
X124357653Y-115769629D01*
X124357656Y-115769629D01*
X124562344Y-115769629D01*
X124562347Y-115769629D01*
X124763556Y-115732017D01*
X124954427Y-115658073D01*
X125128462Y-115550315D01*
X125279732Y-115412414D01*
X125403088Y-115249064D01*
X125494328Y-115065830D01*
X125550345Y-114868950D01*
X125569232Y-114665129D01*
X125550345Y-114461308D01*
X125494328Y-114264428D01*
X125478931Y-114233506D01*
X125466671Y-114164725D01*
X125493544Y-114100230D01*
X125502241Y-114090567D01*
X126307337Y-113285471D01*
X126311286Y-113281853D01*
X126342839Y-113255378D01*
X126363422Y-113219726D01*
X126366323Y-113215173D01*
X126389940Y-113181445D01*
X126389941Y-113181439D01*
X126391922Y-113177193D01*
X126399550Y-113158777D01*
X126401148Y-113154384D01*
X126401151Y-113154380D01*
X126408300Y-113113826D01*
X126409466Y-113108566D01*
X126420124Y-113068796D01*
X126416535Y-113027781D01*
X126416300Y-113022378D01*
X126416300Y-112739524D01*
X126435985Y-112672485D01*
X126488789Y-112626730D01*
X126557947Y-112616786D01*
X126621503Y-112645811D01*
X126627981Y-112651843D01*
X126632981Y-112656843D01*
X126666466Y-112718166D01*
X126669300Y-112744524D01*
X126669300Y-113523814D01*
X126649615Y-113590853D01*
X126596811Y-113636608D01*
X126590095Y-113639440D01*
X126505571Y-113672185D01*
X126331536Y-113779944D01*
X126180269Y-113917841D01*
X126056912Y-114081193D01*
X125965673Y-114264424D01*
X125909654Y-114461312D01*
X125890768Y-114665128D01*
X125890768Y-114665129D01*
X125909654Y-114868945D01*
X125909654Y-114868947D01*
X125909655Y-114868950D01*
X125946596Y-114998785D01*
X125965673Y-115065833D01*
X126056912Y-115249064D01*
X126180269Y-115412416D01*
X126331537Y-115550314D01*
X126331539Y-115550316D01*
X126505569Y-115658071D01*
X126505575Y-115658074D01*
X126546010Y-115673738D01*
X126696444Y-115732017D01*
X126897653Y-115769629D01*
X126897656Y-115769629D01*
X127102344Y-115769629D01*
X127102347Y-115769629D01*
X127303556Y-115732017D01*
X127494427Y-115658073D01*
X127668462Y-115550315D01*
X127819732Y-115412414D01*
X127943088Y-115249064D01*
X128034328Y-115065830D01*
X128090345Y-114868950D01*
X128109232Y-114665129D01*
X128090345Y-114461308D01*
X128034328Y-114264428D01*
X127943088Y-114081194D01*
X127819732Y-113917844D01*
X127819730Y-113917841D01*
X127668463Y-113779944D01*
X127668462Y-113779943D01*
X127564913Y-113715828D01*
X127494428Y-113672185D01*
X127409905Y-113639440D01*
X127354504Y-113596867D01*
X127330914Y-113531099D01*
X127330700Y-113523814D01*
X127330700Y-113222871D01*
X127350385Y-113155832D01*
X127403189Y-113110077D01*
X127472347Y-113100133D01*
X127535903Y-113129158D01*
X127542378Y-113135187D01*
X128030851Y-113623661D01*
X128497747Y-114090557D01*
X128531232Y-114151880D01*
X128526248Y-114221572D01*
X128521068Y-114233506D01*
X128505674Y-114264422D01*
X128505671Y-114264429D01*
X128449654Y-114461312D01*
X128430768Y-114665128D01*
X128430768Y-114665129D01*
X128449654Y-114868945D01*
X128449654Y-114868947D01*
X128449655Y-114868950D01*
X128486596Y-114998785D01*
X128505673Y-115065833D01*
X128596912Y-115249064D01*
X128720269Y-115412416D01*
X128871537Y-115550314D01*
X128871539Y-115550316D01*
X129045569Y-115658071D01*
X129045575Y-115658074D01*
X129086010Y-115673738D01*
X129236444Y-115732017D01*
X129437653Y-115769629D01*
X129437656Y-115769629D01*
X129642344Y-115769629D01*
X129642347Y-115769629D01*
X129843556Y-115732017D01*
X130034427Y-115658073D01*
X130208462Y-115550315D01*
X130359732Y-115412414D01*
X130483088Y-115249064D01*
X130574328Y-115065830D01*
X130630345Y-114868950D01*
X130649232Y-114665129D01*
X130970768Y-114665129D01*
X130989654Y-114868945D01*
X130989654Y-114868947D01*
X130989655Y-114868950D01*
X131026596Y-114998785D01*
X131045673Y-115065833D01*
X131136912Y-115249064D01*
X131260269Y-115412416D01*
X131411537Y-115550314D01*
X131411539Y-115550316D01*
X131585569Y-115658071D01*
X131585575Y-115658074D01*
X131626010Y-115673738D01*
X131776444Y-115732017D01*
X131977653Y-115769629D01*
X131977656Y-115769629D01*
X132182344Y-115769629D01*
X132182347Y-115769629D01*
X132383556Y-115732017D01*
X132574427Y-115658073D01*
X132748462Y-115550315D01*
X132899732Y-115412414D01*
X133023088Y-115249064D01*
X133114328Y-115065830D01*
X133170345Y-114868950D01*
X133189232Y-114665129D01*
X133170345Y-114461308D01*
X133114328Y-114264428D01*
X133023088Y-114081194D01*
X132899732Y-113917844D01*
X132899730Y-113917841D01*
X132748462Y-113779943D01*
X132748460Y-113779941D01*
X132574430Y-113672186D01*
X132574424Y-113672183D01*
X132383561Y-113598243D01*
X132383556Y-113598241D01*
X132182347Y-113560629D01*
X131977653Y-113560629D01*
X131776444Y-113598241D01*
X131776441Y-113598241D01*
X131776441Y-113598242D01*
X131585575Y-113672183D01*
X131585569Y-113672186D01*
X131411539Y-113779941D01*
X131411537Y-113779943D01*
X131260269Y-113917841D01*
X131136912Y-114081193D01*
X131045673Y-114264424D01*
X130989654Y-114461312D01*
X130970768Y-114665128D01*
X130970768Y-114665129D01*
X130649232Y-114665129D01*
X130630345Y-114461308D01*
X130574328Y-114264428D01*
X130483088Y-114081194D01*
X130359732Y-113917844D01*
X130359730Y-113917841D01*
X130208462Y-113779943D01*
X130208460Y-113779941D01*
X130034430Y-113672186D01*
X130034424Y-113672183D01*
X129843561Y-113598243D01*
X129843556Y-113598241D01*
X129642347Y-113560629D01*
X129437653Y-113560629D01*
X129236444Y-113598241D01*
X129236441Y-113598241D01*
X129236436Y-113598243D01*
X129098689Y-113651607D01*
X129029066Y-113657470D01*
X128967326Y-113624760D01*
X128966214Y-113623662D01*
X128411344Y-113068792D01*
X127784931Y-112442380D01*
X127751447Y-112381058D01*
X127756431Y-112311366D01*
X127798303Y-112255433D01*
X127863767Y-112231016D01*
X127872613Y-112230700D01*
X134011658Y-112230700D01*
X134078697Y-112250385D01*
X134099339Y-112267019D01*
X134252981Y-112420661D01*
X134286466Y-112481984D01*
X134289300Y-112508342D01*
X134289300Y-113523814D01*
X134269615Y-113590853D01*
X134216811Y-113636608D01*
X134210095Y-113639440D01*
X134125571Y-113672185D01*
X133951536Y-113779944D01*
X133800269Y-113917841D01*
X133676912Y-114081193D01*
X133585673Y-114264424D01*
X133529654Y-114461312D01*
X133510768Y-114665128D01*
X133510768Y-114665129D01*
X133529654Y-114868945D01*
X133529654Y-114868947D01*
X133529655Y-114868950D01*
X133566596Y-114998785D01*
X133585673Y-115065833D01*
X133676912Y-115249064D01*
X133800269Y-115412416D01*
X133951537Y-115550314D01*
X133951539Y-115550316D01*
X134125569Y-115658071D01*
X134125575Y-115658074D01*
X134166010Y-115673738D01*
X134316444Y-115732017D01*
X134517653Y-115769629D01*
X134517656Y-115769629D01*
X134722344Y-115769629D01*
X134722347Y-115769629D01*
X134923556Y-115732017D01*
X135114427Y-115658073D01*
X135288462Y-115550315D01*
X135439732Y-115412414D01*
X135563088Y-115249064D01*
X135648380Y-115077774D01*
X135695883Y-115026537D01*
X135763545Y-115009116D01*
X135829886Y-115031041D01*
X135873841Y-115085353D01*
X135879155Y-115100952D01*
X135886567Y-115128614D01*
X135886570Y-115128621D01*
X135986399Y-115342707D01*
X136121894Y-115536211D01*
X136288917Y-115703234D01*
X136482421Y-115838729D01*
X136696507Y-115938558D01*
X136696516Y-115938562D01*
X136910000Y-115995763D01*
X136910000Y-115100630D01*
X137017685Y-115149809D01*
X137124237Y-115165129D01*
X137195763Y-115165129D01*
X137302315Y-115149809D01*
X137410000Y-115100630D01*
X137410000Y-115995762D01*
X137623483Y-115938562D01*
X137623492Y-115938558D01*
X137837578Y-115838729D01*
X138031082Y-115703234D01*
X138198105Y-115536211D01*
X138333599Y-115342707D01*
X138359117Y-115287984D01*
X138405289Y-115235544D01*
X138472482Y-115216391D01*
X138539364Y-115236606D01*
X138584699Y-115289771D01*
X138595500Y-115340386D01*
X138595500Y-115540192D01*
X138610266Y-115614430D01*
X138666515Y-115698613D01*
X138700234Y-115721143D01*
X138750699Y-115754863D01*
X138750702Y-115754863D01*
X138750703Y-115754864D01*
X138775666Y-115759829D01*
X138824933Y-115769629D01*
X140575066Y-115769628D01*
X140649301Y-115754863D01*
X140733484Y-115698613D01*
X140789734Y-115614430D01*
X140804500Y-115540196D01*
X140804499Y-113790063D01*
X140789734Y-113715828D01*
X140750740Y-113657470D01*
X140733484Y-113631644D01*
X140672435Y-113590853D01*
X140649301Y-113575395D01*
X140649299Y-113575394D01*
X140649296Y-113575393D01*
X140575071Y-113560629D01*
X140575067Y-113560629D01*
X139114543Y-113560629D01*
X139047504Y-113540944D01*
X139026862Y-113524310D01*
X137176850Y-111674298D01*
X135324360Y-109821809D01*
X135290876Y-109760487D01*
X135295860Y-109690795D01*
X135337732Y-109634862D01*
X135403196Y-109610445D01*
X135412042Y-109610129D01*
X143767000Y-109610129D01*
X143834039Y-109629814D01*
X143879794Y-109682618D01*
X143891000Y-109734129D01*
X143891000Y-116346056D01*
X143871315Y-116413095D01*
X143818511Y-116458850D01*
X143767633Y-116470054D01*
X129117864Y-116544798D01*
X118112613Y-116544798D01*
X118107745Y-116544607D01*
X117929097Y-116530543D01*
X117909879Y-116527498D01*
X117742761Y-116487373D01*
X117724257Y-116481360D01*
X117565478Y-116415589D01*
X117548141Y-116406756D01*
X117401593Y-116316949D01*
X117385852Y-116305512D01*
X117255163Y-116193893D01*
X117241405Y-116180135D01*
X117129782Y-116049443D01*
X117118348Y-116033706D01*
X117028541Y-115887155D01*
X117019710Y-115869823D01*
X117006830Y-115838729D01*
X116953934Y-115711031D01*
X116947929Y-115692554D01*
X116907797Y-115525401D01*
X116904757Y-115506207D01*
X116890691Y-115327528D01*
X116890500Y-115322661D01*
X116890500Y-114055129D01*
X117774551Y-114055129D01*
X117794317Y-114306280D01*
X117853126Y-114551239D01*
X117949533Y-114783988D01*
X118081160Y-114998782D01*
X118081161Y-114998785D01*
X118136604Y-115063700D01*
X118244776Y-115190353D01*
X118383365Y-115308719D01*
X118436343Y-115353967D01*
X118436346Y-115353968D01*
X118651140Y-115485595D01*
X118807392Y-115550316D01*
X118883889Y-115582002D01*
X119128852Y-115640812D01*
X119284950Y-115653097D01*
X119317116Y-115655629D01*
X119317118Y-115655629D01*
X119442884Y-115655629D01*
X119472518Y-115653296D01*
X119631148Y-115640812D01*
X119876111Y-115582002D01*
X120108859Y-115485595D01*
X120323659Y-115353965D01*
X120515224Y-115190353D01*
X120678836Y-114998788D01*
X120810466Y-114783988D01*
X120906873Y-114551240D01*
X120965683Y-114306277D01*
X120985449Y-114055129D01*
X120965683Y-113803981D01*
X120906873Y-113559018D01*
X120840795Y-113399491D01*
X120810466Y-113326269D01*
X120678839Y-113111475D01*
X120678838Y-113111472D01*
X120602744Y-113022378D01*
X120515224Y-112919905D01*
X120388571Y-112811733D01*
X120323656Y-112756290D01*
X120323653Y-112756289D01*
X120108859Y-112624662D01*
X119876110Y-112528255D01*
X119631150Y-112469446D01*
X119442884Y-112454629D01*
X119442882Y-112454629D01*
X119317118Y-112454629D01*
X119317116Y-112454629D01*
X119128849Y-112469446D01*
X118883889Y-112528255D01*
X118651140Y-112624662D01*
X118436346Y-112756289D01*
X118436343Y-112756290D01*
X118244776Y-112919905D01*
X118081161Y-113111472D01*
X118081160Y-113111475D01*
X117949533Y-113326269D01*
X117853126Y-113559018D01*
X117794317Y-113803977D01*
X117774551Y-114055129D01*
X116890500Y-114055129D01*
X116890500Y-93735129D01*
X117774551Y-93735129D01*
X117794317Y-93986280D01*
X117853126Y-94231239D01*
X117949533Y-94463988D01*
X118081160Y-94678782D01*
X118081161Y-94678785D01*
X118081164Y-94678788D01*
X118244776Y-94870353D01*
X118393066Y-94997004D01*
X118436343Y-95033967D01*
X118436346Y-95033968D01*
X118651140Y-95165595D01*
X118883889Y-95262002D01*
X119128852Y-95320812D01*
X119284950Y-95333097D01*
X119317116Y-95335629D01*
X119317118Y-95335629D01*
X119442884Y-95335629D01*
X119472518Y-95333296D01*
X119631148Y-95320812D01*
X119876111Y-95262002D01*
X120108859Y-95165595D01*
X120323659Y-95033965D01*
X120515224Y-94870353D01*
X120678836Y-94678788D01*
X120810466Y-94463988D01*
X120906873Y-94231240D01*
X120965683Y-93986277D01*
X120985449Y-93735129D01*
X120965683Y-93483981D01*
X120906873Y-93239018D01*
X120810466Y-93006270D01*
X120810466Y-93006269D01*
X120678839Y-92791475D01*
X120678838Y-92791472D01*
X120641875Y-92748195D01*
X120515224Y-92599905D01*
X120388571Y-92491733D01*
X120323656Y-92436290D01*
X120323653Y-92436289D01*
X120108859Y-92304662D01*
X119876110Y-92208255D01*
X119631150Y-92149446D01*
X119442884Y-92134629D01*
X119442882Y-92134629D01*
X119317118Y-92134629D01*
X119317116Y-92134629D01*
X119128849Y-92149446D01*
X118883889Y-92208255D01*
X118651140Y-92304662D01*
X118436346Y-92436289D01*
X118436343Y-92436290D01*
X118244776Y-92599905D01*
X118081161Y-92791472D01*
X118081160Y-92791475D01*
X117949533Y-93006269D01*
X117853126Y-93239018D01*
X117794317Y-93483977D01*
X117774551Y-93735129D01*
X116890500Y-93735129D01*
X116890500Y-92340561D01*
X116890690Y-92335709D01*
X116904759Y-92157053D01*
X116907800Y-92137857D01*
X116947935Y-91970707D01*
X116953939Y-91952228D01*
X117019725Y-91793415D01*
X117028547Y-91776103D01*
X117118362Y-91629538D01*
X117129791Y-91613809D01*
X117241413Y-91483113D01*
X117255170Y-91469355D01*
X117385865Y-91357724D01*
X117401604Y-91346288D01*
X117426913Y-91330777D01*
X117548147Y-91256476D01*
X117565469Y-91247649D01*
X117724260Y-91181863D01*
X117742763Y-91175851D01*
X117909889Y-91135713D01*
X117929101Y-91132667D01*
X118003520Y-91126803D01*
X118106982Y-91118652D01*
X118111854Y-91118460D01*
X130986000Y-91118460D01*
X131053039Y-91138145D01*
G37*
G04 #@! TD.AperFunction*
G04 #@! TA.AperFunction,Conductor*
G36*
X126478697Y-96350385D02*
G01*
X126499339Y-96367019D01*
X126632981Y-96500661D01*
X126666466Y-96561984D01*
X126669300Y-96588342D01*
X126669300Y-96639597D01*
X126649615Y-96706636D01*
X126620787Y-96737972D01*
X126573931Y-96773926D01*
X126478171Y-96898723D01*
X126417978Y-97044043D01*
X126417977Y-97044047D01*
X126397445Y-97199999D01*
X126397445Y-97200000D01*
X126417977Y-97355952D01*
X126417978Y-97355956D01*
X126478170Y-97501275D01*
X126478171Y-97501277D01*
X126478172Y-97501278D01*
X126573929Y-97626071D01*
X126698722Y-97721828D01*
X126726553Y-97733356D01*
X126731582Y-97735439D01*
X126785985Y-97779280D01*
X126808050Y-97845574D01*
X126790771Y-97913274D01*
X126739633Y-97960884D01*
X126731583Y-97964560D01*
X126716683Y-97970733D01*
X126698721Y-97978173D01*
X126573930Y-98073927D01*
X126512150Y-98154442D01*
X126455722Y-98195644D01*
X126385976Y-98199799D01*
X126326093Y-98166636D01*
X126229147Y-98069690D01*
X126195662Y-98008367D01*
X126193889Y-97965823D01*
X126202555Y-97900000D01*
X126202555Y-97899999D01*
X126197588Y-97862271D01*
X126182023Y-97744047D01*
X126121828Y-97598723D01*
X126026072Y-97473930D01*
X125901275Y-97378170D01*
X125755956Y-97317978D01*
X125755954Y-97317977D01*
X125755953Y-97317977D01*
X125677976Y-97307711D01*
X125600001Y-97297445D01*
X125599999Y-97297445D01*
X125444047Y-97317977D01*
X125444043Y-97317978D01*
X125298723Y-97378171D01*
X125173929Y-97473929D01*
X125078171Y-97598723D01*
X125017978Y-97744043D01*
X125017977Y-97744047D01*
X125012698Y-97784148D01*
X124997445Y-97900000D01*
X125007736Y-97978170D01*
X125017977Y-98055952D01*
X125017978Y-98055956D01*
X125078170Y-98201275D01*
X125078171Y-98201277D01*
X125078172Y-98201278D01*
X125173929Y-98326071D01*
X125197351Y-98344043D01*
X125272392Y-98401625D01*
X125313594Y-98458053D01*
X125317749Y-98527799D01*
X125283536Y-98588719D01*
X125272392Y-98598375D01*
X125173929Y-98673928D01*
X125078171Y-98798723D01*
X125017978Y-98944043D01*
X125017977Y-98944047D01*
X124997445Y-99099999D01*
X124997445Y-99100000D01*
X125017977Y-99255952D01*
X125017978Y-99255956D01*
X125078170Y-99401275D01*
X125078171Y-99401277D01*
X125078172Y-99401278D01*
X125173929Y-99526071D01*
X125298722Y-99621828D01*
X125298723Y-99621828D01*
X125298724Y-99621829D01*
X125411652Y-99668605D01*
X125466056Y-99712446D01*
X125488121Y-99778740D01*
X125488200Y-99783166D01*
X125488200Y-101063853D01*
X125487964Y-101069259D01*
X125484375Y-101110271D01*
X125495029Y-101150032D01*
X125496200Y-101155314D01*
X125503349Y-101195856D01*
X125504933Y-101200208D01*
X125512602Y-101218722D01*
X125514558Y-101222916D01*
X125514559Y-101222918D01*
X125514560Y-101222920D01*
X125538179Y-101256652D01*
X125541080Y-101261206D01*
X125561661Y-101296853D01*
X125593198Y-101323316D01*
X125597188Y-101326972D01*
X125718581Y-101448365D01*
X125752066Y-101509688D01*
X125754900Y-101536046D01*
X125754900Y-102006853D01*
X125735215Y-102073892D01*
X125682411Y-102119647D01*
X125613253Y-102129591D01*
X125549697Y-102100566D01*
X125532529Y-102082345D01*
X125526071Y-102073929D01*
X125401278Y-101978172D01*
X125401277Y-101978171D01*
X125401275Y-101978170D01*
X125255956Y-101917978D01*
X125255954Y-101917977D01*
X125255953Y-101917977D01*
X125177976Y-101907711D01*
X125100001Y-101897445D01*
X125099999Y-101897445D01*
X124944047Y-101917977D01*
X124944043Y-101917978D01*
X124798723Y-101978171D01*
X124673929Y-102073929D01*
X124578171Y-102198723D01*
X124517978Y-102344043D01*
X124517977Y-102344047D01*
X124497445Y-102500000D01*
X124516534Y-102644996D01*
X124517977Y-102655952D01*
X124517978Y-102655956D01*
X124578170Y-102801275D01*
X124578171Y-102801277D01*
X124578172Y-102801278D01*
X124673929Y-102926071D01*
X124719314Y-102960896D01*
X124720786Y-102962025D01*
X124761989Y-103018453D01*
X124769300Y-103060401D01*
X124769300Y-103611658D01*
X124749615Y-103678697D01*
X124732981Y-103699339D01*
X124299339Y-104132981D01*
X124238016Y-104166466D01*
X124211658Y-104169300D01*
X123217149Y-104169300D01*
X123211748Y-104169064D01*
X123200836Y-104168109D01*
X123170731Y-104165475D01*
X123166124Y-104165878D01*
X123140135Y-104169300D01*
X121660401Y-104169300D01*
X121593362Y-104149615D01*
X121562025Y-104120786D01*
X121526072Y-104073930D01*
X121489634Y-104045970D01*
X121401278Y-103978172D01*
X121401277Y-103978171D01*
X121401275Y-103978170D01*
X121255956Y-103917978D01*
X121255954Y-103917977D01*
X121255953Y-103917977D01*
X121177976Y-103907711D01*
X121100001Y-103897445D01*
X121099999Y-103897445D01*
X120944047Y-103917977D01*
X120944043Y-103917978D01*
X120798723Y-103978171D01*
X120673929Y-104073929D01*
X120578171Y-104198723D01*
X120517978Y-104344043D01*
X120517977Y-104344047D01*
X120497445Y-104499999D01*
X120497445Y-104500000D01*
X120517977Y-104655952D01*
X120517978Y-104655956D01*
X120578170Y-104801275D01*
X120578171Y-104801277D01*
X120578172Y-104801278D01*
X120673929Y-104926071D01*
X120798722Y-105021828D01*
X120944047Y-105082023D01*
X121081855Y-105100166D01*
X121099999Y-105102555D01*
X121100000Y-105102555D01*
X121100001Y-105102555D01*
X121116253Y-105100415D01*
X121255953Y-105082023D01*
X121401278Y-105021828D01*
X121526071Y-104926071D01*
X121562027Y-104879213D01*
X121618455Y-104838010D01*
X121660402Y-104830700D01*
X122242405Y-104830700D01*
X122309444Y-104850385D01*
X122355199Y-104903189D01*
X122365933Y-104965510D01*
X122365476Y-104970733D01*
X122369064Y-105011742D01*
X122369300Y-105017149D01*
X122369300Y-106221500D01*
X122349615Y-106288539D01*
X122296811Y-106334294D01*
X122245300Y-106345500D01*
X121811628Y-106345500D01*
X121744589Y-106325815D01*
X121698834Y-106273011D01*
X121688689Y-106205316D01*
X121702555Y-106100000D01*
X121682023Y-105944047D01*
X121621828Y-105798723D01*
X121574151Y-105736589D01*
X121526072Y-105673930D01*
X121458539Y-105622110D01*
X121401278Y-105578172D01*
X121401277Y-105578171D01*
X121401275Y-105578170D01*
X121255956Y-105517978D01*
X121255954Y-105517977D01*
X121255953Y-105517977D01*
X121138814Y-105502555D01*
X121100001Y-105497445D01*
X121099999Y-105497445D01*
X120944047Y-105517977D01*
X120944043Y-105517978D01*
X120798723Y-105578171D01*
X120673929Y-105673929D01*
X120657465Y-105695386D01*
X120601038Y-105736589D01*
X120559089Y-105743900D01*
X120298863Y-105743900D01*
X120231824Y-105724215D01*
X120211182Y-105707581D01*
X119992419Y-105488818D01*
X119958934Y-105427495D01*
X119956100Y-105401137D01*
X119956100Y-103198862D01*
X119975785Y-103131823D01*
X119992410Y-103111190D01*
X120156077Y-102947523D01*
X120217396Y-102914041D01*
X120287087Y-102919025D01*
X120343021Y-102960896D01*
X120348068Y-102968166D01*
X120349937Y-102971075D01*
X120349948Y-102971090D01*
X120398309Y-103026903D01*
X120398310Y-103026904D01*
X120506968Y-103121055D01*
X120506967Y-103121055D01*
X120506971Y-103121058D01*
X120506974Y-103121060D01*
X120569105Y-103160988D01*
X120569113Y-103160991D01*
X120569117Y-103160994D01*
X120699889Y-103220716D01*
X120770752Y-103241524D01*
X120770755Y-103241524D01*
X120770756Y-103241525D01*
X120913071Y-103261987D01*
X120913072Y-103261987D01*
X120986925Y-103261987D01*
X120986928Y-103261987D01*
X120993195Y-103261085D01*
X120995547Y-103260748D01*
X121013192Y-103259486D01*
X121386808Y-103259486D01*
X121404453Y-103260748D01*
X121407334Y-103261162D01*
X121413072Y-103261987D01*
X121413075Y-103261987D01*
X121486928Y-103261987D01*
X121486929Y-103261987D01*
X121629244Y-103241525D01*
X121629246Y-103241524D01*
X121629248Y-103241524D01*
X121700110Y-103220716D01*
X121830882Y-103160994D01*
X121830882Y-103160993D01*
X121830895Y-103160988D01*
X121893026Y-103121060D01*
X122001687Y-103026906D01*
X122050055Y-102971086D01*
X122127787Y-102850132D01*
X122158468Y-102782949D01*
X122198975Y-102644994D01*
X122209486Y-102571889D01*
X122209486Y-101950000D01*
X122189734Y-101850699D01*
X122189733Y-101850698D01*
X122189434Y-101849192D01*
X122189434Y-101800808D01*
X122189734Y-101799301D01*
X122204500Y-101725067D01*
X122204499Y-100850307D01*
X122224183Y-100783269D01*
X122276987Y-100737514D01*
X122336724Y-100728924D01*
X122375485Y-100721931D01*
X122434679Y-100592316D01*
X122434680Y-100592311D01*
X122455141Y-100449999D01*
X122455142Y-100449998D01*
X122455142Y-99828112D01*
X122455141Y-99828111D01*
X122434680Y-99685798D01*
X122434679Y-99685794D01*
X122394176Y-99547850D01*
X122334445Y-99417056D01*
X122334445Y-99417055D01*
X122258519Y-99298912D01*
X122258104Y-99298182D01*
X122256713Y-99296100D01*
X122210632Y-99242919D01*
X121553553Y-99899999D01*
X121553553Y-99900000D01*
X121887372Y-100233819D01*
X121920857Y-100295142D01*
X121915873Y-100364834D01*
X121874001Y-100420767D01*
X121808537Y-100445184D01*
X121799691Y-100445500D01*
X121443308Y-100445500D01*
X121376269Y-100425815D01*
X121355626Y-100409181D01*
X121200000Y-100253553D01*
X120189367Y-99242920D01*
X120143287Y-99296101D01*
X120143285Y-99296104D01*
X120065554Y-99417055D01*
X120065554Y-99417056D01*
X120005823Y-99547850D01*
X119973677Y-99657333D01*
X119935903Y-99716112D01*
X119872347Y-99745137D01*
X119803189Y-99735194D01*
X119750385Y-99689439D01*
X119730700Y-99622399D01*
X119730700Y-98953207D01*
X120606760Y-98953207D01*
X121199999Y-99546446D01*
X121793237Y-98953207D01*
X121793237Y-98953206D01*
X121664203Y-98915319D01*
X121521889Y-98894858D01*
X121521888Y-98894857D01*
X121375936Y-98894857D01*
X121375909Y-98894858D01*
X121024091Y-98894858D01*
X121024063Y-98894857D01*
X120878111Y-98894857D01*
X120878110Y-98894858D01*
X120739778Y-98914747D01*
X120735790Y-98915320D01*
X120606760Y-98953206D01*
X120606760Y-98953207D01*
X119730700Y-98953207D01*
X119730700Y-98188342D01*
X119750385Y-98121303D01*
X119767019Y-98100661D01*
X121500661Y-96367019D01*
X121561984Y-96333534D01*
X121588342Y-96330700D01*
X126411658Y-96330700D01*
X126478697Y-96350385D01*
G37*
G04 #@! TD.AperFunction*
M02*
