M48
; DRILL file {KiCad 7.0.8} date 2023 October 02, Monday 15:07:21
; FORMAT={-:-/ absolute / inch / decimal}
; #@! TF.CreationDate,2023-10-02T15:07:21-07:00
; #@! TF.GenerationSoftware,Kicad,Pcbnew,7.0.8
; #@! TF.FileFunction,Plated,1,2,PTH
FMAT,2
INCH
; #@! TA.AperFunction,Plated,PTH,ViaDrill
T1C0.0130
; #@! TA.AperFunction,Plated,PTH,ComponentDrill
T2C0.0394
%
G90
G05
T1
X4.6378Y-4.1339
X4.6457Y-3.7835
X4.6457Y-4.3622
X4.7677Y-4.1142
X4.7677Y-4.1772
X4.8031Y-3.622
X4.8031Y-4.5591
X4.8933Y-3.8772
X4.9031Y-4.3906
X4.9252Y-4.0354
X4.9449Y-3.8543
X4.9449Y-3.9016
X5.0Y-3.8268
X5.0Y-3.878
X5.0Y-3.9567
X5.0823Y-4.2217
X5.0827Y-4.2992
X5.126Y-3.622
X5.2087Y-3.622
X5.2126Y-4.2362
X5.4961Y-3.622
X5.4961Y-4.1299
X5.6339Y-4.3425
X5.6339Y-4.5591
X5.6535Y-3.7835
X5.7244Y-3.622
X5.7244Y-4.1299
X5.7244Y-4.3425
X5.7244Y-4.5591
X5.9409Y-3.622
X5.9409Y-4.5591
X5.941Y-4.1334
X6.065Y-4.3624
X6.1417Y-4.1339
X6.1417Y-4.3622
X6.1457Y-3.7835
T2
X4.9Y-4.5144
X5.0Y-4.5144
X5.1Y-4.5144
X5.2Y-4.5144
X5.3Y-4.5144
X5.4Y-4.5144
X5.5Y-4.5144
T0
M30
